%TF.GenerationSoftware,Altium Limited,Altium Designer,25.6.2 (33)*%
G04 Layer_Color=32896*
%FSLAX25Y25*%
%MOIN*%
%TF.SameCoordinates,FE0DA3C0-2896-4111-9436-F88E09ACE2E6*%
%TF.FilePolarity,Positive*%
%TF.FileFunction,Legend,Bot*%
%TF.Part,Single*%
G01*
G75*
G36*
X120462Y209766D02*
X120384Y209720D01*
X120310Y209669D01*
X120236Y209609D01*
X120171Y209554D01*
X120116Y209498D01*
X120070Y209457D01*
X120056Y209438D01*
X120042Y209424D01*
X120037Y209420D01*
X120033Y209415D01*
X119954Y209318D01*
X119880Y209221D01*
X119816Y209129D01*
X119765Y209036D01*
X119719Y208958D01*
X119700Y208925D01*
X119686Y208898D01*
X119672Y208875D01*
X119668Y208856D01*
X119658Y208847D01*
Y208842D01*
X119280D01*
X119307Y208911D01*
X119340Y208981D01*
X119372Y209050D01*
X119404Y209115D01*
X119432Y209170D01*
X119455Y209216D01*
X119474Y209244D01*
X119478Y209249D01*
Y209253D01*
X119529Y209337D01*
X119580Y209411D01*
X119626Y209475D01*
X119668Y209526D01*
X119700Y209572D01*
X119728Y209600D01*
X119746Y209623D01*
X119751Y209628D01*
X117251D01*
Y210020D01*
X120462D01*
Y209766D01*
D02*
G37*
G36*
X120449Y207447D02*
X118222Y206680D01*
X118102Y206639D01*
X118000Y206606D01*
X117912Y206574D01*
X117838Y206551D01*
X117783Y206532D01*
X117741Y206518D01*
X117718Y206514D01*
X117709Y206509D01*
X117773Y206491D01*
X117847Y206468D01*
X117926Y206440D01*
X118005Y206417D01*
X118074Y206394D01*
X118129Y206375D01*
X118152Y206366D01*
X118166Y206361D01*
X118175Y206357D01*
X118180D01*
X120449Y205599D01*
Y204966D01*
X117251D01*
Y205373D01*
X119973D01*
X117251Y206297D01*
Y206675D01*
X119926Y207609D01*
X117251D01*
Y208015D01*
X120449D01*
Y207447D01*
D02*
G37*
G36*
X119608Y204435D02*
X119691Y204426D01*
X119765Y204407D01*
X119829Y204393D01*
X119885Y204375D01*
X119926Y204356D01*
X119949Y204347D01*
X119959Y204342D01*
X120028Y204305D01*
X120088Y204259D01*
X120143Y204218D01*
X120185Y204176D01*
X120218Y204139D01*
X120245Y204111D01*
X120259Y204093D01*
X120264Y204084D01*
X120301Y204024D01*
X120333Y203954D01*
X120361Y203890D01*
X120384Y203830D01*
X120398Y203774D01*
X120407Y203732D01*
X120416Y203700D01*
Y203691D01*
X120425Y203622D01*
X120435Y203543D01*
X120439Y203460D01*
X120444Y203381D01*
X120449Y203312D01*
Y202000D01*
X117251D01*
Y202425D01*
X118550D01*
Y203243D01*
X118554Y203363D01*
X118563Y203478D01*
X118577Y203580D01*
X118596Y203672D01*
X118614Y203760D01*
X118637Y203834D01*
X118665Y203903D01*
X118693Y203963D01*
X118716Y204014D01*
X118744Y204061D01*
X118767Y204098D01*
X118790Y204125D01*
X118804Y204148D01*
X118818Y204162D01*
X118827Y204171D01*
X118832Y204176D01*
X118887Y204222D01*
X118942Y204264D01*
X118998Y204296D01*
X119058Y204328D01*
X119118Y204356D01*
X119173Y204375D01*
X119280Y204407D01*
X119330Y204416D01*
X119377Y204426D01*
X119418Y204430D01*
X119450Y204435D01*
X119483Y204439D01*
X119501D01*
X119515D01*
X119520D01*
X119608Y204435D01*
D02*
G37*
G36*
X109075Y210626D02*
X109149D01*
X109223Y210621D01*
X109287Y210612D01*
X109352Y210607D01*
X109408Y210602D01*
X109458Y210593D01*
X109505Y210589D01*
X109546Y210579D01*
X109579Y210575D01*
X109606Y210570D01*
X109629Y210565D01*
X109643Y210561D01*
X109652Y210556D01*
X109657D01*
X109759Y210528D01*
X109851Y210496D01*
X109930Y210459D01*
X109999Y210432D01*
X110059Y210399D01*
X110101Y210381D01*
X110124Y210362D01*
X110133Y210358D01*
X110202Y210307D01*
X110262Y210256D01*
X110313Y210201D01*
X110359Y210150D01*
X110392Y210104D01*
X110415Y210067D01*
X110429Y210043D01*
X110433Y210039D01*
Y210034D01*
X110470Y209960D01*
X110493Y209882D01*
X110512Y209808D01*
X110526Y209738D01*
X110535Y209678D01*
X110539Y209628D01*
Y209586D01*
X110530Y209461D01*
X110512Y209346D01*
X110479Y209249D01*
X110447Y209166D01*
X110410Y209096D01*
X110396Y209069D01*
X110378Y209046D01*
X110369Y209027D01*
X110359Y209013D01*
X110350Y209009D01*
Y209004D01*
X110276Y208921D01*
X110188Y208852D01*
X110101Y208791D01*
X110017Y208745D01*
X109939Y208708D01*
X109906Y208690D01*
X109874Y208681D01*
X109851Y208671D01*
X109833Y208662D01*
X109823Y208657D01*
X109819D01*
X109749Y208639D01*
X109680Y208621D01*
X109528Y208593D01*
X109375Y208570D01*
X109232Y208556D01*
X109163Y208551D01*
X109103Y208546D01*
X109047D01*
X108996Y208542D01*
X108959D01*
X108927D01*
X108909D01*
X108904D01*
X108742Y208546D01*
X108590Y208556D01*
X108451Y208570D01*
X108322Y208593D01*
X108202Y208616D01*
X108096Y208644D01*
X107999Y208671D01*
X107915Y208699D01*
X107841Y208727D01*
X107777Y208759D01*
X107721Y208782D01*
X107680Y208805D01*
X107643Y208828D01*
X107620Y208842D01*
X107606Y208852D01*
X107601Y208856D01*
X107546Y208907D01*
X107495Y208962D01*
X107449Y209022D01*
X107412Y209083D01*
X107379Y209142D01*
X107352Y209203D01*
X107333Y209263D01*
X107315Y209318D01*
X107301Y209373D01*
X107292Y209424D01*
X107282Y209471D01*
X107278Y209507D01*
X107273Y209540D01*
Y209586D01*
X107282Y209711D01*
X107301Y209826D01*
X107333Y209923D01*
X107366Y210006D01*
X107398Y210076D01*
X107416Y210099D01*
X107430Y210122D01*
X107439Y210140D01*
X107449Y210154D01*
X107458Y210159D01*
Y210163D01*
X107536Y210247D01*
X107620Y210316D01*
X107712Y210376D01*
X107795Y210422D01*
X107874Y210459D01*
X107906Y210478D01*
X107938Y210487D01*
X107961Y210496D01*
X107980Y210505D01*
X107989Y210510D01*
X107994D01*
X108063Y210533D01*
X108132Y210552D01*
X108280Y210579D01*
X108433Y210602D01*
X108581Y210616D01*
X108645Y210621D01*
X108705Y210626D01*
X108761D01*
X108812Y210630D01*
X108849D01*
X108881D01*
X108899D01*
X108904D01*
X108992D01*
X109075Y210626D01*
D02*
G37*
G36*
X110526Y207447D02*
X108299Y206680D01*
X108179Y206639D01*
X108077Y206606D01*
X107989Y206574D01*
X107915Y206551D01*
X107860Y206532D01*
X107818Y206518D01*
X107795Y206514D01*
X107786Y206509D01*
X107851Y206491D01*
X107924Y206468D01*
X108003Y206440D01*
X108082Y206417D01*
X108151Y206394D01*
X108206Y206375D01*
X108229Y206366D01*
X108243Y206361D01*
X108253Y206357D01*
X108257D01*
X110526Y205599D01*
Y204966D01*
X107329D01*
Y205373D01*
X110050D01*
X107329Y206297D01*
Y206675D01*
X110003Y207609D01*
X107329D01*
Y208015D01*
X110526D01*
Y207447D01*
D02*
G37*
G36*
X109685Y204435D02*
X109768Y204426D01*
X109842Y204407D01*
X109906Y204393D01*
X109962Y204375D01*
X110003Y204356D01*
X110027Y204347D01*
X110036Y204342D01*
X110105Y204305D01*
X110165Y204259D01*
X110221Y204218D01*
X110262Y204176D01*
X110295Y204139D01*
X110322Y204111D01*
X110336Y204093D01*
X110341Y204084D01*
X110378Y204024D01*
X110410Y203954D01*
X110438Y203890D01*
X110461Y203830D01*
X110475Y203774D01*
X110484Y203732D01*
X110493Y203700D01*
Y203691D01*
X110503Y203622D01*
X110512Y203543D01*
X110516Y203460D01*
X110521Y203381D01*
X110526Y203312D01*
Y202000D01*
X107329D01*
Y202425D01*
X108627D01*
Y203243D01*
X108631Y203363D01*
X108641Y203478D01*
X108654Y203580D01*
X108673Y203672D01*
X108692Y203760D01*
X108715Y203834D01*
X108742Y203903D01*
X108770Y203963D01*
X108793Y204014D01*
X108821Y204061D01*
X108844Y204098D01*
X108867Y204125D01*
X108881Y204148D01*
X108895Y204162D01*
X108904Y204171D01*
X108909Y204176D01*
X108964Y204222D01*
X109019Y204264D01*
X109075Y204296D01*
X109135Y204328D01*
X109195Y204356D01*
X109250Y204375D01*
X109357Y204407D01*
X109408Y204416D01*
X109454Y204426D01*
X109495Y204430D01*
X109528Y204435D01*
X109560Y204439D01*
X109579D01*
X109592D01*
X109597D01*
X109685Y204435D01*
D02*
G37*
G36*
X100531Y210935D02*
X100452Y210889D01*
X100378Y210838D01*
X100304Y210778D01*
X100240Y210723D01*
X100184Y210667D01*
X100138Y210626D01*
X100124Y210607D01*
X100110Y210593D01*
X100106Y210589D01*
X100101Y210584D01*
X100023Y210487D01*
X99949Y210390D01*
X99884Y210297D01*
X99833Y210205D01*
X99787Y210127D01*
X99769Y210094D01*
X99755Y210067D01*
X99741Y210043D01*
X99736Y210025D01*
X99727Y210016D01*
Y210011D01*
X99348D01*
X99376Y210080D01*
X99408Y210150D01*
X99440Y210219D01*
X99473Y210284D01*
X99501Y210339D01*
X99524Y210385D01*
X99542Y210413D01*
X99547Y210418D01*
Y210422D01*
X99598Y210505D01*
X99648Y210579D01*
X99695Y210644D01*
X99736Y210695D01*
X99769Y210741D01*
X99796Y210769D01*
X99815Y210792D01*
X99819Y210796D01*
X97320D01*
Y211189D01*
X100531D01*
Y210935D01*
D02*
G37*
G36*
X97403Y209272D02*
X97445Y209175D01*
X97496Y209083D01*
X97546Y208999D01*
X97588Y208930D01*
X97606Y208898D01*
X97625Y208875D01*
X97639Y208852D01*
X97648Y208838D01*
X97657Y208828D01*
Y208824D01*
X97750Y208907D01*
X97842Y208981D01*
X97934Y209046D01*
X98022Y209096D01*
X98096Y209133D01*
X98128Y209147D01*
X98156Y209161D01*
X98175Y209170D01*
X98193Y209179D01*
X98202Y209184D01*
X98207D01*
X98327Y209226D01*
X98452Y209253D01*
X98572Y209277D01*
X98683Y209290D01*
X98729Y209295D01*
X98775Y209300D01*
X98817D01*
X98854Y209304D01*
X98882D01*
X98900D01*
X98914D01*
X98918D01*
X99089Y209295D01*
X99251Y209277D01*
X99325Y209263D01*
X99394Y209244D01*
X99459Y209226D01*
X99519Y209212D01*
X99575Y209193D01*
X99625Y209175D01*
X99667Y209161D01*
X99704Y209142D01*
X99732Y209133D01*
X99750Y209124D01*
X99764Y209115D01*
X99769D01*
X99902Y209041D01*
X100023Y208953D01*
X100124Y208861D01*
X100207Y208777D01*
X100272Y208699D01*
X100300Y208662D01*
X100323Y208634D01*
X100337Y208607D01*
X100351Y208588D01*
X100355Y208579D01*
X100360Y208574D01*
X100397Y208505D01*
X100429Y208436D01*
X100485Y208302D01*
X100522Y208163D01*
X100545Y208043D01*
X100554Y207987D01*
X100563Y207932D01*
X100568Y207891D01*
Y207849D01*
X100572Y207817D01*
Y207692D01*
X100563Y207613D01*
X100540Y207466D01*
X100508Y207331D01*
X100489Y207271D01*
X100471Y207211D01*
X100452Y207160D01*
X100434Y207114D01*
X100415Y207077D01*
X100401Y207045D01*
X100388Y207017D01*
X100378Y206999D01*
X100374Y206985D01*
X100369Y206980D01*
X100286Y206856D01*
X100189Y206749D01*
X100092Y206652D01*
X99999Y206578D01*
X99912Y206514D01*
X99875Y206491D01*
X99843Y206472D01*
X99815Y206454D01*
X99796Y206444D01*
X99782Y206440D01*
X99778Y206435D01*
X99630Y206370D01*
X99477Y206324D01*
X99334Y206292D01*
X99200Y206269D01*
X99140Y206260D01*
X99085Y206255D01*
X99034Y206250D01*
X98992D01*
X98960Y206246D01*
X98937D01*
X98918D01*
X98914D01*
X98743Y206255D01*
X98581Y206274D01*
X98503Y206292D01*
X98433Y206306D01*
X98369Y206324D01*
X98309Y206343D01*
X98253Y206357D01*
X98202Y206375D01*
X98161Y206394D01*
X98124Y206407D01*
X98096Y206417D01*
X98078Y206426D01*
X98064Y206435D01*
X98059D01*
X97925Y206514D01*
X97810Y206602D01*
X97708Y206689D01*
X97625Y206777D01*
X97560Y206856D01*
X97532Y206888D01*
X97509Y206920D01*
X97496Y206943D01*
X97482Y206962D01*
X97477Y206971D01*
X97472Y206976D01*
X97435Y207045D01*
X97403Y207110D01*
X97352Y207248D01*
X97315Y207382D01*
X97292Y207502D01*
X97283Y207558D01*
X97274Y207609D01*
X97269Y207655D01*
Y207692D01*
X97264Y207724D01*
Y207766D01*
X97269Y207844D01*
X97274Y207923D01*
X97297Y208071D01*
X97329Y208205D01*
X97348Y208265D01*
X97366Y208320D01*
X97385Y208371D01*
X97399Y208417D01*
X97417Y208454D01*
X97431Y208491D01*
X97445Y208514D01*
X97454Y208537D01*
X97463Y208546D01*
Y208551D01*
X97371Y208681D01*
X97288Y208805D01*
X97223Y208921D01*
X97167Y209022D01*
X97144Y209069D01*
X97126Y209110D01*
X97107Y209147D01*
X97094Y209179D01*
X97084Y209207D01*
X97075Y209226D01*
X97070Y209235D01*
Y209240D01*
X97361Y209364D01*
X97403Y209272D01*
D02*
G37*
G36*
X98189Y205437D02*
X98281Y205373D01*
X98364Y205312D01*
X98433Y205253D01*
X98498Y205202D01*
X98544Y205155D01*
X98581Y205118D01*
X98604Y205095D01*
X98614Y205086D01*
X98641Y205049D01*
X98674Y205008D01*
X98724Y204924D01*
X98743Y204888D01*
X98761Y204860D01*
X98771Y204841D01*
X98775Y204832D01*
X98789Y204915D01*
X98803Y204994D01*
X98826Y205063D01*
X98844Y205132D01*
X98868Y205192D01*
X98895Y205248D01*
X98918Y205299D01*
X98942Y205345D01*
X98969Y205382D01*
X98992Y205419D01*
X99011Y205447D01*
X99029Y205470D01*
X99043Y205488D01*
X99057Y205502D01*
X99062Y205507D01*
X99066Y205511D01*
X99112Y205548D01*
X99159Y205585D01*
X99256Y205641D01*
X99353Y205678D01*
X99445Y205705D01*
X99524Y205724D01*
X99556Y205728D01*
X99588D01*
X99612Y205733D01*
X99630D01*
X99639D01*
X99644D01*
X99741Y205728D01*
X99829Y205715D01*
X99912Y205691D01*
X99981Y205668D01*
X100041Y205641D01*
X100087Y205622D01*
X100115Y205604D01*
X100120Y205599D01*
X100124D01*
X100198Y205543D01*
X100263Y205488D01*
X100318Y205428D01*
X100360Y205373D01*
X100392Y205322D01*
X100411Y205280D01*
X100425Y205253D01*
X100429Y205248D01*
Y205243D01*
X100443Y205202D01*
X100457Y205151D01*
X100480Y205049D01*
X100494Y204938D01*
X100508Y204837D01*
X100512Y204740D01*
Y204698D01*
X100517Y204661D01*
Y203178D01*
X97320D01*
Y203603D01*
X98738D01*
Y204148D01*
X98734Y204199D01*
Y204236D01*
X98729Y204268D01*
X98724Y204292D01*
Y204310D01*
X98720Y204319D01*
Y204324D01*
X98697Y204398D01*
X98683Y204430D01*
X98669Y204458D01*
X98655Y204486D01*
X98646Y204504D01*
X98641Y204513D01*
X98637Y204518D01*
X98609Y204555D01*
X98577Y204592D01*
X98507Y204661D01*
X98475Y204694D01*
X98447Y204717D01*
X98429Y204730D01*
X98424Y204735D01*
X98359Y204781D01*
X98290Y204832D01*
X98216Y204883D01*
X98147Y204934D01*
X98082Y204975D01*
X98031Y205008D01*
X98013Y205022D01*
X97999Y205031D01*
X97990Y205040D01*
X97985D01*
X97320Y205460D01*
Y205987D01*
X98189Y205437D01*
D02*
G37*
G36*
X100517Y202000D02*
X97320D01*
Y202425D01*
X100517D01*
Y202000D01*
D02*
G37*
G36*
X128174Y207743D02*
X128262Y207729D01*
X128340Y207706D01*
X128405Y207683D01*
X128461Y207655D01*
X128502Y207636D01*
X128525Y207618D01*
X128534Y207613D01*
X128604Y207558D01*
X128668Y207493D01*
X128724Y207424D01*
X128775Y207355D01*
X128812Y207295D01*
X128839Y207244D01*
X128849Y207225D01*
X128858Y207211D01*
X128863Y207202D01*
Y207197D01*
X128881Y207160D01*
X128895Y207114D01*
X128913Y207064D01*
X128932Y207008D01*
X128964Y206893D01*
X128997Y206772D01*
X129010Y206717D01*
X129024Y206666D01*
X129038Y206615D01*
X129047Y206574D01*
X129057Y206541D01*
X129061Y206514D01*
X129066Y206495D01*
Y206491D01*
X129089Y206398D01*
X129107Y206315D01*
X129130Y206241D01*
X129149Y206176D01*
X129172Y206116D01*
X129191Y206066D01*
X129209Y206019D01*
X129223Y205978D01*
X129241Y205945D01*
X129255Y205918D01*
X129264Y205899D01*
X129278Y205881D01*
X129292Y205858D01*
X129297Y205853D01*
X129343Y205812D01*
X129389Y205784D01*
X129435Y205761D01*
X129482Y205747D01*
X129518Y205738D01*
X129551Y205733D01*
X129569D01*
X129579D01*
X129653Y205742D01*
X129717Y205761D01*
X129773Y205788D01*
X129824Y205821D01*
X129860Y205849D01*
X129893Y205876D01*
X129911Y205895D01*
X129916Y205904D01*
X129939Y205941D01*
X129962Y205978D01*
X129999Y206066D01*
X130022Y206158D01*
X130041Y206250D01*
X130050Y206334D01*
X130054Y206370D01*
X130059Y206398D01*
Y206463D01*
X130054Y206592D01*
X130036Y206708D01*
X130008Y206800D01*
X129981Y206879D01*
X129953Y206939D01*
X129925Y206985D01*
X129907Y207008D01*
X129902Y207017D01*
X129837Y207082D01*
X129768Y207133D01*
X129694Y207174D01*
X129620Y207202D01*
X129551Y207221D01*
X129500Y207235D01*
X129477Y207239D01*
X129463Y207244D01*
X129454D01*
X129449D01*
X129482Y207650D01*
X129583Y207641D01*
X129676Y207618D01*
X129763Y207595D01*
X129837Y207562D01*
X129897Y207535D01*
X129944Y207512D01*
X129957Y207502D01*
X129971Y207493D01*
X129976Y207489D01*
X129981D01*
X130059Y207429D01*
X130128Y207364D01*
X130188Y207295D01*
X130235Y207225D01*
X130276Y207165D01*
X130299Y207119D01*
X130309Y207101D01*
X130318Y207087D01*
X130322Y207077D01*
Y207073D01*
X130359Y206971D01*
X130387Y206860D01*
X130410Y206759D01*
X130424Y206662D01*
X130433Y206574D01*
Y206541D01*
X130438Y206509D01*
Y206449D01*
X130433Y206329D01*
X130419Y206223D01*
X130401Y206121D01*
X130383Y206033D01*
X130364Y205964D01*
X130355Y205932D01*
X130345Y205908D01*
X130336Y205890D01*
X130332Y205876D01*
X130327Y205867D01*
Y205862D01*
X130281Y205770D01*
X130230Y205687D01*
X130175Y205617D01*
X130124Y205562D01*
X130078Y205520D01*
X130041Y205488D01*
X130013Y205465D01*
X130008Y205460D01*
X130004D01*
X129925Y205414D01*
X129847Y205382D01*
X129768Y205359D01*
X129699Y205345D01*
X129639Y205336D01*
X129593Y205326D01*
X129574D01*
X129560D01*
X129555D01*
X129551D01*
X129472Y205331D01*
X129398Y205345D01*
X129329Y205363D01*
X129269Y205382D01*
X129223Y205400D01*
X129186Y205419D01*
X129163Y205433D01*
X129154Y205437D01*
X129089Y205484D01*
X129029Y205539D01*
X128978Y205594D01*
X128936Y205650D01*
X128900Y205696D01*
X128876Y205738D01*
X128858Y205765D01*
X128853Y205770D01*
Y205774D01*
X128835Y205812D01*
X128816Y205853D01*
X128784Y205945D01*
X128752Y206052D01*
X128719Y206153D01*
X128692Y206246D01*
X128682Y206287D01*
X128673Y206324D01*
X128664Y206352D01*
X128659Y206375D01*
X128655Y206389D01*
Y206394D01*
X128636Y206472D01*
X128618Y206546D01*
X128599Y206611D01*
X128585Y206666D01*
X128571Y206722D01*
X128558Y206768D01*
X128548Y206809D01*
X128534Y206842D01*
X128525Y206874D01*
X128521Y206897D01*
X128507Y206934D01*
X128502Y206957D01*
X128498Y206962D01*
X128470Y207031D01*
X128437Y207091D01*
X128405Y207142D01*
X128377Y207179D01*
X128350Y207211D01*
X128331Y207230D01*
X128317Y207244D01*
X128313Y207248D01*
X128271Y207281D01*
X128225Y207304D01*
X128179Y207318D01*
X128142Y207331D01*
X128105Y207336D01*
X128077Y207341D01*
X128054D01*
X128049D01*
X127994Y207336D01*
X127943Y207327D01*
X127897Y207313D01*
X127860Y207295D01*
X127823Y207276D01*
X127800Y207262D01*
X127781Y207253D01*
X127777Y207248D01*
X127731Y207211D01*
X127694Y207165D01*
X127661Y207119D01*
X127629Y207077D01*
X127611Y207036D01*
X127592Y207003D01*
X127583Y206980D01*
X127578Y206971D01*
X127555Y206902D01*
X127537Y206828D01*
X127527Y206754D01*
X127518Y206689D01*
X127514Y206634D01*
X127509Y206588D01*
Y206546D01*
X127514Y206444D01*
X127523Y206352D01*
X127537Y206269D01*
X127555Y206195D01*
X127574Y206135D01*
X127587Y206089D01*
X127592Y206075D01*
X127597Y206061D01*
X127601Y206056D01*
Y206052D01*
X127638Y205978D01*
X127680Y205908D01*
X127721Y205858D01*
X127763Y205812D01*
X127795Y205774D01*
X127828Y205751D01*
X127846Y205738D01*
X127851Y205733D01*
X127911Y205701D01*
X127975Y205668D01*
X128045Y205650D01*
X128105Y205631D01*
X128165Y205617D01*
X128207Y205608D01*
X128225D01*
X128239Y205604D01*
X128243D01*
X128248D01*
X128211Y205206D01*
X128096Y205216D01*
X127985Y205234D01*
X127888Y205262D01*
X127800Y205294D01*
X127731Y205326D01*
X127703Y205340D01*
X127680Y205349D01*
X127661Y205363D01*
X127647Y205368D01*
X127638Y205377D01*
X127634D01*
X127546Y205447D01*
X127467Y205520D01*
X127403Y205599D01*
X127347Y205673D01*
X127306Y205738D01*
X127278Y205793D01*
X127269Y205812D01*
X127259Y205825D01*
X127255Y205835D01*
Y205839D01*
X127213Y205955D01*
X127181Y206075D01*
X127162Y206195D01*
X127144Y206311D01*
X127139Y206366D01*
X127135Y206412D01*
Y206454D01*
X127130Y206491D01*
Y206565D01*
X127135Y206689D01*
X127148Y206805D01*
X127172Y206911D01*
X127195Y206999D01*
X127213Y207073D01*
X127227Y207105D01*
X127236Y207133D01*
X127245Y207151D01*
X127250Y207165D01*
X127255Y207174D01*
Y207179D01*
X127306Y207276D01*
X127361Y207359D01*
X127421Y207433D01*
X127477Y207493D01*
X127523Y207539D01*
X127564Y207572D01*
X127592Y207595D01*
X127597Y207599D01*
X127601D01*
X127689Y207650D01*
X127772Y207687D01*
X127851Y207710D01*
X127925Y207729D01*
X127989Y207738D01*
X128040Y207747D01*
X128059D01*
X128073D01*
X128077D01*
X128082D01*
X128174Y207743D01*
D02*
G37*
G36*
X128304Y204402D02*
X128230Y204384D01*
X128160Y204361D01*
X128096Y204338D01*
X128035Y204315D01*
X127980Y204287D01*
X127934Y204259D01*
X127888Y204227D01*
X127846Y204199D01*
X127809Y204176D01*
X127781Y204148D01*
X127754Y204125D01*
X127731Y204107D01*
X127717Y204088D01*
X127703Y204074D01*
X127698Y204070D01*
X127694Y204065D01*
X127657Y204019D01*
X127629Y203968D01*
X127578Y203867D01*
X127541Y203769D01*
X127518Y203672D01*
X127500Y203589D01*
X127495Y203557D01*
Y203525D01*
X127490Y203497D01*
Y203465D01*
X127495Y203358D01*
X127514Y203257D01*
X127537Y203164D01*
X127564Y203081D01*
X127592Y203016D01*
X127606Y202989D01*
X127615Y202966D01*
X127624Y202947D01*
X127634Y202933D01*
X127638Y202924D01*
Y202919D01*
X127703Y202832D01*
X127772Y202758D01*
X127851Y202693D01*
X127925Y202642D01*
X127989Y202601D01*
X128045Y202573D01*
X128068Y202564D01*
X128082Y202554D01*
X128091Y202550D01*
X128096D01*
X128216Y202513D01*
X128336Y202485D01*
X128456Y202462D01*
X128567Y202448D01*
X128618Y202444D01*
X128664Y202439D01*
X128705D01*
X128738Y202434D01*
X128765D01*
X128789D01*
X128802D01*
X128807D01*
X128927Y202439D01*
X129038Y202448D01*
X129140Y202467D01*
X129232Y202485D01*
X129311Y202499D01*
X129343Y202508D01*
X129371Y202517D01*
X129394Y202522D01*
X129408Y202527D01*
X129417Y202531D01*
X129421D01*
X129528Y202577D01*
X129625Y202628D01*
X129703Y202684D01*
X129773Y202744D01*
X129828Y202795D01*
X129865Y202836D01*
X129888Y202869D01*
X129897Y202873D01*
Y202878D01*
X129957Y202975D01*
X130004Y203081D01*
X130036Y203183D01*
X130054Y203280D01*
X130068Y203367D01*
X130073Y203404D01*
Y203437D01*
X130078Y203460D01*
Y203497D01*
X130073Y203612D01*
X130054Y203719D01*
X130027Y203806D01*
X129999Y203885D01*
X129967Y203945D01*
X129944Y203991D01*
X129925Y204019D01*
X129916Y204028D01*
X129847Y204102D01*
X129768Y204171D01*
X129685Y204227D01*
X129602Y204273D01*
X129528Y204310D01*
X129491Y204324D01*
X129463Y204333D01*
X129440Y204342D01*
X129421Y204352D01*
X129412Y204356D01*
X129408D01*
X129505Y204772D01*
X129588Y204744D01*
X129662Y204717D01*
X129731Y204680D01*
X129800Y204647D01*
X129860Y204610D01*
X129916Y204569D01*
X129971Y204532D01*
X130017Y204495D01*
X130054Y204458D01*
X130091Y204426D01*
X130124Y204393D01*
X130147Y204370D01*
X130170Y204347D01*
X130184Y204328D01*
X130188Y204319D01*
X130193Y204315D01*
X130235Y204250D01*
X130276Y204185D01*
X130309Y204121D01*
X130336Y204051D01*
X130378Y203913D01*
X130406Y203788D01*
X130419Y203728D01*
X130424Y203677D01*
X130429Y203626D01*
X130433Y203585D01*
X130438Y203552D01*
Y203506D01*
X130429Y203354D01*
X130406Y203206D01*
X130378Y203077D01*
X130359Y203016D01*
X130341Y202961D01*
X130322Y202910D01*
X130304Y202864D01*
X130290Y202827D01*
X130276Y202790D01*
X130262Y202767D01*
X130253Y202748D01*
X130248Y202735D01*
X130244Y202730D01*
X130165Y202605D01*
X130073Y202499D01*
X129981Y202407D01*
X129888Y202328D01*
X129805Y202268D01*
X129768Y202245D01*
X129736Y202226D01*
X129713Y202208D01*
X129694Y202199D01*
X129680Y202194D01*
X129676Y202189D01*
X129532Y202125D01*
X129385Y202079D01*
X129237Y202046D01*
X129103Y202023D01*
X129043Y202014D01*
X128983Y202009D01*
X128936Y202005D01*
X128890D01*
X128858Y202000D01*
X128830D01*
X128812D01*
X128807D01*
X128641Y202009D01*
X128479Y202028D01*
X128336Y202051D01*
X128267Y202069D01*
X128207Y202083D01*
X128151Y202097D01*
X128100Y202116D01*
X128054Y202129D01*
X128017Y202139D01*
X127989Y202152D01*
X127966Y202157D01*
X127952Y202166D01*
X127948D01*
X127809Y202236D01*
X127684Y202314D01*
X127578Y202397D01*
X127537Y202439D01*
X127495Y202476D01*
X127458Y202513D01*
X127426Y202550D01*
X127398Y202582D01*
X127380Y202610D01*
X127361Y202628D01*
X127347Y202647D01*
X127342Y202656D01*
X127338Y202661D01*
X127301Y202725D01*
X127269Y202790D01*
X127218Y202929D01*
X127181Y203067D01*
X127158Y203201D01*
X127148Y203266D01*
X127139Y203321D01*
X127135Y203372D01*
Y203414D01*
X127130Y203451D01*
Y203502D01*
X127135Y203594D01*
X127144Y203682D01*
X127153Y203765D01*
X127172Y203843D01*
X127195Y203917D01*
X127218Y203987D01*
X127241Y204051D01*
X127269Y204111D01*
X127292Y204162D01*
X127315Y204213D01*
X127338Y204250D01*
X127361Y204287D01*
X127380Y204310D01*
X127389Y204333D01*
X127398Y204342D01*
X127403Y204347D01*
X127458Y204412D01*
X127514Y204467D01*
X127578Y204518D01*
X127643Y204569D01*
X127772Y204652D01*
X127901Y204717D01*
X127962Y204744D01*
X128017Y204767D01*
X128068Y204786D01*
X128109Y204800D01*
X128146Y204814D01*
X128174Y204823D01*
X128193Y204827D01*
X128197D01*
X128304Y204402D01*
D02*
G37*
G36*
X139054Y206574D02*
X140352Y207914D01*
Y207336D01*
X138763Y205756D01*
X140352D01*
Y205331D01*
X137155D01*
Y205756D01*
X138264D01*
X138768Y206278D01*
X137155Y207415D01*
Y207974D01*
X139054Y206574D01*
D02*
G37*
G36*
X138274Y204402D02*
X138200Y204384D01*
X138130Y204361D01*
X138066Y204338D01*
X138005Y204315D01*
X137950Y204287D01*
X137904Y204259D01*
X137858Y204227D01*
X137816Y204199D01*
X137779Y204176D01*
X137751Y204148D01*
X137724Y204125D01*
X137701Y204107D01*
X137687Y204088D01*
X137673Y204074D01*
X137668Y204070D01*
X137664Y204065D01*
X137627Y204019D01*
X137599Y203968D01*
X137548Y203867D01*
X137511Y203769D01*
X137488Y203672D01*
X137470Y203589D01*
X137465Y203557D01*
Y203525D01*
X137460Y203497D01*
Y203465D01*
X137465Y203358D01*
X137484Y203257D01*
X137507Y203164D01*
X137534Y203081D01*
X137562Y203016D01*
X137576Y202989D01*
X137585Y202966D01*
X137594Y202947D01*
X137604Y202933D01*
X137608Y202924D01*
Y202919D01*
X137673Y202832D01*
X137742Y202758D01*
X137821Y202693D01*
X137895Y202642D01*
X137959Y202601D01*
X138015Y202573D01*
X138038Y202564D01*
X138052Y202554D01*
X138061Y202550D01*
X138066D01*
X138186Y202513D01*
X138306Y202485D01*
X138426Y202462D01*
X138537Y202448D01*
X138588Y202444D01*
X138634Y202439D01*
X138675D01*
X138708Y202434D01*
X138735D01*
X138759D01*
X138772D01*
X138777D01*
X138897Y202439D01*
X139008Y202448D01*
X139110Y202467D01*
X139202Y202485D01*
X139281Y202499D01*
X139313Y202508D01*
X139341Y202517D01*
X139364Y202522D01*
X139378Y202527D01*
X139387Y202531D01*
X139392D01*
X139498Y202577D01*
X139595Y202628D01*
X139673Y202684D01*
X139743Y202744D01*
X139798Y202795D01*
X139835Y202836D01*
X139858Y202869D01*
X139867Y202873D01*
Y202878D01*
X139927Y202975D01*
X139974Y203081D01*
X140006Y203183D01*
X140024Y203280D01*
X140038Y203367D01*
X140043Y203404D01*
Y203437D01*
X140048Y203460D01*
Y203497D01*
X140043Y203612D01*
X140024Y203719D01*
X139997Y203806D01*
X139969Y203885D01*
X139937Y203945D01*
X139914Y203991D01*
X139895Y204019D01*
X139886Y204028D01*
X139817Y204102D01*
X139738Y204171D01*
X139655Y204227D01*
X139572Y204273D01*
X139498Y204310D01*
X139461Y204324D01*
X139433Y204333D01*
X139410Y204342D01*
X139392Y204352D01*
X139382Y204356D01*
X139378D01*
X139475Y204772D01*
X139558Y204744D01*
X139632Y204717D01*
X139701Y204680D01*
X139770Y204647D01*
X139830Y204610D01*
X139886Y204569D01*
X139941Y204532D01*
X139988Y204495D01*
X140024Y204458D01*
X140061Y204426D01*
X140094Y204393D01*
X140117Y204370D01*
X140140Y204347D01*
X140154Y204328D01*
X140158Y204319D01*
X140163Y204315D01*
X140205Y204250D01*
X140246Y204185D01*
X140279Y204121D01*
X140306Y204051D01*
X140348Y203913D01*
X140376Y203788D01*
X140389Y203728D01*
X140394Y203677D01*
X140399Y203626D01*
X140403Y203585D01*
X140408Y203552D01*
Y203506D01*
X140399Y203354D01*
X140376Y203206D01*
X140348Y203076D01*
X140329Y203016D01*
X140311Y202961D01*
X140292Y202910D01*
X140274Y202864D01*
X140260Y202827D01*
X140246Y202790D01*
X140232Y202767D01*
X140223Y202748D01*
X140218Y202735D01*
X140214Y202730D01*
X140135Y202605D01*
X140043Y202499D01*
X139951Y202407D01*
X139858Y202328D01*
X139775Y202268D01*
X139738Y202245D01*
X139706Y202226D01*
X139683Y202208D01*
X139664Y202199D01*
X139650Y202194D01*
X139646Y202189D01*
X139502Y202125D01*
X139355Y202079D01*
X139207Y202046D01*
X139073Y202023D01*
X139013Y202014D01*
X138953Y202009D01*
X138906Y202005D01*
X138860D01*
X138828Y202000D01*
X138800D01*
X138782D01*
X138777D01*
X138611Y202009D01*
X138449Y202028D01*
X138306Y202051D01*
X138236Y202069D01*
X138177Y202083D01*
X138121Y202097D01*
X138070Y202116D01*
X138024Y202129D01*
X137987Y202139D01*
X137959Y202152D01*
X137936Y202157D01*
X137922Y202166D01*
X137918D01*
X137779Y202236D01*
X137654Y202314D01*
X137548Y202397D01*
X137507Y202439D01*
X137465Y202476D01*
X137428Y202513D01*
X137396Y202550D01*
X137368Y202582D01*
X137349Y202610D01*
X137331Y202628D01*
X137317Y202647D01*
X137312Y202656D01*
X137308Y202661D01*
X137271Y202725D01*
X137239Y202790D01*
X137188Y202929D01*
X137151Y203067D01*
X137128Y203201D01*
X137118Y203266D01*
X137109Y203321D01*
X137105Y203372D01*
Y203414D01*
X137100Y203451D01*
Y203502D01*
X137105Y203594D01*
X137114Y203682D01*
X137123Y203765D01*
X137142Y203843D01*
X137165Y203917D01*
X137188Y203987D01*
X137211Y204051D01*
X137239Y204111D01*
X137262Y204162D01*
X137285Y204213D01*
X137308Y204250D01*
X137331Y204287D01*
X137349Y204310D01*
X137359Y204333D01*
X137368Y204342D01*
X137373Y204347D01*
X137428Y204412D01*
X137484Y204467D01*
X137548Y204518D01*
X137613Y204569D01*
X137742Y204652D01*
X137872Y204717D01*
X137932Y204744D01*
X137987Y204767D01*
X138038Y204786D01*
X138079Y204800D01*
X138116Y204814D01*
X138144Y204823D01*
X138163Y204827D01*
X138167D01*
X138274Y204402D01*
D02*
G37*
G36*
X138620Y182142D02*
X138782Y182124D01*
X138856Y182110D01*
X138930Y182091D01*
X138995Y182073D01*
X139055Y182059D01*
X139110Y182041D01*
X139161Y182022D01*
X139202Y182008D01*
X139239Y181990D01*
X139267Y181980D01*
X139286Y181971D01*
X139299Y181962D01*
X139304D01*
X139438Y181888D01*
X139558Y181800D01*
X139660Y181708D01*
X139743Y181625D01*
X139808Y181546D01*
X139835Y181509D01*
X139858Y181482D01*
X139872Y181454D01*
X139886Y181435D01*
X139891Y181426D01*
X139895Y181421D01*
X139932Y181352D01*
X139965Y181283D01*
X140020Y181149D01*
X140057Y181010D01*
X140080Y180890D01*
X140089Y180835D01*
X140099Y180779D01*
X140103Y180738D01*
Y180696D01*
X140108Y180664D01*
Y180622D01*
X140103Y180497D01*
X140089Y180382D01*
X140066Y180271D01*
X140039Y180165D01*
X140002Y180068D01*
X139965Y179975D01*
X139923Y179892D01*
X139882Y179818D01*
X139840Y179749D01*
X139798Y179689D01*
X139761Y179638D01*
X139724Y179596D01*
X139697Y179564D01*
X139674Y179536D01*
X139660Y179523D01*
X139655Y179518D01*
X139567Y179444D01*
X139475Y179379D01*
X139373Y179319D01*
X139272Y179273D01*
X139165Y179232D01*
X139064Y179195D01*
X138962Y179167D01*
X138865Y179148D01*
X138773Y179130D01*
X138685Y179116D01*
X138606Y179107D01*
X138542Y179098D01*
X138486D01*
X138445Y179093D01*
X138417D01*
X138412D01*
X138408D01*
X138251Y179102D01*
X138107Y179121D01*
X137969Y179148D01*
X137909Y179167D01*
X137849Y179185D01*
X137798Y179199D01*
X137752Y179218D01*
X137710Y179232D01*
X137673Y179245D01*
X137645Y179255D01*
X137627Y179264D01*
X137613Y179273D01*
X137609D01*
X137475Y179352D01*
X137359Y179435D01*
X137257Y179527D01*
X137174Y179615D01*
X137105Y179693D01*
X137077Y179726D01*
X137059Y179754D01*
X137040Y179781D01*
X137026Y179800D01*
X137022Y179809D01*
X137017Y179814D01*
X136980Y179883D01*
X136948Y179952D01*
X136892Y180091D01*
X136855Y180225D01*
X136828Y180350D01*
X136819Y180410D01*
X136814Y180460D01*
X136805Y180507D01*
Y180548D01*
X136800Y180576D01*
Y180622D01*
X136809Y180775D01*
X136832Y180918D01*
X136860Y181052D01*
X136879Y181112D01*
X136897Y181167D01*
X136916Y181218D01*
X136934Y181264D01*
X136948Y181301D01*
X136962Y181334D01*
X136976Y181361D01*
X136985Y181384D01*
X136994Y181394D01*
Y181398D01*
X137077Y181528D01*
X137170Y181639D01*
X137267Y181731D01*
X137359Y181809D01*
X137447Y181874D01*
X137479Y181897D01*
X137511Y181916D01*
X137539Y181934D01*
X137558Y181944D01*
X137572Y181953D01*
X137576D01*
X137650Y181990D01*
X137724Y182017D01*
X137872Y182068D01*
X138020Y182105D01*
X138154Y182128D01*
X138214Y182133D01*
X138269Y182142D01*
X138320Y182147D01*
X138362D01*
X138399Y182151D01*
X138422D01*
X138440D01*
X138445D01*
X138620Y182142D01*
D02*
G37*
G36*
X137844Y178636D02*
X137932Y178622D01*
X138010Y178599D01*
X138075Y178576D01*
X138130Y178548D01*
X138172Y178529D01*
X138195Y178511D01*
X138204Y178506D01*
X138274Y178451D01*
X138338Y178386D01*
X138394Y178317D01*
X138445Y178247D01*
X138482Y178187D01*
X138509Y178137D01*
X138519Y178118D01*
X138528Y178104D01*
X138532Y178095D01*
Y178090D01*
X138551Y178053D01*
X138565Y178007D01*
X138583Y177956D01*
X138602Y177901D01*
X138634Y177786D01*
X138666Y177665D01*
X138680Y177610D01*
X138694Y177559D01*
X138708Y177508D01*
X138717Y177467D01*
X138726Y177434D01*
X138731Y177407D01*
X138736Y177388D01*
Y177383D01*
X138759Y177291D01*
X138777Y177208D01*
X138800Y177134D01*
X138819Y177069D01*
X138842Y177009D01*
X138860Y176959D01*
X138879Y176912D01*
X138893Y176871D01*
X138911Y176838D01*
X138925Y176811D01*
X138934Y176792D01*
X138948Y176774D01*
X138962Y176751D01*
X138967Y176746D01*
X139013Y176704D01*
X139059Y176677D01*
X139105Y176654D01*
X139152Y176640D01*
X139189Y176630D01*
X139221Y176626D01*
X139239D01*
X139249D01*
X139322Y176635D01*
X139387Y176654D01*
X139443Y176681D01*
X139493Y176714D01*
X139530Y176741D01*
X139563Y176769D01*
X139581Y176788D01*
X139586Y176797D01*
X139609Y176834D01*
X139632Y176871D01*
X139669Y176959D01*
X139692Y177051D01*
X139711Y177143D01*
X139720Y177226D01*
X139724Y177263D01*
X139729Y177291D01*
Y177356D01*
X139724Y177485D01*
X139706Y177601D01*
X139678Y177693D01*
X139650Y177772D01*
X139623Y177832D01*
X139595Y177878D01*
X139577Y177901D01*
X139572Y177910D01*
X139507Y177975D01*
X139438Y178026D01*
X139364Y178067D01*
X139290Y178095D01*
X139221Y178113D01*
X139170Y178127D01*
X139147Y178132D01*
X139133Y178137D01*
X139124D01*
X139119D01*
X139152Y178543D01*
X139253Y178534D01*
X139346Y178511D01*
X139433Y178488D01*
X139507Y178455D01*
X139567Y178428D01*
X139614Y178404D01*
X139627Y178395D01*
X139641Y178386D01*
X139646Y178381D01*
X139650D01*
X139729Y178321D01*
X139798Y178257D01*
X139858Y178187D01*
X139905Y178118D01*
X139946Y178058D01*
X139969Y178012D01*
X139979Y177993D01*
X139988Y177980D01*
X139992Y177970D01*
Y177966D01*
X140029Y177864D01*
X140057Y177753D01*
X140080Y177652D01*
X140094Y177555D01*
X140103Y177467D01*
Y177434D01*
X140108Y177402D01*
Y177342D01*
X140103Y177222D01*
X140089Y177116D01*
X140071Y177014D01*
X140052Y176926D01*
X140034Y176857D01*
X140025Y176824D01*
X140015Y176801D01*
X140006Y176783D01*
X140002Y176769D01*
X139997Y176760D01*
Y176755D01*
X139951Y176663D01*
X139900Y176580D01*
X139845Y176510D01*
X139794Y176455D01*
X139748Y176413D01*
X139711Y176381D01*
X139683Y176358D01*
X139678Y176353D01*
X139674D01*
X139595Y176307D01*
X139516Y176275D01*
X139438Y176252D01*
X139369Y176238D01*
X139309Y176228D01*
X139262Y176219D01*
X139244D01*
X139230D01*
X139225D01*
X139221D01*
X139142Y176224D01*
X139068Y176238D01*
X138999Y176256D01*
X138939Y176275D01*
X138893Y176293D01*
X138856Y176312D01*
X138833Y176326D01*
X138823Y176330D01*
X138759Y176376D01*
X138699Y176432D01*
X138648Y176487D01*
X138606Y176543D01*
X138569Y176589D01*
X138546Y176630D01*
X138528Y176658D01*
X138523Y176663D01*
Y176667D01*
X138505Y176704D01*
X138486Y176746D01*
X138454Y176838D01*
X138422Y176945D01*
X138389Y177046D01*
X138362Y177139D01*
X138352Y177180D01*
X138343Y177217D01*
X138334Y177245D01*
X138329Y177268D01*
X138325Y177282D01*
Y177287D01*
X138306Y177365D01*
X138288Y177439D01*
X138269Y177504D01*
X138255Y177559D01*
X138241Y177614D01*
X138227Y177661D01*
X138218Y177702D01*
X138204Y177735D01*
X138195Y177767D01*
X138191Y177790D01*
X138177Y177827D01*
X138172Y177850D01*
X138168Y177855D01*
X138140Y177924D01*
X138107Y177984D01*
X138075Y178035D01*
X138047Y178072D01*
X138020Y178104D01*
X138001Y178123D01*
X137987Y178137D01*
X137983Y178141D01*
X137941Y178174D01*
X137895Y178197D01*
X137849Y178210D01*
X137812Y178224D01*
X137775Y178229D01*
X137747Y178234D01*
X137724D01*
X137719D01*
X137664Y178229D01*
X137613Y178220D01*
X137567Y178206D01*
X137530Y178187D01*
X137493Y178169D01*
X137470Y178155D01*
X137451Y178146D01*
X137447Y178141D01*
X137401Y178104D01*
X137364Y178058D01*
X137331Y178012D01*
X137299Y177970D01*
X137280Y177929D01*
X137262Y177896D01*
X137253Y177873D01*
X137248Y177864D01*
X137225Y177795D01*
X137206Y177721D01*
X137197Y177647D01*
X137188Y177582D01*
X137183Y177527D01*
X137179Y177480D01*
Y177439D01*
X137183Y177337D01*
X137193Y177245D01*
X137206Y177162D01*
X137225Y177088D01*
X137243Y177028D01*
X137257Y176982D01*
X137262Y176968D01*
X137267Y176954D01*
X137271Y176949D01*
Y176945D01*
X137308Y176871D01*
X137350Y176801D01*
X137391Y176751D01*
X137433Y176704D01*
X137465Y176667D01*
X137498Y176644D01*
X137516Y176630D01*
X137521Y176626D01*
X137581Y176593D01*
X137645Y176561D01*
X137715Y176543D01*
X137775Y176524D01*
X137835Y176510D01*
X137876Y176501D01*
X137895D01*
X137909Y176497D01*
X137913D01*
X137918D01*
X137881Y176099D01*
X137766Y176108D01*
X137655Y176127D01*
X137558Y176155D01*
X137470Y176187D01*
X137401Y176219D01*
X137373Y176233D01*
X137350Y176242D01*
X137331Y176256D01*
X137317Y176261D01*
X137308Y176270D01*
X137303D01*
X137216Y176339D01*
X137137Y176413D01*
X137073Y176492D01*
X137017Y176566D01*
X136976Y176630D01*
X136948Y176686D01*
X136939Y176704D01*
X136929Y176718D01*
X136925Y176727D01*
Y176732D01*
X136883Y176848D01*
X136851Y176968D01*
X136832Y177088D01*
X136814Y177203D01*
X136809Y177259D01*
X136805Y177305D01*
Y177347D01*
X136800Y177383D01*
Y177457D01*
X136805Y177582D01*
X136819Y177698D01*
X136842Y177804D01*
X136865Y177892D01*
X136883Y177966D01*
X136897Y177998D01*
X136906Y178026D01*
X136916Y178044D01*
X136920Y178058D01*
X136925Y178067D01*
Y178072D01*
X136976Y178169D01*
X137031Y178252D01*
X137091Y178326D01*
X137146Y178386D01*
X137193Y178432D01*
X137234Y178465D01*
X137262Y178488D01*
X137267Y178492D01*
X137271D01*
X137359Y178543D01*
X137442Y178580D01*
X137521Y178603D01*
X137595Y178622D01*
X137659Y178631D01*
X137710Y178640D01*
X137729D01*
X137742D01*
X137747D01*
X137752D01*
X137844Y178636D01*
D02*
G37*
G36*
X140052Y175069D02*
X136855D01*
Y175494D01*
X140052D01*
Y175069D01*
D02*
G37*
G36*
Y173743D02*
X137826Y172976D01*
X137706Y172934D01*
X137604Y172902D01*
X137516Y172870D01*
X137442Y172847D01*
X137387Y172828D01*
X137345Y172814D01*
X137322Y172810D01*
X137313Y172805D01*
X137378Y172787D01*
X137451Y172764D01*
X137530Y172736D01*
X137609Y172713D01*
X137678Y172690D01*
X137733Y172671D01*
X137756Y172662D01*
X137770Y172657D01*
X137779Y172653D01*
X137784D01*
X140052Y171895D01*
Y171262D01*
X136855D01*
Y171669D01*
X139577D01*
X136855Y172593D01*
Y172971D01*
X139530Y173905D01*
X136855D01*
Y174311D01*
X140052D01*
Y173743D01*
D02*
G37*
G36*
X130029Y181726D02*
X126832D01*
Y182151D01*
X130029D01*
Y181726D01*
D02*
G37*
G36*
X127821Y181070D02*
X127909Y181056D01*
X127987Y181033D01*
X128052Y181010D01*
X128107Y180982D01*
X128149Y180964D01*
X128172Y180946D01*
X128181Y180941D01*
X128251Y180886D01*
X128315Y180821D01*
X128371Y180752D01*
X128421Y180682D01*
X128458Y180622D01*
X128486Y180571D01*
X128495Y180553D01*
X128505Y180539D01*
X128509Y180530D01*
Y180525D01*
X128528Y180488D01*
X128542Y180442D01*
X128560Y180391D01*
X128579Y180336D01*
X128611Y180220D01*
X128643Y180100D01*
X128657Y180045D01*
X128671Y179994D01*
X128685Y179943D01*
X128694Y179901D01*
X128703Y179869D01*
X128708Y179841D01*
X128713Y179823D01*
Y179818D01*
X128736Y179726D01*
X128754Y179643D01*
X128777Y179569D01*
X128796Y179504D01*
X128819Y179444D01*
X128837Y179393D01*
X128856Y179347D01*
X128870Y179306D01*
X128888Y179273D01*
X128902Y179245D01*
X128911Y179227D01*
X128925Y179208D01*
X128939Y179185D01*
X128944Y179181D01*
X128990Y179139D01*
X129036Y179111D01*
X129082Y179088D01*
X129128Y179075D01*
X129165Y179065D01*
X129198Y179061D01*
X129216D01*
X129225D01*
X129299Y179070D01*
X129364Y179088D01*
X129419Y179116D01*
X129470Y179148D01*
X129507Y179176D01*
X129540Y179204D01*
X129558Y179222D01*
X129563Y179232D01*
X129586Y179269D01*
X129609Y179306D01*
X129646Y179393D01*
X129669Y179486D01*
X129687Y179578D01*
X129697Y179661D01*
X129701Y179698D01*
X129706Y179726D01*
Y179791D01*
X129701Y179920D01*
X129683Y180035D01*
X129655Y180128D01*
X129627Y180206D01*
X129600Y180266D01*
X129572Y180313D01*
X129553Y180336D01*
X129549Y180345D01*
X129484Y180410D01*
X129415Y180461D01*
X129341Y180502D01*
X129267Y180530D01*
X129198Y180548D01*
X129147Y180562D01*
X129124Y180567D01*
X129110Y180571D01*
X129101D01*
X129096D01*
X129128Y180978D01*
X129230Y180969D01*
X129322Y180946D01*
X129410Y180922D01*
X129484Y180890D01*
X129544Y180862D01*
X129590Y180839D01*
X129604Y180830D01*
X129618Y180821D01*
X129623Y180816D01*
X129627D01*
X129706Y180756D01*
X129775Y180692D01*
X129835Y180622D01*
X129881Y180553D01*
X129923Y180493D01*
X129946Y180447D01*
X129955Y180428D01*
X129965Y180414D01*
X129969Y180405D01*
Y180400D01*
X130006Y180299D01*
X130034Y180188D01*
X130057Y180086D01*
X130071Y179989D01*
X130080Y179901D01*
Y179869D01*
X130085Y179837D01*
Y179777D01*
X130080Y179657D01*
X130066Y179550D01*
X130048Y179449D01*
X130029Y179361D01*
X130011Y179292D01*
X130001Y179259D01*
X129992Y179236D01*
X129983Y179218D01*
X129978Y179204D01*
X129974Y179195D01*
Y179190D01*
X129928Y179098D01*
X129877Y179014D01*
X129821Y178945D01*
X129771Y178890D01*
X129724Y178848D01*
X129687Y178816D01*
X129660Y178793D01*
X129655Y178788D01*
X129650D01*
X129572Y178742D01*
X129493Y178709D01*
X129415Y178686D01*
X129346Y178673D01*
X129285Y178663D01*
X129239Y178654D01*
X129221D01*
X129207D01*
X129202D01*
X129198D01*
X129119Y178659D01*
X129045Y178673D01*
X128976Y178691D01*
X128916Y178709D01*
X128870Y178728D01*
X128833Y178746D01*
X128810Y178760D01*
X128800Y178765D01*
X128736Y178811D01*
X128676Y178867D01*
X128625Y178922D01*
X128583Y178977D01*
X128546Y179024D01*
X128523Y179065D01*
X128505Y179093D01*
X128500Y179098D01*
Y179102D01*
X128482Y179139D01*
X128463Y179181D01*
X128431Y179273D01*
X128398Y179379D01*
X128366Y179481D01*
X128338Y179573D01*
X128329Y179615D01*
X128320Y179652D01*
X128311Y179680D01*
X128306Y179703D01*
X128301Y179717D01*
Y179721D01*
X128283Y179800D01*
X128264Y179874D01*
X128246Y179938D01*
X128232Y179994D01*
X128218Y180049D01*
X128204Y180096D01*
X128195Y180137D01*
X128181Y180169D01*
X128172Y180202D01*
X128167Y180225D01*
X128154Y180262D01*
X128149Y180285D01*
X128144Y180289D01*
X128117Y180359D01*
X128084Y180419D01*
X128052Y180470D01*
X128024Y180507D01*
X127997Y180539D01*
X127978Y180558D01*
X127964Y180571D01*
X127960Y180576D01*
X127918Y180608D01*
X127872Y180631D01*
X127825Y180645D01*
X127789Y180659D01*
X127752Y180664D01*
X127724Y180668D01*
X127701D01*
X127696D01*
X127641Y180664D01*
X127590Y180655D01*
X127544Y180641D01*
X127507Y180622D01*
X127470Y180604D01*
X127447Y180590D01*
X127428Y180581D01*
X127424Y180576D01*
X127377Y180539D01*
X127340Y180493D01*
X127308Y180447D01*
X127276Y180405D01*
X127257Y180363D01*
X127239Y180331D01*
X127229Y180308D01*
X127225Y180299D01*
X127202Y180229D01*
X127183Y180156D01*
X127174Y180082D01*
X127165Y180017D01*
X127160Y179962D01*
X127156Y179915D01*
Y179874D01*
X127160Y179772D01*
X127170Y179680D01*
X127183Y179596D01*
X127202Y179523D01*
X127220Y179463D01*
X127234Y179416D01*
X127239Y179402D01*
X127243Y179389D01*
X127248Y179384D01*
Y179379D01*
X127285Y179306D01*
X127327Y179236D01*
X127368Y179185D01*
X127410Y179139D01*
X127442Y179102D01*
X127474Y179079D01*
X127493Y179065D01*
X127497Y179061D01*
X127558Y179028D01*
X127622Y178996D01*
X127692Y178977D01*
X127752Y178959D01*
X127812Y178945D01*
X127853Y178936D01*
X127872D01*
X127886Y178931D01*
X127890D01*
X127895D01*
X127858Y178534D01*
X127742Y178543D01*
X127631Y178562D01*
X127534Y178589D01*
X127447Y178622D01*
X127377Y178654D01*
X127350Y178668D01*
X127327Y178677D01*
X127308Y178691D01*
X127294Y178696D01*
X127285Y178705D01*
X127280D01*
X127193Y178774D01*
X127114Y178848D01*
X127049Y178927D01*
X126994Y179000D01*
X126952Y179065D01*
X126925Y179121D01*
X126915Y179139D01*
X126906Y179153D01*
X126901Y179162D01*
Y179167D01*
X126860Y179282D01*
X126828Y179402D01*
X126809Y179523D01*
X126791Y179638D01*
X126786Y179693D01*
X126781Y179740D01*
Y179781D01*
X126777Y179818D01*
Y179892D01*
X126781Y180017D01*
X126795Y180132D01*
X126818Y180239D01*
X126841Y180326D01*
X126860Y180400D01*
X126874Y180433D01*
X126883Y180461D01*
X126892Y180479D01*
X126897Y180493D01*
X126901Y180502D01*
Y180507D01*
X126952Y180604D01*
X127008Y180687D01*
X127068Y180761D01*
X127123Y180821D01*
X127170Y180867D01*
X127211Y180899D01*
X127239Y180922D01*
X127243Y180927D01*
X127248D01*
X127336Y180978D01*
X127419Y181015D01*
X127497Y181038D01*
X127571Y181056D01*
X127636Y181066D01*
X127687Y181075D01*
X127705D01*
X127719D01*
X127724D01*
X127728D01*
X127821Y181070D01*
D02*
G37*
G36*
X128597Y178123D02*
X128759Y178104D01*
X128833Y178090D01*
X128907Y178072D01*
X128971Y178053D01*
X129031Y178040D01*
X129087Y178021D01*
X129138Y178003D01*
X129179Y177989D01*
X129216Y177970D01*
X129244Y177961D01*
X129262Y177952D01*
X129276Y177943D01*
X129281D01*
X129415Y177869D01*
X129535Y177781D01*
X129637Y177689D01*
X129720Y177605D01*
X129784Y177527D01*
X129812Y177490D01*
X129835Y177462D01*
X129849Y177434D01*
X129863Y177416D01*
X129868Y177407D01*
X129872Y177402D01*
X129909Y177333D01*
X129941Y177263D01*
X129997Y177129D01*
X130034Y176991D01*
X130057Y176871D01*
X130066Y176815D01*
X130076Y176760D01*
X130080Y176718D01*
Y176677D01*
X130085Y176644D01*
Y176603D01*
X130080Y176478D01*
X130066Y176363D01*
X130043Y176252D01*
X130015Y176145D01*
X129978Y176048D01*
X129941Y175956D01*
X129900Y175873D01*
X129858Y175799D01*
X129817Y175730D01*
X129775Y175670D01*
X129738Y175619D01*
X129701Y175577D01*
X129674Y175545D01*
X129650Y175517D01*
X129637Y175503D01*
X129632Y175499D01*
X129544Y175425D01*
X129452Y175360D01*
X129350Y175300D01*
X129248Y175254D01*
X129142Y175212D01*
X129041Y175175D01*
X128939Y175147D01*
X128842Y175129D01*
X128750Y175110D01*
X128662Y175097D01*
X128583Y175087D01*
X128518Y175078D01*
X128463D01*
X128421Y175074D01*
X128394D01*
X128389D01*
X128384D01*
X128227Y175083D01*
X128084Y175101D01*
X127946Y175129D01*
X127886Y175147D01*
X127825Y175166D01*
X127775Y175180D01*
X127728Y175198D01*
X127687Y175212D01*
X127650Y175226D01*
X127622Y175235D01*
X127604Y175244D01*
X127590Y175254D01*
X127585D01*
X127451Y175332D01*
X127336Y175415D01*
X127234Y175508D01*
X127151Y175596D01*
X127082Y175674D01*
X127054Y175707D01*
X127035Y175734D01*
X127017Y175762D01*
X127003Y175780D01*
X126999Y175790D01*
X126994Y175794D01*
X126957Y175864D01*
X126925Y175933D01*
X126869Y176072D01*
X126832Y176205D01*
X126804Y176330D01*
X126795Y176390D01*
X126791Y176441D01*
X126781Y176487D01*
Y176529D01*
X126777Y176557D01*
Y176603D01*
X126786Y176755D01*
X126809Y176898D01*
X126837Y177032D01*
X126855Y177093D01*
X126874Y177148D01*
X126892Y177199D01*
X126911Y177245D01*
X126925Y177282D01*
X126938Y177314D01*
X126952Y177342D01*
X126962Y177365D01*
X126971Y177374D01*
Y177379D01*
X127054Y177508D01*
X127146Y177619D01*
X127243Y177712D01*
X127336Y177790D01*
X127424Y177855D01*
X127456Y177878D01*
X127488Y177896D01*
X127516Y177915D01*
X127534Y177924D01*
X127548Y177933D01*
X127553D01*
X127627Y177970D01*
X127701Y177998D01*
X127849Y178049D01*
X127997Y178086D01*
X128130Y178109D01*
X128191Y178113D01*
X128246Y178123D01*
X128297Y178127D01*
X128338D01*
X128375Y178132D01*
X128398D01*
X128417D01*
X128421D01*
X128597Y178123D01*
D02*
G37*
G36*
X130029Y173946D02*
X127802Y173179D01*
X127682Y173138D01*
X127581Y173105D01*
X127493Y173073D01*
X127419Y173050D01*
X127364Y173031D01*
X127322Y173018D01*
X127299Y173013D01*
X127290Y173008D01*
X127354Y172990D01*
X127428Y172967D01*
X127507Y172939D01*
X127585Y172916D01*
X127655Y172893D01*
X127710Y172874D01*
X127733Y172865D01*
X127747Y172861D01*
X127756Y172856D01*
X127761D01*
X130029Y172098D01*
Y171465D01*
X126832D01*
Y171872D01*
X129553D01*
X126832Y172796D01*
Y173175D01*
X129507Y174108D01*
X126832D01*
Y174514D01*
X130029D01*
Y173946D01*
D02*
G37*
G36*
X117936Y181717D02*
X120006D01*
Y181398D01*
X117936Y179934D01*
X117576D01*
Y181324D01*
X116809D01*
Y181717D01*
X117576D01*
Y182151D01*
X117936D01*
Y181717D01*
D02*
G37*
G36*
X120006Y177517D02*
X116809D01*
Y177943D01*
X118260D01*
Y179444D01*
X118639D01*
Y177943D01*
X119627D01*
Y179680D01*
X120006D01*
Y177517D01*
D02*
G37*
G36*
X117927Y176552D02*
X117853Y176533D01*
X117784Y176510D01*
X117719Y176487D01*
X117659Y176464D01*
X117604Y176436D01*
X117558Y176409D01*
X117511Y176376D01*
X117470Y176349D01*
X117433Y176326D01*
X117405Y176298D01*
X117377Y176275D01*
X117354Y176256D01*
X117340Y176238D01*
X117326Y176224D01*
X117322Y176219D01*
X117317Y176215D01*
X117280Y176169D01*
X117253Y176118D01*
X117202Y176016D01*
X117165Y175919D01*
X117142Y175822D01*
X117123Y175739D01*
X117119Y175707D01*
Y175674D01*
X117114Y175646D01*
Y175614D01*
X117119Y175508D01*
X117137Y175406D01*
X117160Y175314D01*
X117188Y175231D01*
X117216Y175166D01*
X117229Y175138D01*
X117239Y175115D01*
X117248Y175097D01*
X117257Y175083D01*
X117262Y175074D01*
Y175069D01*
X117326Y174981D01*
X117396Y174907D01*
X117474Y174843D01*
X117548Y174792D01*
X117613Y174750D01*
X117668Y174722D01*
X117692Y174713D01*
X117705Y174704D01*
X117715Y174699D01*
X117719D01*
X117839Y174662D01*
X117959Y174635D01*
X118080Y174611D01*
X118191Y174598D01*
X118241Y174593D01*
X118288Y174588D01*
X118329D01*
X118361Y174584D01*
X118389D01*
X118412D01*
X118426D01*
X118431D01*
X118551Y174588D01*
X118662Y174598D01*
X118763Y174616D01*
X118856Y174635D01*
X118934Y174648D01*
X118967Y174658D01*
X118994Y174667D01*
X119017Y174672D01*
X119031Y174676D01*
X119041Y174681D01*
X119045D01*
X119151Y174727D01*
X119248Y174778D01*
X119327Y174833D01*
X119396Y174893D01*
X119452Y174944D01*
X119489Y174986D01*
X119512Y175018D01*
X119521Y175023D01*
Y175027D01*
X119581Y175124D01*
X119627Y175231D01*
X119660Y175332D01*
X119678Y175429D01*
X119692Y175517D01*
X119697Y175554D01*
Y175586D01*
X119701Y175610D01*
Y175646D01*
X119697Y175762D01*
X119678Y175868D01*
X119650Y175956D01*
X119623Y176034D01*
X119590Y176095D01*
X119567Y176141D01*
X119549Y176169D01*
X119539Y176178D01*
X119470Y176252D01*
X119392Y176321D01*
X119308Y176376D01*
X119225Y176423D01*
X119151Y176460D01*
X119114Y176473D01*
X119087Y176483D01*
X119064Y176492D01*
X119045Y176501D01*
X119036Y176506D01*
X119031D01*
X119128Y176921D01*
X119211Y176894D01*
X119285Y176866D01*
X119355Y176829D01*
X119424Y176797D01*
X119484Y176760D01*
X119539Y176718D01*
X119595Y176681D01*
X119641Y176644D01*
X119678Y176607D01*
X119715Y176575D01*
X119747Y176543D01*
X119771Y176520D01*
X119794Y176497D01*
X119807Y176478D01*
X119812Y176469D01*
X119817Y176464D01*
X119858Y176400D01*
X119900Y176335D01*
X119932Y176270D01*
X119960Y176201D01*
X120001Y176062D01*
X120029Y175937D01*
X120043Y175877D01*
X120048Y175827D01*
X120052Y175776D01*
X120057Y175734D01*
X120062Y175702D01*
Y175656D01*
X120052Y175503D01*
X120029Y175355D01*
X120001Y175226D01*
X119983Y175166D01*
X119965Y175110D01*
X119946Y175060D01*
X119928Y175013D01*
X119914Y174977D01*
X119900Y174940D01*
X119886Y174917D01*
X119877Y174898D01*
X119872Y174884D01*
X119868Y174880D01*
X119789Y174755D01*
X119697Y174648D01*
X119604Y174556D01*
X119512Y174478D01*
X119429Y174417D01*
X119392Y174394D01*
X119359Y174376D01*
X119336Y174357D01*
X119318Y174348D01*
X119304Y174344D01*
X119299Y174339D01*
X119156Y174274D01*
X119008Y174228D01*
X118860Y174196D01*
X118726Y174173D01*
X118666Y174163D01*
X118606Y174159D01*
X118560Y174154D01*
X118514D01*
X118482Y174150D01*
X118454D01*
X118435D01*
X118431D01*
X118264Y174159D01*
X118103Y174177D01*
X117959Y174200D01*
X117890Y174219D01*
X117830Y174233D01*
X117775Y174247D01*
X117724Y174265D01*
X117678Y174279D01*
X117641Y174288D01*
X117613Y174302D01*
X117590Y174307D01*
X117576Y174316D01*
X117571D01*
X117433Y174385D01*
X117308Y174464D01*
X117202Y174547D01*
X117160Y174588D01*
X117119Y174625D01*
X117082Y174662D01*
X117049Y174699D01*
X117022Y174732D01*
X117003Y174759D01*
X116985Y174778D01*
X116971Y174796D01*
X116966Y174806D01*
X116962Y174810D01*
X116925Y174875D01*
X116892Y174940D01*
X116841Y175078D01*
X116804Y175217D01*
X116781Y175351D01*
X116772Y175415D01*
X116763Y175471D01*
X116758Y175522D01*
Y175563D01*
X116754Y175600D01*
Y175651D01*
X116758Y175743D01*
X116768Y175831D01*
X116777Y175914D01*
X116795Y175993D01*
X116818Y176067D01*
X116841Y176136D01*
X116865Y176201D01*
X116892Y176261D01*
X116915Y176312D01*
X116938Y176363D01*
X116962Y176400D01*
X116985Y176436D01*
X117003Y176460D01*
X117012Y176483D01*
X117022Y176492D01*
X117026Y176497D01*
X117082Y176561D01*
X117137Y176617D01*
X117202Y176667D01*
X117266Y176718D01*
X117396Y176801D01*
X117525Y176866D01*
X117585Y176894D01*
X117641Y176917D01*
X117692Y176935D01*
X117733Y176949D01*
X117770Y176963D01*
X117798Y176972D01*
X117816Y176977D01*
X117821D01*
X117927Y176552D01*
D02*
G37*
G36*
X107839Y182147D02*
X107941Y182128D01*
X108029Y182101D01*
X108103Y182073D01*
X108163Y182045D01*
X108209Y182017D01*
X108237Y181999D01*
X108246Y181994D01*
X108315Y181930D01*
X108375Y181860D01*
X108421Y181786D01*
X108458Y181712D01*
X108486Y181648D01*
X108504Y181597D01*
X108509Y181579D01*
X108514Y181565D01*
X108518Y181555D01*
Y181551D01*
X108560Y181629D01*
X108601Y181694D01*
X108648Y181749D01*
X108689Y181796D01*
X108726Y181833D01*
X108759Y181860D01*
X108777Y181874D01*
X108786Y181879D01*
X108851Y181916D01*
X108916Y181944D01*
X108980Y181967D01*
X109040Y181980D01*
X109091Y181990D01*
X109128Y181994D01*
X109156D01*
X109165D01*
X109244Y181990D01*
X109322Y181976D01*
X109392Y181957D01*
X109452Y181934D01*
X109502Y181911D01*
X109544Y181893D01*
X109567Y181879D01*
X109576Y181874D01*
X109646Y181828D01*
X109706Y181772D01*
X109757Y181717D01*
X109803Y181662D01*
X109835Y181615D01*
X109863Y181574D01*
X109877Y181546D01*
X109881Y181542D01*
Y181537D01*
X109918Y181454D01*
X109946Y181371D01*
X109969Y181287D01*
X109983Y181213D01*
X109992Y181154D01*
X109997Y181103D01*
Y180987D01*
X109988Y180922D01*
X109965Y180798D01*
X109927Y180692D01*
X109890Y180599D01*
X109867Y180558D01*
X109849Y180525D01*
X109830Y180493D01*
X109812Y180470D01*
X109798Y180451D01*
X109789Y180437D01*
X109784Y180428D01*
X109780Y180423D01*
X109692Y180336D01*
X109595Y180266D01*
X109493Y180211D01*
X109392Y180165D01*
X109304Y180137D01*
X109267Y180123D01*
X109234Y180114D01*
X109207Y180109D01*
X109188Y180105D01*
X109174Y180100D01*
X109170D01*
X109100Y180493D01*
X109202Y180511D01*
X109290Y180539D01*
X109364Y180571D01*
X109424Y180604D01*
X109470Y180636D01*
X109502Y180664D01*
X109526Y180682D01*
X109530Y180687D01*
X109576Y180747D01*
X109613Y180812D01*
X109636Y180872D01*
X109655Y180932D01*
X109664Y180987D01*
X109673Y181029D01*
Y181066D01*
X109669Y181149D01*
X109650Y181223D01*
X109627Y181287D01*
X109604Y181343D01*
X109576Y181385D01*
X109553Y181417D01*
X109535Y181440D01*
X109530Y181445D01*
X109475Y181495D01*
X109415Y181532D01*
X109355Y181555D01*
X109299Y181574D01*
X109248Y181583D01*
X109211Y181592D01*
X109184D01*
X109179D01*
X109174D01*
X109124D01*
X109077Y181583D01*
X108999Y181560D01*
X108930Y181528D01*
X108870Y181491D01*
X108828Y181454D01*
X108796Y181421D01*
X108777Y181398D01*
X108773Y181394D01*
Y181389D01*
X108731Y181310D01*
X108699Y181237D01*
X108676Y181158D01*
X108662Y181089D01*
X108652Y181029D01*
X108643Y180978D01*
Y180918D01*
X108648Y180899D01*
Y180876D01*
X108301Y180830D01*
X108315Y180890D01*
X108324Y180946D01*
X108334Y180992D01*
X108338Y181033D01*
X108343Y181066D01*
Y181107D01*
X108334Y181204D01*
X108315Y181292D01*
X108287Y181371D01*
X108255Y181435D01*
X108223Y181486D01*
X108195Y181523D01*
X108177Y181546D01*
X108167Y181555D01*
X108098Y181615D01*
X108024Y181662D01*
X107950Y181694D01*
X107876Y181712D01*
X107816Y181726D01*
X107765Y181731D01*
X107747Y181736D01*
X107733D01*
X107724D01*
X107719D01*
X107617Y181726D01*
X107525Y181703D01*
X107447Y181676D01*
X107377Y181639D01*
X107322Y181602D01*
X107280Y181574D01*
X107253Y181551D01*
X107243Y181542D01*
X107179Y181468D01*
X107132Y181389D01*
X107100Y181310D01*
X107077Y181237D01*
X107063Y181172D01*
X107059Y181121D01*
X107054Y181103D01*
Y181075D01*
X107059Y180992D01*
X107077Y180913D01*
X107100Y180844D01*
X107128Y180789D01*
X107151Y180742D01*
X107174Y180705D01*
X107193Y180687D01*
X107197Y180678D01*
X107262Y180622D01*
X107336Y180576D01*
X107414Y180534D01*
X107497Y180502D01*
X107567Y180479D01*
X107599Y180470D01*
X107627Y180465D01*
X107650Y180461D01*
X107668Y180456D01*
X107677Y180451D01*
X107682D01*
X107631Y180059D01*
X107557Y180068D01*
X107488Y180082D01*
X107359Y180123D01*
X107248Y180174D01*
X107202Y180202D01*
X107156Y180229D01*
X107114Y180257D01*
X107082Y180285D01*
X107049Y180308D01*
X107026Y180331D01*
X107008Y180345D01*
X106994Y180359D01*
X106984Y180368D01*
X106980Y180373D01*
X106938Y180428D01*
X106897Y180484D01*
X106864Y180539D01*
X106837Y180599D01*
X106790Y180715D01*
X106763Y180825D01*
X106754Y180876D01*
X106744Y180922D01*
X106740Y180964D01*
X106735Y181001D01*
X106730Y181029D01*
Y181070D01*
X106735Y181158D01*
X106744Y181237D01*
X106758Y181315D01*
X106777Y181389D01*
X106800Y181458D01*
X106823Y181518D01*
X106851Y181579D01*
X106878Y181629D01*
X106901Y181680D01*
X106929Y181722D01*
X106952Y181759D01*
X106975Y181786D01*
X106994Y181809D01*
X107008Y181828D01*
X107017Y181837D01*
X107021Y181842D01*
X107077Y181897D01*
X107137Y181944D01*
X107197Y181985D01*
X107257Y182022D01*
X107313Y182050D01*
X107373Y182078D01*
X107483Y182114D01*
X107534Y182124D01*
X107580Y182133D01*
X107622Y182142D01*
X107659Y182147D01*
X107687Y182151D01*
X107710D01*
X107724D01*
X107728D01*
X107839Y182147D01*
D02*
G37*
G36*
X109983Y177504D02*
X106786D01*
Y177929D01*
X108237D01*
Y179430D01*
X108615D01*
Y177929D01*
X109604D01*
Y179666D01*
X109983D01*
Y177504D01*
D02*
G37*
G36*
X107904Y176538D02*
X107830Y176520D01*
X107761Y176497D01*
X107696Y176473D01*
X107636Y176450D01*
X107580Y176423D01*
X107534Y176395D01*
X107488Y176363D01*
X107447Y176335D01*
X107410Y176312D01*
X107382Y176284D01*
X107354Y176261D01*
X107331Y176242D01*
X107317Y176224D01*
X107303Y176210D01*
X107299Y176205D01*
X107294Y176201D01*
X107257Y176155D01*
X107229Y176104D01*
X107179Y176002D01*
X107142Y175905D01*
X107118Y175808D01*
X107100Y175725D01*
X107095Y175693D01*
Y175660D01*
X107091Y175633D01*
Y175600D01*
X107095Y175494D01*
X107114Y175392D01*
X107137Y175300D01*
X107165Y175217D01*
X107193Y175152D01*
X107206Y175124D01*
X107216Y175101D01*
X107225Y175083D01*
X107234Y175069D01*
X107239Y175060D01*
Y175055D01*
X107303Y174967D01*
X107373Y174893D01*
X107451Y174829D01*
X107525Y174778D01*
X107590Y174736D01*
X107645Y174709D01*
X107668Y174699D01*
X107682Y174690D01*
X107691Y174686D01*
X107696D01*
X107816Y174648D01*
X107936Y174621D01*
X108056Y174598D01*
X108167Y174584D01*
X108218Y174579D01*
X108264Y174575D01*
X108306D01*
X108338Y174570D01*
X108366D01*
X108389D01*
X108403D01*
X108407D01*
X108528Y174575D01*
X108639Y174584D01*
X108740Y174602D01*
X108833Y174621D01*
X108911Y174635D01*
X108943Y174644D01*
X108971Y174653D01*
X108994Y174658D01*
X109008Y174662D01*
X109017Y174667D01*
X109022D01*
X109128Y174713D01*
X109225Y174764D01*
X109304Y174819D01*
X109373Y174880D01*
X109429Y174930D01*
X109466Y174972D01*
X109489Y175004D01*
X109498Y175009D01*
Y175013D01*
X109558Y175110D01*
X109604Y175217D01*
X109636Y175318D01*
X109655Y175415D01*
X109669Y175503D01*
X109673Y175540D01*
Y175573D01*
X109678Y175596D01*
Y175633D01*
X109673Y175748D01*
X109655Y175854D01*
X109627Y175942D01*
X109599Y176021D01*
X109567Y176081D01*
X109544Y176127D01*
X109526Y176155D01*
X109516Y176164D01*
X109447Y176238D01*
X109369Y176307D01*
X109285Y176363D01*
X109202Y176409D01*
X109128Y176446D01*
X109091Y176460D01*
X109064Y176469D01*
X109040Y176478D01*
X109022Y176487D01*
X109013Y176492D01*
X109008D01*
X109105Y176908D01*
X109188Y176880D01*
X109262Y176852D01*
X109332Y176815D01*
X109401Y176783D01*
X109461Y176746D01*
X109516Y176704D01*
X109572Y176667D01*
X109618Y176630D01*
X109655Y176593D01*
X109692Y176561D01*
X109724Y176529D01*
X109747Y176506D01*
X109770Y176483D01*
X109784Y176464D01*
X109789Y176455D01*
X109793Y176450D01*
X109835Y176386D01*
X109877Y176321D01*
X109909Y176256D01*
X109937Y176187D01*
X109978Y176048D01*
X110006Y175924D01*
X110020Y175864D01*
X110024Y175813D01*
X110029Y175762D01*
X110034Y175720D01*
X110038Y175688D01*
Y175642D01*
X110029Y175489D01*
X110006Y175341D01*
X109978Y175212D01*
X109960Y175152D01*
X109941Y175097D01*
X109923Y175046D01*
X109904Y175000D01*
X109890Y174963D01*
X109877Y174926D01*
X109863Y174903D01*
X109854Y174884D01*
X109849Y174870D01*
X109844Y174866D01*
X109766Y174741D01*
X109673Y174635D01*
X109581Y174542D01*
X109489Y174464D01*
X109405Y174404D01*
X109369Y174381D01*
X109336Y174362D01*
X109313Y174344D01*
X109295Y174334D01*
X109281Y174330D01*
X109276Y174325D01*
X109133Y174260D01*
X108985Y174214D01*
X108837Y174182D01*
X108703Y174159D01*
X108643Y174150D01*
X108583Y174145D01*
X108537Y174140D01*
X108491D01*
X108458Y174136D01*
X108431D01*
X108412D01*
X108407D01*
X108241Y174145D01*
X108080Y174163D01*
X107936Y174187D01*
X107867Y174205D01*
X107807Y174219D01*
X107752Y174233D01*
X107701Y174251D01*
X107654Y174265D01*
X107617Y174274D01*
X107590Y174288D01*
X107567Y174293D01*
X107553Y174302D01*
X107548D01*
X107410Y174371D01*
X107285Y174450D01*
X107179Y174533D01*
X107137Y174575D01*
X107095Y174611D01*
X107059Y174648D01*
X107026Y174686D01*
X106998Y174718D01*
X106980Y174746D01*
X106961Y174764D01*
X106948Y174783D01*
X106943Y174792D01*
X106938Y174796D01*
X106901Y174861D01*
X106869Y174926D01*
X106818Y175064D01*
X106781Y175203D01*
X106758Y175337D01*
X106749Y175402D01*
X106740Y175457D01*
X106735Y175508D01*
Y175549D01*
X106730Y175586D01*
Y175637D01*
X106735Y175730D01*
X106744Y175817D01*
X106754Y175900D01*
X106772Y175979D01*
X106795Y176053D01*
X106818Y176122D01*
X106841Y176187D01*
X106869Y176247D01*
X106892Y176298D01*
X106915Y176349D01*
X106938Y176386D01*
X106961Y176423D01*
X106980Y176446D01*
X106989Y176469D01*
X106998Y176478D01*
X107003Y176483D01*
X107059Y176547D01*
X107114Y176603D01*
X107179Y176654D01*
X107243Y176704D01*
X107373Y176788D01*
X107502Y176852D01*
X107562Y176880D01*
X107617Y176903D01*
X107668Y176921D01*
X107710Y176935D01*
X107747Y176949D01*
X107775Y176959D01*
X107793Y176963D01*
X107798D01*
X107904Y176538D01*
D02*
G37*
G36*
X97142Y180576D02*
X97220Y180631D01*
X97252Y180659D01*
X97285Y180682D01*
X97312Y180705D01*
X97331Y180724D01*
X97345Y180738D01*
X97350Y180742D01*
X97373Y180765D01*
X97396Y180793D01*
X97456Y180858D01*
X97525Y180932D01*
X97594Y181010D01*
X97654Y181084D01*
X97682Y181116D01*
X97710Y181144D01*
X97728Y181167D01*
X97742Y181186D01*
X97751Y181195D01*
X97756Y181200D01*
X97821Y181274D01*
X97881Y181348D01*
X97941Y181412D01*
X97992Y181472D01*
X98043Y181528D01*
X98089Y181574D01*
X98130Y181620D01*
X98167Y181657D01*
X98204Y181694D01*
X98232Y181722D01*
X98255Y181745D01*
X98278Y181768D01*
X98306Y181791D01*
X98315Y181800D01*
X98394Y181865D01*
X98463Y181920D01*
X98532Y181967D01*
X98588Y182003D01*
X98638Y182031D01*
X98675Y182050D01*
X98699Y182059D01*
X98708Y182064D01*
X98777Y182091D01*
X98846Y182110D01*
X98911Y182128D01*
X98966Y182138D01*
X99017Y182142D01*
X99054Y182147D01*
X99077D01*
X99087D01*
X99156Y182142D01*
X99221Y182133D01*
X99285Y182124D01*
X99341Y182105D01*
X99452Y182059D01*
X99539Y182013D01*
X99581Y181985D01*
X99613Y181962D01*
X99646Y181939D01*
X99669Y181916D01*
X99687Y181897D01*
X99706Y181888D01*
X99710Y181879D01*
X99715Y181874D01*
X99761Y181823D01*
X99803Y181768D01*
X99835Y181708D01*
X99863Y181648D01*
X99909Y181528D01*
X99941Y181408D01*
X99950Y181357D01*
X99960Y181306D01*
X99964Y181260D01*
X99969Y181223D01*
X99974Y181190D01*
Y181144D01*
X99969Y181061D01*
X99964Y180982D01*
X99950Y180909D01*
X99937Y180839D01*
X99918Y180775D01*
X99900Y180715D01*
X99877Y180659D01*
X99853Y180608D01*
X99830Y180562D01*
X99807Y180525D01*
X99789Y180493D01*
X99770Y180465D01*
X99756Y180442D01*
X99743Y180428D01*
X99738Y180419D01*
X99733Y180414D01*
X99687Y180368D01*
X99636Y180326D01*
X99581Y180285D01*
X99525Y180253D01*
X99415Y180197D01*
X99304Y180160D01*
X99253Y180146D01*
X99202Y180132D01*
X99160Y180123D01*
X99124Y180114D01*
X99091Y180109D01*
X99068D01*
X99054Y180105D01*
X99050D01*
X99008Y180507D01*
X99114Y180516D01*
X99207Y180534D01*
X99290Y180562D01*
X99354Y180594D01*
X99410Y180622D01*
X99447Y180650D01*
X99470Y180668D01*
X99479Y180678D01*
X99535Y180747D01*
X99576Y180821D01*
X99609Y180899D01*
X99627Y180969D01*
X99641Y181033D01*
X99646Y181089D01*
X99650Y181107D01*
Y181135D01*
X99646Y181232D01*
X99627Y181320D01*
X99599Y181394D01*
X99572Y181458D01*
X99539Y181509D01*
X99516Y181542D01*
X99498Y181565D01*
X99489Y181574D01*
X99424Y181629D01*
X99359Y181671D01*
X99295Y181703D01*
X99230Y181722D01*
X99179Y181736D01*
X99133Y181740D01*
X99105Y181745D01*
X99101D01*
X99096D01*
X99013Y181736D01*
X98925Y181717D01*
X98846Y181685D01*
X98772Y181652D01*
X98712Y181615D01*
X98662Y181583D01*
X98643Y181574D01*
X98629Y181565D01*
X98625Y181555D01*
X98620D01*
X98569Y181518D01*
X98518Y181472D01*
X98463Y181421D01*
X98407Y181366D01*
X98297Y181251D01*
X98186Y181135D01*
X98135Y181075D01*
X98089Y181024D01*
X98047Y180973D01*
X98010Y180932D01*
X97982Y180899D01*
X97959Y180872D01*
X97945Y180853D01*
X97941Y180849D01*
X97844Y180733D01*
X97751Y180627D01*
X97668Y180539D01*
X97599Y180470D01*
X97539Y180410D01*
X97497Y180368D01*
X97470Y180345D01*
X97465Y180336D01*
X97460D01*
X97382Y180271D01*
X97308Y180220D01*
X97234Y180174D01*
X97169Y180137D01*
X97114Y180109D01*
X97072Y180091D01*
X97045Y180082D01*
X97040Y180077D01*
X97035D01*
X96984Y180059D01*
X96938Y180049D01*
X96892Y180040D01*
X96851Y180035D01*
X96813Y180031D01*
X96786D01*
X96767D01*
X96763D01*
Y182151D01*
X97142D01*
Y180576D01*
D02*
G37*
G36*
X99960Y177536D02*
X96763D01*
Y177961D01*
X98213D01*
Y179463D01*
X98592D01*
Y177961D01*
X99581D01*
Y179698D01*
X99960D01*
Y177536D01*
D02*
G37*
G36*
X97881Y176570D02*
X97807Y176552D01*
X97737Y176529D01*
X97673Y176506D01*
X97613Y176483D01*
X97557Y176455D01*
X97511Y176427D01*
X97465Y176395D01*
X97423Y176367D01*
X97386Y176344D01*
X97359Y176316D01*
X97331Y176293D01*
X97308Y176275D01*
X97294Y176256D01*
X97280Y176242D01*
X97276Y176238D01*
X97271Y176233D01*
X97234Y176187D01*
X97206Y176136D01*
X97155Y176034D01*
X97119Y175937D01*
X97095Y175840D01*
X97077Y175757D01*
X97072Y175725D01*
Y175693D01*
X97068Y175665D01*
Y175633D01*
X97072Y175526D01*
X97091Y175425D01*
X97114Y175332D01*
X97142Y175249D01*
X97169Y175184D01*
X97183Y175157D01*
X97192Y175134D01*
X97202Y175115D01*
X97211Y175101D01*
X97215Y175092D01*
Y175087D01*
X97280Y175000D01*
X97350Y174926D01*
X97428Y174861D01*
X97502Y174810D01*
X97567Y174769D01*
X97622Y174741D01*
X97645Y174732D01*
X97659Y174722D01*
X97668Y174718D01*
X97673D01*
X97793Y174681D01*
X97913Y174653D01*
X98033Y174630D01*
X98144Y174616D01*
X98195Y174611D01*
X98241Y174607D01*
X98283D01*
X98315Y174602D01*
X98343D01*
X98366D01*
X98380D01*
X98384D01*
X98505Y174607D01*
X98615Y174616D01*
X98717Y174635D01*
X98809Y174653D01*
X98888Y174667D01*
X98920Y174676D01*
X98948Y174686D01*
X98971Y174690D01*
X98985Y174695D01*
X98994Y174699D01*
X98999D01*
X99105Y174746D01*
X99202Y174796D01*
X99281Y174852D01*
X99350Y174912D01*
X99405Y174963D01*
X99442Y175004D01*
X99465Y175037D01*
X99475Y175041D01*
Y175046D01*
X99535Y175143D01*
X99581Y175249D01*
X99613Y175351D01*
X99632Y175448D01*
X99646Y175536D01*
X99650Y175573D01*
Y175605D01*
X99655Y175628D01*
Y175665D01*
X99650Y175780D01*
X99632Y175887D01*
X99604Y175974D01*
X99576Y176053D01*
X99544Y176113D01*
X99521Y176159D01*
X99502Y176187D01*
X99493Y176196D01*
X99424Y176270D01*
X99345Y176339D01*
X99262Y176395D01*
X99179Y176441D01*
X99105Y176478D01*
X99068Y176492D01*
X99040Y176501D01*
X99017Y176510D01*
X98999Y176520D01*
X98990Y176524D01*
X98985D01*
X99082Y176940D01*
X99165Y176912D01*
X99239Y176885D01*
X99308Y176848D01*
X99378Y176815D01*
X99438Y176778D01*
X99493Y176737D01*
X99549Y176700D01*
X99595Y176663D01*
X99632Y176626D01*
X99669Y176593D01*
X99701Y176561D01*
X99724Y176538D01*
X99747Y176515D01*
X99761Y176497D01*
X99766Y176487D01*
X99770Y176483D01*
X99812Y176418D01*
X99853Y176353D01*
X99886Y176289D01*
X99914Y176219D01*
X99955Y176081D01*
X99983Y175956D01*
X99997Y175896D01*
X100001Y175845D01*
X100006Y175794D01*
X100011Y175753D01*
X100015Y175720D01*
Y175674D01*
X100006Y175522D01*
X99983Y175374D01*
X99955Y175244D01*
X99937Y175184D01*
X99918Y175129D01*
X99900Y175078D01*
X99881Y175032D01*
X99867Y174995D01*
X99853Y174958D01*
X99840Y174935D01*
X99830Y174917D01*
X99826Y174903D01*
X99821Y174898D01*
X99743Y174773D01*
X99650Y174667D01*
X99558Y174575D01*
X99465Y174496D01*
X99382Y174436D01*
X99345Y174413D01*
X99313Y174394D01*
X99290Y174376D01*
X99271Y174367D01*
X99257Y174362D01*
X99253Y174357D01*
X99110Y174293D01*
X98962Y174247D01*
X98814Y174214D01*
X98680Y174191D01*
X98620Y174182D01*
X98560Y174177D01*
X98514Y174173D01*
X98467D01*
X98435Y174168D01*
X98407D01*
X98389D01*
X98384D01*
X98218Y174177D01*
X98056Y174196D01*
X97913Y174219D01*
X97844Y174237D01*
X97784Y174251D01*
X97728Y174265D01*
X97677Y174284D01*
X97631Y174297D01*
X97594Y174307D01*
X97567Y174320D01*
X97544Y174325D01*
X97530Y174334D01*
X97525D01*
X97386Y174404D01*
X97262Y174482D01*
X97155Y174565D01*
X97114Y174607D01*
X97072Y174644D01*
X97035Y174681D01*
X97003Y174718D01*
X96975Y174750D01*
X96957Y174778D01*
X96938Y174796D01*
X96924Y174815D01*
X96920Y174824D01*
X96915Y174829D01*
X96878Y174893D01*
X96846Y174958D01*
X96795Y175097D01*
X96758Y175235D01*
X96735Y175369D01*
X96726Y175434D01*
X96716Y175489D01*
X96712Y175540D01*
Y175582D01*
X96707Y175619D01*
Y175670D01*
X96712Y175762D01*
X96721Y175850D01*
X96730Y175933D01*
X96749Y176011D01*
X96772Y176085D01*
X96795Y176155D01*
X96818Y176219D01*
X96846Y176279D01*
X96869Y176330D01*
X96892Y176381D01*
X96915Y176418D01*
X96938Y176455D01*
X96957Y176478D01*
X96966Y176501D01*
X96975Y176510D01*
X96980Y176515D01*
X97035Y176580D01*
X97091Y176635D01*
X97155Y176686D01*
X97220Y176737D01*
X97350Y176820D01*
X97479Y176885D01*
X97539Y176912D01*
X97594Y176935D01*
X97645Y176954D01*
X97687Y176968D01*
X97724Y176982D01*
X97751Y176991D01*
X97770Y176996D01*
X97774D01*
X97881Y176570D01*
D02*
G37*
G36*
X89951Y181897D02*
X89872Y181851D01*
X89798Y181800D01*
X89724Y181740D01*
X89659Y181685D01*
X89604Y181629D01*
X89558Y181588D01*
X89544Y181569D01*
X89530Y181555D01*
X89525Y181551D01*
X89521Y181546D01*
X89442Y181449D01*
X89368Y181352D01*
X89304Y181260D01*
X89253Y181167D01*
X89207Y181089D01*
X89188Y181056D01*
X89174Y181029D01*
X89160Y181006D01*
X89156Y180987D01*
X89147Y180978D01*
Y180973D01*
X88768D01*
X88796Y181043D01*
X88828Y181112D01*
X88860Y181181D01*
X88893Y181246D01*
X88920Y181301D01*
X88943Y181348D01*
X88962Y181375D01*
X88966Y181380D01*
Y181385D01*
X89017Y181468D01*
X89068Y181542D01*
X89114Y181606D01*
X89156Y181657D01*
X89188Y181703D01*
X89216Y181731D01*
X89234Y181754D01*
X89239Y181759D01*
X86739D01*
Y182151D01*
X89951D01*
Y181897D01*
D02*
G37*
G36*
X89937Y178123D02*
X86739D01*
Y178548D01*
X88190D01*
Y180049D01*
X88569D01*
Y178548D01*
X89558D01*
Y180285D01*
X89937D01*
Y178123D01*
D02*
G37*
G36*
X87858Y177157D02*
X87784Y177139D01*
X87714Y177116D01*
X87650Y177093D01*
X87590Y177069D01*
X87534Y177042D01*
X87488Y177014D01*
X87442Y176982D01*
X87400Y176954D01*
X87363Y176931D01*
X87335Y176903D01*
X87308Y176880D01*
X87285Y176862D01*
X87271Y176843D01*
X87257Y176829D01*
X87252Y176824D01*
X87248Y176820D01*
X87211Y176774D01*
X87183Y176723D01*
X87132Y176621D01*
X87095Y176524D01*
X87072Y176427D01*
X87054Y176344D01*
X87049Y176312D01*
Y176279D01*
X87045Y176252D01*
Y176219D01*
X87049Y176113D01*
X87068Y176011D01*
X87091Y175919D01*
X87118Y175836D01*
X87146Y175771D01*
X87160Y175743D01*
X87169Y175720D01*
X87178Y175702D01*
X87188Y175688D01*
X87192Y175679D01*
Y175674D01*
X87257Y175586D01*
X87326Y175512D01*
X87405Y175448D01*
X87479Y175397D01*
X87543Y175355D01*
X87599Y175328D01*
X87622Y175318D01*
X87636Y175309D01*
X87645Y175304D01*
X87650D01*
X87770Y175268D01*
X87890Y175240D01*
X88010Y175217D01*
X88121Y175203D01*
X88172Y175198D01*
X88218Y175194D01*
X88260D01*
X88292Y175189D01*
X88320D01*
X88343D01*
X88357D01*
X88361D01*
X88481Y175194D01*
X88592Y175203D01*
X88694Y175221D01*
X88786Y175240D01*
X88865Y175254D01*
X88897Y175263D01*
X88925Y175272D01*
X88948Y175277D01*
X88962Y175281D01*
X88971Y175286D01*
X88976D01*
X89082Y175332D01*
X89179Y175383D01*
X89257Y175438D01*
X89327Y175499D01*
X89382Y175549D01*
X89419Y175591D01*
X89442Y175623D01*
X89451Y175628D01*
Y175633D01*
X89512Y175730D01*
X89558Y175836D01*
X89590Y175937D01*
X89609Y176034D01*
X89622Y176122D01*
X89627Y176159D01*
Y176192D01*
X89632Y176215D01*
Y176252D01*
X89627Y176367D01*
X89609Y176473D01*
X89581Y176561D01*
X89553Y176640D01*
X89521Y176700D01*
X89498Y176746D01*
X89479Y176774D01*
X89470Y176783D01*
X89401Y176857D01*
X89322Y176926D01*
X89239Y176982D01*
X89156Y177028D01*
X89082Y177065D01*
X89045Y177079D01*
X89017Y177088D01*
X88994Y177097D01*
X88976Y177106D01*
X88966Y177111D01*
X88962D01*
X89059Y177527D01*
X89142Y177499D01*
X89216Y177471D01*
X89285Y177434D01*
X89354Y177402D01*
X89415Y177365D01*
X89470Y177323D01*
X89525Y177287D01*
X89572Y177250D01*
X89609Y177213D01*
X89645Y177180D01*
X89678Y177148D01*
X89701Y177125D01*
X89724Y177102D01*
X89738Y177083D01*
X89743Y177074D01*
X89747Y177069D01*
X89789Y177005D01*
X89830Y176940D01*
X89863Y176875D01*
X89890Y176806D01*
X89932Y176667D01*
X89960Y176543D01*
X89974Y176483D01*
X89978Y176432D01*
X89983Y176381D01*
X89987Y176339D01*
X89992Y176307D01*
Y176261D01*
X89983Y176108D01*
X89960Y175961D01*
X89932Y175831D01*
X89913Y175771D01*
X89895Y175716D01*
X89877Y175665D01*
X89858Y175619D01*
X89844Y175582D01*
X89830Y175545D01*
X89816Y175522D01*
X89807Y175503D01*
X89803Y175489D01*
X89798Y175485D01*
X89719Y175360D01*
X89627Y175254D01*
X89535Y175161D01*
X89442Y175083D01*
X89359Y175023D01*
X89322Y175000D01*
X89290Y174981D01*
X89267Y174963D01*
X89248Y174953D01*
X89234Y174949D01*
X89230Y174944D01*
X89087Y174880D01*
X88939Y174833D01*
X88791Y174801D01*
X88657Y174778D01*
X88597Y174769D01*
X88537Y174764D01*
X88490Y174759D01*
X88444D01*
X88412Y174755D01*
X88384D01*
X88366D01*
X88361D01*
X88195Y174764D01*
X88033Y174783D01*
X87890Y174806D01*
X87821Y174824D01*
X87761Y174838D01*
X87705Y174852D01*
X87654Y174870D01*
X87608Y174884D01*
X87571Y174893D01*
X87543Y174907D01*
X87520Y174912D01*
X87507Y174921D01*
X87502D01*
X87363Y174990D01*
X87239Y175069D01*
X87132Y175152D01*
X87091Y175194D01*
X87049Y175231D01*
X87012Y175268D01*
X86980Y175304D01*
X86952Y175337D01*
X86934Y175365D01*
X86915Y175383D01*
X86901Y175402D01*
X86897Y175411D01*
X86892Y175415D01*
X86855Y175480D01*
X86823Y175545D01*
X86772Y175683D01*
X86735Y175822D01*
X86712Y175956D01*
X86703Y176021D01*
X86693Y176076D01*
X86689Y176127D01*
Y176169D01*
X86684Y176205D01*
Y176256D01*
X86689Y176349D01*
X86698Y176436D01*
X86707Y176520D01*
X86726Y176598D01*
X86749Y176672D01*
X86772Y176741D01*
X86795Y176806D01*
X86823Y176866D01*
X86846Y176917D01*
X86869Y176968D01*
X86892Y177005D01*
X86915Y177042D01*
X86934Y177065D01*
X86943Y177088D01*
X86952Y177097D01*
X86957Y177102D01*
X87012Y177166D01*
X87068Y177222D01*
X87132Y177273D01*
X87197Y177323D01*
X87326Y177407D01*
X87456Y177471D01*
X87516Y177499D01*
X87571Y177522D01*
X87622Y177541D01*
X87664Y177555D01*
X87700Y177568D01*
X87728Y177578D01*
X87747Y177582D01*
X87751D01*
X87858Y177157D01*
D02*
G37*
G36*
X88980Y211794D02*
X89054D01*
X89128Y211790D01*
X89192Y211781D01*
X89257Y211776D01*
X89313Y211771D01*
X89363Y211762D01*
X89410Y211757D01*
X89451Y211748D01*
X89483Y211744D01*
X89511Y211739D01*
X89534Y211734D01*
X89548Y211730D01*
X89557Y211725D01*
X89562D01*
X89664Y211697D01*
X89756Y211665D01*
X89835Y211628D01*
X89904Y211600D01*
X89964Y211568D01*
X90006Y211549D01*
X90029Y211531D01*
X90038Y211526D01*
X90107Y211476D01*
X90167Y211425D01*
X90218Y211369D01*
X90264Y211318D01*
X90297Y211272D01*
X90320Y211235D01*
X90334Y211212D01*
X90338Y211208D01*
Y211203D01*
X90375Y211129D01*
X90398Y211051D01*
X90417Y210977D01*
X90431Y210907D01*
X90440Y210847D01*
X90444Y210796D01*
Y210755D01*
X90435Y210630D01*
X90417Y210515D01*
X90384Y210418D01*
X90352Y210334D01*
X90315Y210265D01*
X90301Y210238D01*
X90283Y210214D01*
X90274Y210196D01*
X90264Y210182D01*
X90255Y210177D01*
Y210173D01*
X90181Y210090D01*
X90093Y210020D01*
X90006Y209960D01*
X89922Y209914D01*
X89844Y209877D01*
X89812Y209859D01*
X89779Y209849D01*
X89756Y209840D01*
X89738Y209831D01*
X89728Y209826D01*
X89724D01*
X89654Y209808D01*
X89585Y209789D01*
X89433Y209762D01*
X89280Y209738D01*
X89137Y209725D01*
X89068Y209720D01*
X89008Y209715D01*
X88952D01*
X88901Y209711D01*
X88864D01*
X88832D01*
X88814D01*
X88809D01*
X88647Y209715D01*
X88495Y209725D01*
X88356Y209738D01*
X88227Y209762D01*
X88107Y209785D01*
X88001Y209812D01*
X87903Y209840D01*
X87820Y209868D01*
X87746Y209896D01*
X87682Y209928D01*
X87626Y209951D01*
X87585Y209974D01*
X87548Y209997D01*
X87525Y210011D01*
X87511Y210020D01*
X87506Y210025D01*
X87451Y210076D01*
X87400Y210131D01*
X87354Y210191D01*
X87317Y210251D01*
X87284Y210311D01*
X87257Y210371D01*
X87238Y210432D01*
X87220Y210487D01*
X87206Y210542D01*
X87197Y210593D01*
X87187Y210639D01*
X87183Y210676D01*
X87178Y210709D01*
Y210755D01*
X87187Y210880D01*
X87206Y210995D01*
X87238Y211092D01*
X87271Y211175D01*
X87303Y211245D01*
X87321Y211268D01*
X87335Y211291D01*
X87344Y211309D01*
X87354Y211323D01*
X87363Y211328D01*
Y211332D01*
X87441Y211416D01*
X87525Y211485D01*
X87617Y211545D01*
X87700Y211591D01*
X87779Y211628D01*
X87811Y211647D01*
X87843Y211656D01*
X87866Y211665D01*
X87885Y211674D01*
X87894Y211679D01*
X87899D01*
X87968Y211702D01*
X88038Y211720D01*
X88185Y211748D01*
X88338Y211771D01*
X88486Y211785D01*
X88550Y211790D01*
X88610Y211794D01*
X88666D01*
X88717Y211799D01*
X88754D01*
X88786D01*
X88804D01*
X88809D01*
X88897D01*
X88980Y211794D01*
D02*
G37*
G36*
X87317Y209272D02*
X87358Y209175D01*
X87409Y209083D01*
X87460Y208999D01*
X87502Y208930D01*
X87520Y208898D01*
X87538Y208875D01*
X87552Y208852D01*
X87562Y208838D01*
X87571Y208828D01*
Y208824D01*
X87663Y208907D01*
X87756Y208981D01*
X87848Y209046D01*
X87936Y209096D01*
X88010Y209133D01*
X88042Y209147D01*
X88070Y209161D01*
X88088Y209170D01*
X88107Y209179D01*
X88116Y209184D01*
X88121D01*
X88241Y209226D01*
X88366Y209253D01*
X88486Y209277D01*
X88596Y209290D01*
X88643Y209295D01*
X88689Y209300D01*
X88731D01*
X88767Y209304D01*
X88795D01*
X88814D01*
X88828D01*
X88832D01*
X89003Y209295D01*
X89165Y209277D01*
X89239Y209263D01*
X89308Y209244D01*
X89373Y209226D01*
X89433Y209212D01*
X89488Y209193D01*
X89539Y209175D01*
X89581Y209161D01*
X89618Y209142D01*
X89645Y209133D01*
X89664Y209124D01*
X89678Y209115D01*
X89682D01*
X89816Y209041D01*
X89936Y208953D01*
X90038Y208861D01*
X90121Y208777D01*
X90186Y208699D01*
X90214Y208662D01*
X90237Y208634D01*
X90250Y208607D01*
X90264Y208588D01*
X90269Y208579D01*
X90274Y208574D01*
X90311Y208505D01*
X90343Y208436D01*
X90398Y208302D01*
X90435Y208163D01*
X90458Y208043D01*
X90468Y207987D01*
X90477Y207932D01*
X90482Y207891D01*
Y207849D01*
X90486Y207817D01*
Y207692D01*
X90477Y207613D01*
X90454Y207466D01*
X90421Y207331D01*
X90403Y207271D01*
X90384Y207211D01*
X90366Y207160D01*
X90347Y207114D01*
X90329Y207077D01*
X90315Y207045D01*
X90301Y207017D01*
X90292Y206999D01*
X90287Y206985D01*
X90283Y206980D01*
X90200Y206856D01*
X90103Y206749D01*
X90006Y206652D01*
X89913Y206578D01*
X89825Y206514D01*
X89789Y206491D01*
X89756Y206472D01*
X89728Y206454D01*
X89710Y206444D01*
X89696Y206440D01*
X89691Y206435D01*
X89544Y206370D01*
X89391Y206324D01*
X89248Y206292D01*
X89114Y206269D01*
X89054Y206260D01*
X88998Y206255D01*
X88948Y206250D01*
X88906D01*
X88874Y206246D01*
X88851D01*
X88832D01*
X88828D01*
X88657Y206255D01*
X88495Y206274D01*
X88416Y206292D01*
X88347Y206306D01*
X88282Y206324D01*
X88222Y206343D01*
X88167Y206357D01*
X88116Y206375D01*
X88074Y206394D01*
X88038Y206407D01*
X88010Y206417D01*
X87991Y206426D01*
X87977Y206435D01*
X87973D01*
X87839Y206514D01*
X87723Y206602D01*
X87622Y206689D01*
X87538Y206777D01*
X87474Y206856D01*
X87446Y206888D01*
X87423Y206920D01*
X87409Y206943D01*
X87395Y206962D01*
X87391Y206971D01*
X87386Y206976D01*
X87349Y207045D01*
X87317Y207110D01*
X87266Y207248D01*
X87229Y207382D01*
X87206Y207502D01*
X87197Y207558D01*
X87187Y207609D01*
X87183Y207655D01*
Y207692D01*
X87178Y207724D01*
Y207766D01*
X87183Y207844D01*
X87187Y207923D01*
X87211Y208071D01*
X87243Y208205D01*
X87261Y208265D01*
X87280Y208320D01*
X87298Y208371D01*
X87312Y208417D01*
X87331Y208454D01*
X87344Y208491D01*
X87358Y208514D01*
X87368Y208537D01*
X87377Y208546D01*
Y208551D01*
X87284Y208681D01*
X87201Y208805D01*
X87137Y208921D01*
X87081Y209022D01*
X87058Y209069D01*
X87040Y209110D01*
X87021Y209147D01*
X87007Y209179D01*
X86998Y209207D01*
X86989Y209226D01*
X86984Y209235D01*
Y209240D01*
X87275Y209364D01*
X87317Y209272D01*
D02*
G37*
G36*
X88102Y205437D02*
X88195Y205373D01*
X88278Y205312D01*
X88347Y205253D01*
X88412Y205202D01*
X88458Y205155D01*
X88495Y205118D01*
X88518Y205095D01*
X88527Y205086D01*
X88555Y205049D01*
X88587Y205008D01*
X88638Y204925D01*
X88657Y204888D01*
X88675Y204860D01*
X88684Y204841D01*
X88689Y204832D01*
X88703Y204915D01*
X88717Y204994D01*
X88740Y205063D01*
X88758Y205132D01*
X88781Y205192D01*
X88809Y205248D01*
X88832Y205299D01*
X88855Y205345D01*
X88883Y205382D01*
X88906Y205419D01*
X88924Y205447D01*
X88943Y205470D01*
X88957Y205488D01*
X88971Y205502D01*
X88975Y205507D01*
X88980Y205511D01*
X89026Y205548D01*
X89072Y205585D01*
X89169Y205641D01*
X89266Y205678D01*
X89359Y205705D01*
X89437Y205724D01*
X89470Y205728D01*
X89502D01*
X89525Y205733D01*
X89544D01*
X89553D01*
X89557D01*
X89654Y205728D01*
X89742Y205715D01*
X89825Y205691D01*
X89895Y205668D01*
X89955Y205641D01*
X90001Y205622D01*
X90029Y205604D01*
X90033Y205599D01*
X90038D01*
X90112Y205543D01*
X90176Y205488D01*
X90232Y205428D01*
X90274Y205373D01*
X90306Y205322D01*
X90324Y205280D01*
X90338Y205253D01*
X90343Y205248D01*
Y205243D01*
X90357Y205202D01*
X90371Y205151D01*
X90394Y205049D01*
X90408Y204938D01*
X90421Y204837D01*
X90426Y204740D01*
Y204698D01*
X90431Y204661D01*
Y203178D01*
X87234D01*
Y203603D01*
X88652D01*
Y204148D01*
X88647Y204199D01*
Y204236D01*
X88643Y204268D01*
X88638Y204292D01*
Y204310D01*
X88634Y204319D01*
Y204324D01*
X88610Y204398D01*
X88596Y204430D01*
X88583Y204458D01*
X88569Y204486D01*
X88560Y204504D01*
X88555Y204513D01*
X88550Y204518D01*
X88523Y204555D01*
X88490Y204592D01*
X88421Y204661D01*
X88389Y204694D01*
X88361Y204717D01*
X88342Y204730D01*
X88338Y204735D01*
X88273Y204781D01*
X88204Y204832D01*
X88130Y204883D01*
X88061Y204934D01*
X87996Y204975D01*
X87945Y205008D01*
X87927Y205022D01*
X87913Y205031D01*
X87903Y205040D01*
X87899D01*
X87234Y205460D01*
Y205987D01*
X88102Y205437D01*
D02*
G37*
G36*
X90431Y202000D02*
X87234D01*
Y202425D01*
X90431D01*
Y202000D01*
D02*
G37*
G36*
X69357Y206375D02*
X70881Y207484D01*
Y207022D01*
X70031Y206384D01*
X69962Y206329D01*
X69897Y206283D01*
X69832Y206237D01*
X69782Y206200D01*
X69735Y206167D01*
X69698Y206144D01*
X69680Y206130D01*
X69671Y206126D01*
X69726Y206093D01*
X69786Y206056D01*
X69851Y206015D01*
X69916Y205973D01*
X69971Y205932D01*
X70017Y205904D01*
X70036Y205890D01*
X70050Y205881D01*
X70054Y205872D01*
X70059D01*
X70881Y205289D01*
Y204786D01*
X69338Y205876D01*
X67684Y204643D01*
Y205151D01*
X68793Y205959D01*
X68821Y205978D01*
X68853Y206001D01*
X68927Y206052D01*
X68964Y206075D01*
X68992Y206093D01*
X69010Y206107D01*
X69015Y206112D01*
X68945Y206158D01*
X68881Y206200D01*
X68858Y206218D01*
X68839Y206227D01*
X68825Y206237D01*
X68821Y206241D01*
X67684Y207050D01*
Y207572D01*
X69357Y206375D01*
D02*
G37*
G36*
X70881Y202000D02*
X70502D01*
Y203053D01*
X67684D01*
Y203478D01*
X70502D01*
Y204532D01*
X70881D01*
Y202000D01*
D02*
G37*
G36*
X58100Y205650D02*
X59186D01*
Y207419D01*
X59565D01*
Y205650D01*
X60540D01*
Y207539D01*
X60918D01*
Y205225D01*
X57721D01*
Y207613D01*
X58100D01*
Y205650D01*
D02*
G37*
G36*
X58590Y204259D02*
X58682Y204194D01*
X58766Y204134D01*
X58835Y204074D01*
X58899Y204024D01*
X58946Y203977D01*
X58983Y203940D01*
X59006Y203917D01*
X59015Y203908D01*
X59043Y203871D01*
X59075Y203830D01*
X59126Y203746D01*
X59144Y203709D01*
X59163Y203682D01*
X59172Y203663D01*
X59177Y203654D01*
X59190Y203737D01*
X59204Y203816D01*
X59228Y203885D01*
X59246Y203954D01*
X59269Y204014D01*
X59297Y204070D01*
X59320Y204121D01*
X59343Y204167D01*
X59371Y204204D01*
X59394Y204241D01*
X59412Y204268D01*
X59431Y204292D01*
X59445Y204310D01*
X59459Y204324D01*
X59463Y204328D01*
X59468Y204333D01*
X59514Y204370D01*
X59560Y204407D01*
X59657Y204463D01*
X59754Y204499D01*
X59847Y204527D01*
X59925Y204546D01*
X59957Y204550D01*
X59990D01*
X60013Y204555D01*
X60031D01*
X60041D01*
X60045D01*
X60142Y204550D01*
X60230Y204536D01*
X60313Y204513D01*
X60382Y204490D01*
X60443Y204463D01*
X60489Y204444D01*
X60516Y204426D01*
X60521Y204421D01*
X60526D01*
X60600Y204365D01*
X60664Y204310D01*
X60720Y204250D01*
X60761Y204194D01*
X60794Y204144D01*
X60812Y204102D01*
X60826Y204074D01*
X60831Y204070D01*
Y204065D01*
X60844Y204024D01*
X60858Y203973D01*
X60881Y203871D01*
X60895Y203760D01*
X60909Y203659D01*
X60914Y203562D01*
Y203520D01*
X60918Y203483D01*
Y202000D01*
X57721D01*
Y202425D01*
X59140D01*
Y202970D01*
X59135Y203021D01*
Y203058D01*
X59130Y203090D01*
X59126Y203113D01*
Y203132D01*
X59121Y203141D01*
Y203146D01*
X59098Y203220D01*
X59084Y203252D01*
X59070Y203280D01*
X59057Y203308D01*
X59047Y203326D01*
X59043Y203335D01*
X59038Y203340D01*
X59010Y203377D01*
X58978Y203414D01*
X58909Y203483D01*
X58876Y203515D01*
X58849Y203538D01*
X58830Y203552D01*
X58825Y203557D01*
X58761Y203603D01*
X58692Y203654D01*
X58618Y203705D01*
X58548Y203756D01*
X58484Y203797D01*
X58433Y203830D01*
X58414Y203843D01*
X58400Y203853D01*
X58391Y203862D01*
X58387D01*
X57721Y204282D01*
Y204809D01*
X58590Y204259D01*
D02*
G37*
G36*
X39427Y206625D02*
X40951Y207733D01*
Y207271D01*
X40101Y206634D01*
X40032Y206578D01*
X39967Y206532D01*
X39903Y206486D01*
X39852Y206449D01*
X39806Y206417D01*
X39769Y206394D01*
X39750Y206380D01*
X39741Y206375D01*
X39796Y206343D01*
X39856Y206306D01*
X39921Y206264D01*
X39986Y206223D01*
X40041Y206181D01*
X40087Y206153D01*
X40106Y206139D01*
X40120Y206130D01*
X40124Y206121D01*
X40129D01*
X40951Y205539D01*
Y205035D01*
X39408Y206126D01*
X37754Y204892D01*
Y205400D01*
X38863Y206209D01*
X38891Y206227D01*
X38923Y206250D01*
X38997Y206301D01*
X39034Y206324D01*
X39062Y206343D01*
X39080Y206357D01*
X39085Y206361D01*
X39016Y206407D01*
X38951Y206449D01*
X38928Y206468D01*
X38909Y206477D01*
X38895Y206486D01*
X38891Y206491D01*
X37754Y207299D01*
Y207821D01*
X39427Y206625D01*
D02*
G37*
G36*
X38623Y204259D02*
X38715Y204194D01*
X38798Y204134D01*
X38868Y204074D01*
X38932Y204024D01*
X38979Y203977D01*
X39016Y203940D01*
X39039Y203917D01*
X39048Y203908D01*
X39076Y203871D01*
X39108Y203830D01*
X39159Y203746D01*
X39177Y203709D01*
X39196Y203682D01*
X39205Y203663D01*
X39210Y203654D01*
X39224Y203737D01*
X39237Y203816D01*
X39260Y203885D01*
X39279Y203954D01*
X39302Y204014D01*
X39330Y204070D01*
X39353Y204121D01*
X39376Y204167D01*
X39404Y204204D01*
X39427Y204241D01*
X39445Y204268D01*
X39464Y204292D01*
X39478Y204310D01*
X39491Y204324D01*
X39496Y204328D01*
X39501Y204333D01*
X39547Y204370D01*
X39593Y204407D01*
X39690Y204462D01*
X39787Y204499D01*
X39880Y204527D01*
X39958Y204546D01*
X39990Y204550D01*
X40023D01*
X40046Y204555D01*
X40064D01*
X40073D01*
X40078D01*
X40175Y204550D01*
X40263Y204536D01*
X40346Y204513D01*
X40415Y204490D01*
X40475Y204462D01*
X40522Y204444D01*
X40549Y204426D01*
X40554Y204421D01*
X40559D01*
X40633Y204365D01*
X40697Y204310D01*
X40753Y204250D01*
X40794Y204194D01*
X40827Y204144D01*
X40845Y204102D01*
X40859Y204074D01*
X40864Y204070D01*
Y204065D01*
X40877Y204024D01*
X40891Y203973D01*
X40914Y203871D01*
X40928Y203760D01*
X40942Y203659D01*
X40947Y203562D01*
Y203520D01*
X40951Y203483D01*
Y202000D01*
X37754D01*
Y202425D01*
X39173D01*
Y202970D01*
X39168Y203021D01*
Y203058D01*
X39163Y203090D01*
X39159Y203113D01*
Y203132D01*
X39154Y203141D01*
Y203146D01*
X39131Y203220D01*
X39117Y203252D01*
X39103Y203280D01*
X39090Y203307D01*
X39080Y203326D01*
X39076Y203335D01*
X39071Y203340D01*
X39043Y203377D01*
X39011Y203414D01*
X38942Y203483D01*
X38909Y203515D01*
X38882Y203538D01*
X38863Y203552D01*
X38859Y203557D01*
X38794Y203603D01*
X38724Y203654D01*
X38651Y203705D01*
X38581Y203756D01*
X38517Y203797D01*
X38466Y203830D01*
X38447Y203843D01*
X38433Y203853D01*
X38424Y203862D01*
X38420D01*
X37754Y204282D01*
Y204809D01*
X38623Y204259D01*
D02*
G37*
G36*
X29924Y212640D02*
X28570Y212141D01*
X28473Y212104D01*
X28381Y212076D01*
X28289Y212044D01*
X28210Y212021D01*
X28141Y212002D01*
X28113Y211993D01*
X28090Y211988D01*
X28071Y211984D01*
X28058Y211979D01*
X28048Y211975D01*
X28044D01*
X28150Y211947D01*
X28247Y211919D01*
X28339Y211891D01*
X28418Y211864D01*
X28483Y211841D01*
X28510Y211831D01*
X28533Y211822D01*
X28556Y211818D01*
X28570Y211813D01*
X28575Y211808D01*
X28580D01*
X29924Y211323D01*
Y210907D01*
X27605Y211785D01*
X27563Y211767D01*
X27531Y211757D01*
X27512Y211748D01*
X27508D01*
X27429Y211720D01*
X27365Y211693D01*
X27309Y211674D01*
X27272Y211656D01*
X27244Y211647D01*
X27226Y211637D01*
X27217Y211628D01*
X27212D01*
X27161Y211591D01*
X27124Y211549D01*
X27110Y211531D01*
X27101Y211517D01*
X27092Y211508D01*
Y211503D01*
X27078Y211471D01*
X27064Y211439D01*
X27050Y211369D01*
Y211342D01*
X27046Y211318D01*
Y211295D01*
X27050Y211222D01*
X27064Y211148D01*
X27073Y211120D01*
X27078Y211097D01*
X27083Y211078D01*
Y211074D01*
X26718Y211115D01*
X26699Y211166D01*
X26690Y211212D01*
X26681Y211254D01*
X26672Y211291D01*
Y211323D01*
X26667Y211346D01*
Y211365D01*
X26672Y211434D01*
X26681Y211494D01*
X26695Y211549D01*
X26713Y211596D01*
X26732Y211637D01*
X26746Y211665D01*
X26755Y211684D01*
X26759Y211688D01*
X26796Y211739D01*
X26842Y211781D01*
X26889Y211822D01*
X26935Y211859D01*
X26976Y211887D01*
X27009Y211910D01*
X27032Y211924D01*
X27041Y211928D01*
X27073Y211942D01*
X27106Y211961D01*
X27184Y211998D01*
X27272Y212035D01*
X27360Y212067D01*
X27439Y212099D01*
X27475Y212113D01*
X27508Y212127D01*
X27531Y212136D01*
X27549Y212145D01*
X27563Y212150D01*
X27568D01*
X29924Y213033D01*
Y212640D01*
D02*
G37*
G36*
X27656Y210626D02*
X27706Y210602D01*
X27753Y210584D01*
X27794Y210575D01*
X27831Y210561D01*
X27859Y210556D01*
X27877Y210552D01*
X27882D01*
X27914Y210547D01*
X27956Y210542D01*
X28002D01*
X28053Y210538D01*
X28168Y210533D01*
X28284D01*
X28395Y210528D01*
X28446D01*
X28487D01*
X28524D01*
X28552D01*
X28570D01*
X28575D01*
X29102D01*
X29190D01*
X29268Y210524D01*
X29328Y210519D01*
X29379D01*
X29416Y210515D01*
X29444Y210510D01*
X29457Y210505D01*
X29462D01*
X29522Y210492D01*
X29573Y210473D01*
X29614Y210455D01*
X29656Y210432D01*
X29684Y210413D01*
X29707Y210399D01*
X29721Y210390D01*
X29725Y210385D01*
X29762Y210348D01*
X29799Y210307D01*
X29827Y210261D01*
X29855Y210214D01*
X29873Y210173D01*
X29887Y210140D01*
X29896Y210117D01*
X29901Y210108D01*
X29924Y210034D01*
X29943Y209956D01*
X29956Y209877D01*
X29966Y209799D01*
X29970Y209729D01*
X29975Y209678D01*
Y209628D01*
X29970Y209517D01*
X29961Y209420D01*
X29947Y209327D01*
X29933Y209253D01*
X29919Y209189D01*
X29906Y209142D01*
X29901Y209124D01*
X29896Y209110D01*
X29892Y209105D01*
Y209101D01*
X29859Y209022D01*
X29818Y208953D01*
X29781Y208893D01*
X29744Y208842D01*
X29707Y208805D01*
X29679Y208777D01*
X29661Y208759D01*
X29656Y208754D01*
X29596Y208713D01*
X29531Y208676D01*
X29467Y208648D01*
X29407Y208625D01*
X29346Y208607D01*
X29305Y208593D01*
X29287Y208588D01*
X29273D01*
X29268Y208583D01*
X29263D01*
X29213Y208967D01*
X29296Y208995D01*
X29370Y209022D01*
X29430Y209055D01*
X29476Y209083D01*
X29513Y209110D01*
X29536Y209133D01*
X29550Y209152D01*
X29554Y209156D01*
X29587Y209212D01*
X29610Y209277D01*
X29628Y209346D01*
X29638Y209411D01*
X29647Y209475D01*
X29651Y209521D01*
Y209567D01*
X29647Y209674D01*
X29633Y209766D01*
X29610Y209840D01*
X29587Y209905D01*
X29559Y209951D01*
X29541Y209988D01*
X29522Y210011D01*
X29517Y210016D01*
X29476Y210053D01*
X29425Y210080D01*
X29370Y210104D01*
X29314Y210117D01*
X29263Y210127D01*
X29217Y210131D01*
X29190D01*
X29185D01*
X29180D01*
X29171D01*
X29153D01*
X29120D01*
X29092Y210127D01*
X29083D01*
X29079D01*
X29065Y210080D01*
X29051Y210030D01*
X29023Y209923D01*
X29000Y209803D01*
X28977Y209692D01*
X28968Y209637D01*
X28963Y209586D01*
X28954Y209540D01*
X28949Y209503D01*
X28945Y209471D01*
Y209447D01*
X28940Y209429D01*
Y209424D01*
X28931Y209341D01*
X28917Y209272D01*
X28908Y209212D01*
X28898Y209166D01*
X28894Y209129D01*
X28885Y209101D01*
X28880Y209083D01*
Y209078D01*
X28861Y209018D01*
X28843Y208967D01*
X28820Y208916D01*
X28801Y208875D01*
X28783Y208838D01*
X28764Y208815D01*
X28755Y208796D01*
X28751Y208791D01*
X28718Y208745D01*
X28681Y208708D01*
X28644Y208671D01*
X28607Y208644D01*
X28575Y208620D01*
X28547Y208602D01*
X28529Y208593D01*
X28524Y208588D01*
X28473Y208565D01*
X28418Y208546D01*
X28367Y208533D01*
X28316Y208523D01*
X28275Y208519D01*
X28242Y208514D01*
X28224D01*
X28215D01*
X28159Y208519D01*
X28113Y208523D01*
X28016Y208546D01*
X27937Y208579D01*
X27868Y208616D01*
X27813Y208653D01*
X27771Y208685D01*
X27748Y208708D01*
X27739Y208717D01*
X27679Y208801D01*
X27632Y208893D01*
X27600Y208995D01*
X27577Y209087D01*
X27563Y209170D01*
X27559Y209207D01*
Y209240D01*
X27554Y209267D01*
Y209304D01*
X27559Y209387D01*
X27568Y209471D01*
X27577Y209544D01*
X27591Y209609D01*
X27605Y209660D01*
X27619Y209701D01*
X27623Y209729D01*
X27628Y209738D01*
X27660Y209817D01*
X27702Y209891D01*
X27748Y209960D01*
X27790Y210030D01*
X27831Y210085D01*
X27863Y210127D01*
X27887Y210154D01*
X27896Y210159D01*
Y210163D01*
X27836Y210173D01*
X27780Y210182D01*
X27729Y210191D01*
X27688Y210205D01*
X27651Y210219D01*
X27628Y210228D01*
X27609Y210233D01*
X27605Y210237D01*
Y210649D01*
X27656Y210626D01*
D02*
G37*
G36*
X30802Y207646D02*
X27605D01*
Y208038D01*
X30802D01*
Y207646D01*
D02*
G37*
G36*
X28871Y207170D02*
X28968Y207160D01*
X29060Y207147D01*
X29148Y207128D01*
X29226Y207105D01*
X29300Y207082D01*
X29365Y207054D01*
X29425Y207027D01*
X29480Y206999D01*
X29527Y206971D01*
X29564Y206948D01*
X29596Y206925D01*
X29624Y206906D01*
X29642Y206893D01*
X29651Y206883D01*
X29656Y206879D01*
X29711Y206823D01*
X29762Y206763D01*
X29804Y206698D01*
X29841Y206634D01*
X29873Y206569D01*
X29896Y206509D01*
X29919Y206444D01*
X29933Y206389D01*
X29947Y206329D01*
X29956Y206278D01*
X29966Y206232D01*
X29970Y206195D01*
X29975Y206163D01*
Y206116D01*
X29970Y206029D01*
X29961Y205945D01*
X29947Y205867D01*
X29924Y205793D01*
X29901Y205724D01*
X29873Y205659D01*
X29845Y205599D01*
X29813Y205548D01*
X29785Y205497D01*
X29753Y205456D01*
X29725Y205419D01*
X29702Y205391D01*
X29679Y205368D01*
X29665Y205349D01*
X29656Y205340D01*
X29651Y205336D01*
X29587Y205285D01*
X29517Y205239D01*
X29448Y205197D01*
X29374Y205160D01*
X29296Y205132D01*
X29222Y205109D01*
X29074Y205072D01*
X29009Y205058D01*
X28945Y205049D01*
X28889Y205045D01*
X28838Y205040D01*
X28797Y205035D01*
X28769D01*
X28746D01*
X28741D01*
X28640Y205040D01*
X28543Y205049D01*
X28450Y205063D01*
X28367Y205082D01*
X28289Y205105D01*
X28215Y205128D01*
X28150Y205155D01*
X28090Y205183D01*
X28039Y205211D01*
X27993Y205239D01*
X27956Y205262D01*
X27924Y205285D01*
X27896Y205303D01*
X27877Y205317D01*
X27868Y205326D01*
X27863Y205331D01*
X27808Y205391D01*
X27762Y205451D01*
X27720Y205516D01*
X27683Y205585D01*
X27656Y205650D01*
X27628Y205719D01*
X27591Y205849D01*
X27582Y205908D01*
X27573Y205964D01*
X27563Y206015D01*
X27559Y206056D01*
X27554Y206089D01*
Y206139D01*
X27563Y206283D01*
X27586Y206412D01*
X27614Y206528D01*
X27632Y206574D01*
X27651Y206620D01*
X27670Y206662D01*
X27688Y206698D01*
X27702Y206726D01*
X27716Y206754D01*
X27729Y206772D01*
X27739Y206786D01*
X27748Y206796D01*
Y206800D01*
X27831Y206893D01*
X27919Y206966D01*
X28011Y207031D01*
X28099Y207077D01*
X28178Y207114D01*
X28215Y207128D01*
X28242Y207142D01*
X28270Y207151D01*
X28289Y207156D01*
X28298Y207160D01*
X28302D01*
X28353Y206754D01*
X28266Y206717D01*
X28192Y206675D01*
X28127Y206634D01*
X28076Y206597D01*
X28039Y206565D01*
X28011Y206537D01*
X27993Y206514D01*
X27988Y206509D01*
X27951Y206449D01*
X27924Y206389D01*
X27905Y206324D01*
X27891Y206269D01*
X27882Y206218D01*
X27877Y206176D01*
Y206139D01*
X27882Y206084D01*
X27887Y206033D01*
X27910Y205941D01*
X27942Y205858D01*
X27979Y205784D01*
X28011Y205728D01*
X28044Y205687D01*
X28067Y205659D01*
X28076Y205654D01*
Y205650D01*
X28159Y205585D01*
X28252Y205534D01*
X28353Y205497D01*
X28446Y205470D01*
X28529Y205456D01*
X28566Y205447D01*
X28598Y205442D01*
X28626D01*
X28644Y205437D01*
X28658D01*
X28663D01*
Y207170D01*
X28709Y207174D01*
X28741D01*
X28760D01*
X28764D01*
X28871Y207170D01*
D02*
G37*
G36*
X28473Y204259D02*
X28566Y204194D01*
X28649Y204134D01*
X28718Y204074D01*
X28783Y204024D01*
X28829Y203977D01*
X28866Y203940D01*
X28889Y203917D01*
X28898Y203908D01*
X28926Y203871D01*
X28958Y203830D01*
X29009Y203746D01*
X29028Y203709D01*
X29046Y203682D01*
X29056Y203663D01*
X29060Y203654D01*
X29074Y203737D01*
X29088Y203816D01*
X29111Y203885D01*
X29129Y203954D01*
X29153Y204014D01*
X29180Y204070D01*
X29203Y204121D01*
X29226Y204167D01*
X29254Y204204D01*
X29277Y204241D01*
X29296Y204268D01*
X29314Y204292D01*
X29328Y204310D01*
X29342Y204324D01*
X29346Y204328D01*
X29351Y204333D01*
X29397Y204370D01*
X29444Y204407D01*
X29541Y204462D01*
X29638Y204499D01*
X29730Y204527D01*
X29809Y204546D01*
X29841Y204550D01*
X29873D01*
X29896Y204555D01*
X29915D01*
X29924D01*
X29929D01*
X30026Y204550D01*
X30114Y204536D01*
X30197Y204513D01*
X30266Y204490D01*
X30326Y204462D01*
X30372Y204444D01*
X30400Y204426D01*
X30404Y204421D01*
X30409D01*
X30483Y204365D01*
X30548Y204310D01*
X30603Y204250D01*
X30645Y204194D01*
X30677Y204144D01*
X30696Y204102D01*
X30709Y204074D01*
X30714Y204070D01*
Y204065D01*
X30728Y204024D01*
X30742Y203973D01*
X30765Y203871D01*
X30779Y203760D01*
X30793Y203659D01*
X30797Y203562D01*
Y203520D01*
X30802Y203483D01*
Y202000D01*
X27605D01*
Y202425D01*
X29023D01*
Y202970D01*
X29019Y203021D01*
Y203058D01*
X29014Y203090D01*
X29009Y203113D01*
Y203132D01*
X29005Y203141D01*
Y203146D01*
X28982Y203220D01*
X28968Y203252D01*
X28954Y203280D01*
X28940Y203307D01*
X28931Y203326D01*
X28926Y203335D01*
X28921Y203340D01*
X28894Y203377D01*
X28861Y203414D01*
X28792Y203483D01*
X28760Y203515D01*
X28732Y203538D01*
X28714Y203552D01*
X28709Y203557D01*
X28644Y203603D01*
X28575Y203654D01*
X28501Y203705D01*
X28432Y203756D01*
X28367Y203797D01*
X28316Y203830D01*
X28298Y203843D01*
X28284Y203853D01*
X28275Y203862D01*
X28270D01*
X27605Y204282D01*
Y204809D01*
X28473Y204259D01*
D02*
G37*
G36*
X50936Y213093D02*
X48612Y212224D01*
X48515Y212187D01*
X48423Y212155D01*
X48335Y212127D01*
X48257Y212104D01*
X48187Y212081D01*
X48137Y212067D01*
X48118Y212062D01*
X48104Y212058D01*
X48095Y212053D01*
X48090D01*
X48275Y211998D01*
X48363Y211970D01*
X48441Y211942D01*
X48511Y211919D01*
X48539Y211910D01*
X48566Y211905D01*
X48585Y211896D01*
X48599Y211891D01*
X48608Y211887D01*
X48612D01*
X50936Y211055D01*
Y210593D01*
X47739Y211831D01*
Y212270D01*
X50936Y213522D01*
Y213093D01*
D02*
G37*
G36*
X48793Y210371D02*
X48894Y210353D01*
X48982Y210325D01*
X49056Y210297D01*
X49116Y210270D01*
X49162Y210242D01*
X49190Y210224D01*
X49199Y210219D01*
X49268Y210154D01*
X49329Y210085D01*
X49375Y210011D01*
X49412Y209937D01*
X49439Y209873D01*
X49458Y209822D01*
X49463Y209803D01*
X49467Y209789D01*
X49472Y209780D01*
Y209775D01*
X49513Y209854D01*
X49555Y209919D01*
X49601Y209974D01*
X49643Y210020D01*
X49680Y210057D01*
X49712Y210085D01*
X49731Y210099D01*
X49740Y210104D01*
X49804Y210140D01*
X49869Y210168D01*
X49934Y210191D01*
X49994Y210205D01*
X50045Y210214D01*
X50082Y210219D01*
X50109D01*
X50118D01*
X50197Y210214D01*
X50276Y210201D01*
X50345Y210182D01*
X50405Y210159D01*
X50456Y210136D01*
X50497Y210117D01*
X50520Y210104D01*
X50530Y210099D01*
X50599Y210053D01*
X50659Y209997D01*
X50710Y209942D01*
X50756Y209886D01*
X50788Y209840D01*
X50816Y209799D01*
X50830Y209771D01*
X50835Y209766D01*
Y209762D01*
X50872Y209678D01*
X50899Y209595D01*
X50922Y209512D01*
X50936Y209438D01*
X50946Y209378D01*
X50950Y209327D01*
Y209212D01*
X50941Y209147D01*
X50918Y209022D01*
X50881Y208916D01*
X50844Y208824D01*
X50821Y208782D01*
X50802Y208750D01*
X50784Y208717D01*
X50765Y208694D01*
X50752Y208676D01*
X50742Y208662D01*
X50738Y208653D01*
X50733Y208648D01*
X50645Y208560D01*
X50548Y208491D01*
X50447Y208436D01*
X50345Y208389D01*
X50257Y208362D01*
X50220Y208348D01*
X50188Y208339D01*
X50160Y208334D01*
X50142Y208329D01*
X50128Y208325D01*
X50123D01*
X50054Y208717D01*
X50156Y208736D01*
X50243Y208764D01*
X50317Y208796D01*
X50377Y208828D01*
X50424Y208861D01*
X50456Y208888D01*
X50479Y208907D01*
X50484Y208911D01*
X50530Y208972D01*
X50567Y209036D01*
X50590Y209096D01*
X50608Y209156D01*
X50617Y209212D01*
X50627Y209253D01*
Y209290D01*
X50622Y209373D01*
X50604Y209447D01*
X50581Y209512D01*
X50557Y209568D01*
X50530Y209609D01*
X50507Y209642D01*
X50488Y209665D01*
X50484Y209669D01*
X50428Y209720D01*
X50368Y209757D01*
X50308Y209780D01*
X50252Y209799D01*
X50202Y209808D01*
X50165Y209817D01*
X50137D01*
X50132D01*
X50128D01*
X50077D01*
X50031Y209808D01*
X49952Y209785D01*
X49883Y209752D01*
X49823Y209715D01*
X49781Y209678D01*
X49749Y209646D01*
X49731Y209623D01*
X49726Y209618D01*
Y209614D01*
X49684Y209535D01*
X49652Y209461D01*
X49629Y209383D01*
X49615Y209314D01*
X49606Y209253D01*
X49597Y209203D01*
Y209142D01*
X49601Y209124D01*
Y209101D01*
X49255Y209055D01*
X49268Y209115D01*
X49278Y209170D01*
X49287Y209216D01*
X49292Y209258D01*
X49296Y209290D01*
Y209332D01*
X49287Y209429D01*
X49268Y209517D01*
X49241Y209595D01*
X49208Y209660D01*
X49176Y209711D01*
X49148Y209748D01*
X49130Y209771D01*
X49121Y209780D01*
X49051Y209840D01*
X48977Y209886D01*
X48904Y209919D01*
X48830Y209937D01*
X48770Y209951D01*
X48719Y209956D01*
X48700Y209960D01*
X48686D01*
X48677D01*
X48673D01*
X48571Y209951D01*
X48478Y209928D01*
X48400Y209900D01*
X48331Y209863D01*
X48275Y209826D01*
X48234Y209799D01*
X48206Y209775D01*
X48197Y209766D01*
X48132Y209692D01*
X48086Y209614D01*
X48053Y209535D01*
X48030Y209461D01*
X48016Y209397D01*
X48012Y209346D01*
X48007Y209327D01*
Y209300D01*
X48012Y209216D01*
X48030Y209138D01*
X48053Y209069D01*
X48081Y209013D01*
X48104Y208967D01*
X48127Y208930D01*
X48146Y208911D01*
X48150Y208902D01*
X48215Y208847D01*
X48289Y208801D01*
X48368Y208759D01*
X48451Y208727D01*
X48520Y208704D01*
X48552Y208694D01*
X48580Y208690D01*
X48603Y208685D01*
X48622Y208681D01*
X48631Y208676D01*
X48636D01*
X48585Y208283D01*
X48511Y208292D01*
X48441Y208306D01*
X48312Y208348D01*
X48201Y208399D01*
X48155Y208426D01*
X48109Y208454D01*
X48067Y208482D01*
X48035Y208510D01*
X48003Y208533D01*
X47980Y208556D01*
X47961Y208570D01*
X47947Y208583D01*
X47938Y208593D01*
X47933Y208597D01*
X47892Y208653D01*
X47850Y208708D01*
X47818Y208764D01*
X47790Y208824D01*
X47744Y208939D01*
X47716Y209050D01*
X47707Y209101D01*
X47698Y209147D01*
X47693Y209189D01*
X47688Y209226D01*
X47684Y209253D01*
Y209295D01*
X47688Y209383D01*
X47698Y209461D01*
X47712Y209540D01*
X47730Y209614D01*
X47753Y209683D01*
X47776Y209743D01*
X47804Y209803D01*
X47832Y209854D01*
X47855Y209905D01*
X47883Y209946D01*
X47906Y209983D01*
X47929Y210011D01*
X47947Y210034D01*
X47961Y210053D01*
X47970Y210062D01*
X47975Y210067D01*
X48030Y210122D01*
X48090Y210168D01*
X48150Y210210D01*
X48210Y210247D01*
X48266Y210274D01*
X48326Y210302D01*
X48437Y210339D01*
X48488Y210348D01*
X48534Y210358D01*
X48575Y210367D01*
X48612Y210371D01*
X48640Y210376D01*
X48663D01*
X48677D01*
X48682D01*
X48793Y210371D01*
D02*
G37*
G36*
X48187Y207258D02*
X47739D01*
Y207706D01*
X48187D01*
Y207258D01*
D02*
G37*
G36*
X48793Y206643D02*
X48894Y206625D01*
X48982Y206597D01*
X49056Y206569D01*
X49116Y206541D01*
X49162Y206514D01*
X49190Y206495D01*
X49199Y206491D01*
X49268Y206426D01*
X49329Y206357D01*
X49375Y206283D01*
X49412Y206209D01*
X49439Y206144D01*
X49458Y206093D01*
X49463Y206075D01*
X49467Y206061D01*
X49472Y206052D01*
Y206047D01*
X49513Y206126D01*
X49555Y206190D01*
X49601Y206246D01*
X49643Y206292D01*
X49680Y206329D01*
X49712Y206357D01*
X49731Y206370D01*
X49740Y206375D01*
X49804Y206412D01*
X49869Y206440D01*
X49934Y206463D01*
X49994Y206477D01*
X50045Y206486D01*
X50082Y206491D01*
X50109D01*
X50118D01*
X50197Y206486D01*
X50276Y206472D01*
X50345Y206454D01*
X50405Y206431D01*
X50456Y206407D01*
X50497Y206389D01*
X50520Y206375D01*
X50530Y206370D01*
X50599Y206324D01*
X50659Y206269D01*
X50710Y206213D01*
X50756Y206158D01*
X50788Y206112D01*
X50816Y206070D01*
X50830Y206043D01*
X50835Y206038D01*
Y206033D01*
X50872Y205950D01*
X50899Y205867D01*
X50922Y205784D01*
X50936Y205710D01*
X50946Y205650D01*
X50950Y205599D01*
Y205484D01*
X50941Y205419D01*
X50918Y205294D01*
X50881Y205188D01*
X50844Y205095D01*
X50821Y205054D01*
X50802Y205022D01*
X50784Y204989D01*
X50765Y204966D01*
X50752Y204948D01*
X50742Y204934D01*
X50738Y204925D01*
X50733Y204920D01*
X50645Y204832D01*
X50548Y204763D01*
X50447Y204707D01*
X50345Y204661D01*
X50257Y204633D01*
X50220Y204620D01*
X50188Y204610D01*
X50160Y204606D01*
X50142Y204601D01*
X50128Y204596D01*
X50123D01*
X50054Y204989D01*
X50156Y205008D01*
X50243Y205035D01*
X50317Y205068D01*
X50377Y205100D01*
X50424Y205132D01*
X50456Y205160D01*
X50479Y205179D01*
X50484Y205183D01*
X50530Y205243D01*
X50567Y205308D01*
X50590Y205368D01*
X50608Y205428D01*
X50617Y205484D01*
X50627Y205525D01*
Y205562D01*
X50622Y205645D01*
X50604Y205719D01*
X50581Y205784D01*
X50557Y205839D01*
X50530Y205881D01*
X50507Y205913D01*
X50488Y205936D01*
X50484Y205941D01*
X50428Y205992D01*
X50368Y206029D01*
X50308Y206052D01*
X50252Y206070D01*
X50202Y206080D01*
X50165Y206089D01*
X50137D01*
X50132D01*
X50128D01*
X50077D01*
X50031Y206080D01*
X49952Y206056D01*
X49883Y206024D01*
X49823Y205987D01*
X49781Y205950D01*
X49749Y205918D01*
X49731Y205895D01*
X49726Y205890D01*
Y205885D01*
X49684Y205807D01*
X49652Y205733D01*
X49629Y205654D01*
X49615Y205585D01*
X49606Y205525D01*
X49597Y205474D01*
Y205414D01*
X49601Y205396D01*
Y205373D01*
X49255Y205326D01*
X49268Y205386D01*
X49278Y205442D01*
X49287Y205488D01*
X49292Y205530D01*
X49296Y205562D01*
Y205604D01*
X49287Y205701D01*
X49268Y205788D01*
X49241Y205867D01*
X49208Y205932D01*
X49176Y205982D01*
X49148Y206019D01*
X49130Y206043D01*
X49121Y206052D01*
X49051Y206112D01*
X48977Y206158D01*
X48904Y206190D01*
X48830Y206209D01*
X48770Y206223D01*
X48719Y206227D01*
X48700Y206232D01*
X48686D01*
X48677D01*
X48673D01*
X48571Y206223D01*
X48478Y206200D01*
X48400Y206172D01*
X48331Y206135D01*
X48275Y206098D01*
X48234Y206070D01*
X48206Y206047D01*
X48197Y206038D01*
X48132Y205964D01*
X48086Y205885D01*
X48053Y205807D01*
X48030Y205733D01*
X48016Y205668D01*
X48012Y205617D01*
X48007Y205599D01*
Y205571D01*
X48012Y205488D01*
X48030Y205410D01*
X48053Y205340D01*
X48081Y205285D01*
X48104Y205239D01*
X48127Y205202D01*
X48146Y205183D01*
X48150Y205174D01*
X48215Y205118D01*
X48289Y205072D01*
X48368Y205031D01*
X48451Y204998D01*
X48520Y204975D01*
X48552Y204966D01*
X48580Y204961D01*
X48603Y204957D01*
X48622Y204952D01*
X48631Y204948D01*
X48636D01*
X48585Y204555D01*
X48511Y204564D01*
X48441Y204578D01*
X48312Y204620D01*
X48201Y204670D01*
X48155Y204698D01*
X48109Y204726D01*
X48067Y204753D01*
X48035Y204781D01*
X48003Y204804D01*
X47980Y204827D01*
X47961Y204841D01*
X47947Y204855D01*
X47938Y204864D01*
X47933Y204869D01*
X47892Y204925D01*
X47850Y204980D01*
X47818Y205035D01*
X47790Y205095D01*
X47744Y205211D01*
X47716Y205322D01*
X47707Y205373D01*
X47698Y205419D01*
X47693Y205460D01*
X47688Y205497D01*
X47684Y205525D01*
Y205567D01*
X47688Y205654D01*
X47698Y205733D01*
X47712Y205812D01*
X47730Y205885D01*
X47753Y205955D01*
X47776Y206015D01*
X47804Y206075D01*
X47832Y206126D01*
X47855Y206176D01*
X47883Y206218D01*
X47906Y206255D01*
X47929Y206283D01*
X47947Y206306D01*
X47961Y206324D01*
X47970Y206334D01*
X47975Y206338D01*
X48030Y206394D01*
X48090Y206440D01*
X48150Y206481D01*
X48210Y206518D01*
X48266Y206546D01*
X48326Y206574D01*
X48437Y206611D01*
X48488Y206620D01*
X48534Y206629D01*
X48575Y206639D01*
X48612Y206643D01*
X48640Y206648D01*
X48663D01*
X48677D01*
X48682D01*
X48793Y206643D01*
D02*
G37*
G36*
X49499Y203238D02*
X50368D01*
Y202869D01*
X49499D01*
Y202000D01*
X49134D01*
Y202869D01*
X48257D01*
Y203238D01*
X49134D01*
Y204107D01*
X49499D01*
Y203238D01*
D02*
G37*
G36*
X20452Y209364D02*
X18129Y208496D01*
X18032Y208459D01*
X17939Y208426D01*
X17851Y208399D01*
X17773Y208376D01*
X17704Y208352D01*
X17653Y208339D01*
X17634Y208334D01*
X17620Y208329D01*
X17611Y208325D01*
X17607D01*
X17791Y208269D01*
X17879Y208242D01*
X17958Y208214D01*
X18027Y208191D01*
X18055Y208182D01*
X18082Y208177D01*
X18101Y208168D01*
X18115Y208163D01*
X18124Y208158D01*
X18129D01*
X20452Y207327D01*
Y206865D01*
X17255Y208103D01*
Y208542D01*
X20452Y209794D01*
Y209364D01*
D02*
G37*
G36*
X18420Y206666D02*
X18498Y206657D01*
X18577Y206643D01*
X18646Y206625D01*
X18711Y206602D01*
X18775Y206578D01*
X18831Y206551D01*
X18882Y206528D01*
X18928Y206500D01*
X18970Y206472D01*
X19002Y206449D01*
X19034Y206426D01*
X19057Y206407D01*
X19071Y206394D01*
X19080Y206384D01*
X19085Y206380D01*
X19136Y206324D01*
X19182Y206269D01*
X19219Y206209D01*
X19251Y206149D01*
X19284Y206089D01*
X19307Y206029D01*
X19339Y205918D01*
X19353Y205867D01*
X19362Y205821D01*
X19367Y205779D01*
X19371Y205742D01*
X19376Y205715D01*
Y205613D01*
X19367Y205557D01*
X19344Y205447D01*
X19311Y205345D01*
X19274Y205253D01*
X19237Y205179D01*
X19219Y205146D01*
X19205Y205118D01*
X19191Y205095D01*
X19182Y205082D01*
X19177Y205072D01*
X19173Y205068D01*
X20037Y205239D01*
Y206518D01*
X20411D01*
Y204929D01*
X18766Y204620D01*
X18715Y204989D01*
X18766Y205022D01*
X18808Y205063D01*
X18849Y205100D01*
X18882Y205137D01*
X18905Y205174D01*
X18928Y205202D01*
X18937Y205220D01*
X18942Y205225D01*
X18970Y205285D01*
X18993Y205345D01*
X19006Y205400D01*
X19020Y205456D01*
X19025Y205502D01*
X19029Y205539D01*
Y205627D01*
X19020Y205682D01*
X18997Y205779D01*
X18965Y205862D01*
X18933Y205936D01*
X18895Y205992D01*
X18863Y206033D01*
X18840Y206056D01*
X18835Y206066D01*
X18831D01*
X18752Y206130D01*
X18669Y206176D01*
X18581Y206209D01*
X18494Y206232D01*
X18420Y206246D01*
X18387Y206250D01*
X18360D01*
X18337Y206255D01*
X18318D01*
X18309D01*
X18304D01*
X18239D01*
X18179Y206246D01*
X18064Y206223D01*
X17967Y206190D01*
X17888Y206158D01*
X17824Y206121D01*
X17773Y206089D01*
X17759Y206075D01*
X17745Y206066D01*
X17740Y206061D01*
X17736Y206056D01*
X17699Y206019D01*
X17667Y205982D01*
X17611Y205899D01*
X17574Y205821D01*
X17551Y205742D01*
X17533Y205678D01*
X17528Y205622D01*
X17523Y205604D01*
Y205576D01*
X17528Y205488D01*
X17547Y205410D01*
X17570Y205340D01*
X17597Y205285D01*
X17625Y205234D01*
X17648Y205197D01*
X17667Y205179D01*
X17671Y205169D01*
X17736Y205114D01*
X17805Y205068D01*
X17884Y205031D01*
X17953Y205003D01*
X18022Y204984D01*
X18073Y204971D01*
X18096Y204966D01*
X18110Y204961D01*
X18119D01*
X18124D01*
X18092Y204550D01*
X18018Y204559D01*
X17948Y204573D01*
X17819Y204615D01*
X17708Y204666D01*
X17657Y204694D01*
X17616Y204721D01*
X17574Y204744D01*
X17537Y204772D01*
X17510Y204795D01*
X17486Y204818D01*
X17468Y204837D01*
X17449Y204846D01*
X17445Y204855D01*
X17440Y204860D01*
X17399Y204915D01*
X17362Y204971D01*
X17329Y205031D01*
X17302Y205091D01*
X17260Y205206D01*
X17232Y205322D01*
X17219Y205373D01*
X17214Y205423D01*
X17209Y205465D01*
X17205Y205502D01*
X17200Y205534D01*
Y205576D01*
X17205Y205673D01*
X17219Y205765D01*
X17237Y205853D01*
X17260Y205932D01*
X17292Y206006D01*
X17325Y206075D01*
X17357Y206139D01*
X17394Y206195D01*
X17431Y206246D01*
X17463Y206292D01*
X17500Y206329D01*
X17528Y206361D01*
X17551Y206384D01*
X17570Y206403D01*
X17583Y206412D01*
X17588Y206417D01*
X17648Y206463D01*
X17713Y206500D01*
X17773Y206537D01*
X17838Y206565D01*
X17962Y206611D01*
X18082Y206639D01*
X18133Y206648D01*
X18184Y206657D01*
X18226Y206662D01*
X18263Y206666D01*
X18295Y206671D01*
X18318D01*
X18332D01*
X18337D01*
X18420Y206666D01*
D02*
G37*
G36*
X19016Y203238D02*
X19884D01*
Y202869D01*
X19016D01*
Y202000D01*
X18651D01*
Y202869D01*
X17773D01*
Y203238D01*
X18651D01*
Y204107D01*
X19016D01*
Y203238D01*
D02*
G37*
G36*
X67786Y182101D02*
X67781Y182064D01*
X67777Y182027D01*
Y181994D01*
X67772Y181971D01*
Y181925D01*
X67777Y181865D01*
X67786Y181823D01*
X67795Y181800D01*
X67800Y181791D01*
X67823Y181759D01*
X67846Y181740D01*
X67865Y181726D01*
X67874Y181722D01*
X67897Y181717D01*
X67929Y181712D01*
X68003Y181708D01*
X68036Y181703D01*
X68063D01*
X68082D01*
X68091D01*
X69454D01*
Y182101D01*
X69759D01*
Y181703D01*
X70567D01*
X70332Y181310D01*
X69759D01*
Y181019D01*
X69454D01*
Y181310D01*
X68114D01*
X68049D01*
X67994D01*
X67943Y181315D01*
X67892Y181320D01*
X67851D01*
X67814Y181324D01*
X67754Y181334D01*
X67708Y181343D01*
X67675Y181348D01*
X67657Y181357D01*
X67652D01*
X67611Y181375D01*
X67578Y181403D01*
X67546Y181431D01*
X67523Y181454D01*
X67500Y181482D01*
X67486Y181500D01*
X67476Y181514D01*
X67472Y181518D01*
X67449Y181569D01*
X67435Y181620D01*
X67421Y181676D01*
X67416Y181731D01*
X67412Y181777D01*
X67407Y181814D01*
Y181851D01*
X67412Y181953D01*
X67416Y182003D01*
X67426Y182050D01*
X67430Y182091D01*
X67435Y182124D01*
X67440Y182142D01*
Y182151D01*
X67786Y182101D01*
D02*
G37*
G36*
X69759Y180239D02*
X68516D01*
X68410Y180234D01*
X68317Y180229D01*
X68239Y180220D01*
X68174Y180206D01*
X68123Y180192D01*
X68086Y180183D01*
X68068Y180179D01*
X68059Y180174D01*
X68003Y180146D01*
X67957Y180114D01*
X67915Y180077D01*
X67878Y180040D01*
X67851Y180008D01*
X67832Y179980D01*
X67818Y179962D01*
X67814Y179952D01*
X67786Y179892D01*
X67763Y179832D01*
X67749Y179777D01*
X67735Y179726D01*
X67731Y179684D01*
X67726Y179652D01*
Y179620D01*
X67731Y179555D01*
X67740Y179499D01*
X67754Y179449D01*
X67772Y179407D01*
X67786Y179370D01*
X67800Y179347D01*
X67809Y179329D01*
X67814Y179324D01*
X67851Y179282D01*
X67888Y179250D01*
X67929Y179222D01*
X67966Y179199D01*
X68003Y179185D01*
X68031Y179176D01*
X68049Y179167D01*
X68054D01*
X68105Y179158D01*
X68165Y179153D01*
X68234Y179148D01*
X68304D01*
X68368Y179144D01*
X68419D01*
X68442D01*
X68456D01*
X68465D01*
X68470D01*
X69759D01*
Y178751D01*
X68322D01*
X68234D01*
X68156Y178756D01*
X68096Y178760D01*
X68040Y178765D01*
X68003D01*
X67975Y178770D01*
X67957Y178774D01*
X67952D01*
X67892Y178788D01*
X67837Y178806D01*
X67786Y178825D01*
X67744Y178848D01*
X67708Y178867D01*
X67684Y178880D01*
X67666Y178890D01*
X67661Y178894D01*
X67620Y178931D01*
X67583Y178973D01*
X67550Y179014D01*
X67523Y179061D01*
X67500Y179098D01*
X67481Y179130D01*
X67472Y179148D01*
X67467Y179158D01*
X67440Y179227D01*
X67421Y179292D01*
X67407Y179356D01*
X67398Y179416D01*
X67393Y179467D01*
X67389Y179509D01*
Y179541D01*
X67393Y179624D01*
X67407Y179707D01*
X67426Y179781D01*
X67449Y179855D01*
X67481Y179920D01*
X67514Y179980D01*
X67546Y180035D01*
X67583Y180086D01*
X67620Y180132D01*
X67652Y180169D01*
X67689Y180202D01*
X67717Y180229D01*
X67740Y180253D01*
X67758Y180266D01*
X67772Y180276D01*
X67777Y180280D01*
X67440D01*
Y180631D01*
X69759D01*
Y180239D01*
D02*
G37*
G36*
X69204Y178257D02*
X69366Y178238D01*
X69440Y178224D01*
X69514Y178206D01*
X69579Y178187D01*
X69639Y178174D01*
X69694Y178155D01*
X69745Y178137D01*
X69787Y178123D01*
X69823Y178104D01*
X69851Y178095D01*
X69870Y178086D01*
X69884Y178077D01*
X69888D01*
X70022Y178003D01*
X70142Y177915D01*
X70244Y177822D01*
X70327Y177739D01*
X70392Y177661D01*
X70419Y177624D01*
X70443Y177596D01*
X70456Y177568D01*
X70470Y177550D01*
X70475Y177541D01*
X70480Y177536D01*
X70517Y177467D01*
X70549Y177397D01*
X70604Y177263D01*
X70641Y177125D01*
X70664Y177005D01*
X70674Y176949D01*
X70683Y176894D01*
X70687Y176852D01*
Y176811D01*
X70692Y176778D01*
Y176737D01*
X70687Y176612D01*
X70674Y176497D01*
X70651Y176386D01*
X70623Y176279D01*
X70586Y176182D01*
X70549Y176090D01*
X70507Y176007D01*
X70466Y175933D01*
X70424Y175864D01*
X70382Y175803D01*
X70345Y175753D01*
X70309Y175711D01*
X70281Y175679D01*
X70258Y175651D01*
X70244Y175637D01*
X70239Y175633D01*
X70152Y175559D01*
X70059Y175494D01*
X69957Y175434D01*
X69856Y175388D01*
X69749Y175346D01*
X69648Y175309D01*
X69546Y175281D01*
X69449Y175263D01*
X69357Y175244D01*
X69269Y175231D01*
X69191Y175221D01*
X69126Y175212D01*
X69070D01*
X69029Y175207D01*
X69001D01*
X68997D01*
X68992D01*
X68835Y175217D01*
X68692Y175235D01*
X68553Y175263D01*
X68493Y175281D01*
X68433Y175300D01*
X68382Y175314D01*
X68336Y175332D01*
X68294Y175346D01*
X68257Y175360D01*
X68230Y175369D01*
X68211Y175379D01*
X68197Y175388D01*
X68193D01*
X68059Y175466D01*
X67943Y175549D01*
X67842Y175642D01*
X67758Y175730D01*
X67689Y175808D01*
X67661Y175840D01*
X67643Y175868D01*
X67624Y175896D01*
X67611Y175914D01*
X67606Y175924D01*
X67601Y175928D01*
X67564Y175997D01*
X67532Y176067D01*
X67476Y176205D01*
X67440Y176339D01*
X67412Y176464D01*
X67403Y176524D01*
X67398Y176575D01*
X67389Y176621D01*
Y176663D01*
X67384Y176690D01*
Y176737D01*
X67393Y176889D01*
X67416Y177032D01*
X67444Y177166D01*
X67463Y177226D01*
X67481Y177282D01*
X67500Y177333D01*
X67518Y177379D01*
X67532Y177416D01*
X67546Y177448D01*
X67560Y177476D01*
X67569Y177499D01*
X67578Y177508D01*
Y177513D01*
X67661Y177642D01*
X67754Y177753D01*
X67851Y177846D01*
X67943Y177924D01*
X68031Y177989D01*
X68063Y178012D01*
X68096Y178030D01*
X68123Y178049D01*
X68142Y178058D01*
X68156Y178067D01*
X68160D01*
X68234Y178104D01*
X68308Y178132D01*
X68456Y178183D01*
X68604Y178220D01*
X68738Y178243D01*
X68798Y178247D01*
X68853Y178257D01*
X68904Y178261D01*
X68946D01*
X68983Y178266D01*
X69006D01*
X69024D01*
X69029D01*
X69204Y178257D01*
D02*
G37*
G36*
X69038Y174676D02*
X69103Y174672D01*
X69158D01*
X69195Y174667D01*
X69223Y174662D01*
X69241Y174658D01*
X69246D01*
X69306Y174644D01*
X69362Y174621D01*
X69408Y174602D01*
X69454Y174584D01*
X69486Y174561D01*
X69509Y174547D01*
X69528Y174538D01*
X69532Y174533D01*
X69579Y174496D01*
X69616Y174454D01*
X69652Y174413D01*
X69680Y174367D01*
X69703Y174330D01*
X69717Y174297D01*
X69726Y174279D01*
X69731Y174270D01*
X69759Y174205D01*
X69777Y174136D01*
X69791Y174071D01*
X69800Y174011D01*
X69805Y173960D01*
X69810Y173923D01*
Y173886D01*
X69805Y173798D01*
X69791Y173715D01*
X69773Y173641D01*
X69749Y173567D01*
X69722Y173503D01*
X69690Y173443D01*
X69652Y173387D01*
X69620Y173341D01*
X69583Y173295D01*
X69546Y173258D01*
X69514Y173225D01*
X69486Y173198D01*
X69463Y173179D01*
X69445Y173166D01*
X69431Y173156D01*
X69426Y173152D01*
X69759D01*
Y172801D01*
X67440D01*
Y173193D01*
X68701D01*
X68779D01*
X68858Y173202D01*
X68923Y173212D01*
X68983Y173221D01*
X69038Y173235D01*
X69089Y173249D01*
X69135Y173267D01*
X69172Y173286D01*
X69204Y173300D01*
X69232Y173318D01*
X69255Y173332D01*
X69274Y173346D01*
X69297Y173364D01*
X69306Y173373D01*
X69362Y173443D01*
X69398Y173517D01*
X69426Y173591D01*
X69449Y173655D01*
X69459Y173715D01*
X69463Y173761D01*
X69468Y173780D01*
Y173803D01*
X69463Y173858D01*
X69459Y173914D01*
X69445Y173960D01*
X69431Y173997D01*
X69417Y174029D01*
X69408Y174057D01*
X69398Y174071D01*
X69394Y174076D01*
X69366Y174117D01*
X69334Y174154D01*
X69301Y174182D01*
X69274Y174205D01*
X69246Y174219D01*
X69223Y174233D01*
X69209Y174242D01*
X69204D01*
X69154Y174256D01*
X69098Y174270D01*
X69038Y174279D01*
X68978Y174284D01*
X68927Y174288D01*
X68886D01*
X68853D01*
X68849D01*
X68844D01*
X67440D01*
Y174681D01*
X68862D01*
X68959D01*
X69038Y174676D01*
D02*
G37*
G36*
X69722Y172486D02*
X69754Y172412D01*
X69777Y172348D01*
X69796Y172288D01*
X69805Y172237D01*
X69810Y172195D01*
Y172163D01*
X69805Y172112D01*
X69796Y172066D01*
X69782Y172020D01*
X69768Y171983D01*
X69754Y171955D01*
X69740Y171927D01*
X69731Y171914D01*
X69726Y171909D01*
X69690Y171867D01*
X69643Y171826D01*
X69588Y171784D01*
X69537Y171747D01*
X69486Y171710D01*
X69445Y171687D01*
X69412Y171669D01*
X69408Y171664D01*
X69759D01*
Y171308D01*
X67440D01*
Y171701D01*
X68650D01*
X68742Y171706D01*
X68826Y171710D01*
X68904Y171719D01*
X68973Y171733D01*
X69029Y171747D01*
X69070Y171756D01*
X69098Y171761D01*
X69107Y171766D01*
X69158Y171784D01*
X69200Y171807D01*
X69237Y171830D01*
X69269Y171853D01*
X69292Y171877D01*
X69311Y171890D01*
X69320Y171904D01*
X69324Y171909D01*
X69352Y171946D01*
X69371Y171987D01*
X69385Y172029D01*
X69394Y172061D01*
X69398Y172094D01*
X69403Y172117D01*
Y172140D01*
X69398Y172191D01*
X69389Y172241D01*
X69375Y172292D01*
X69362Y172334D01*
X69348Y172371D01*
X69334Y172399D01*
X69324Y172417D01*
X69320Y172422D01*
X69680Y172565D01*
X69722Y172486D01*
D02*
G37*
G36*
X67490Y170805D02*
X67541Y170782D01*
X67587Y170763D01*
X67629Y170754D01*
X67666Y170740D01*
X67694Y170735D01*
X67712Y170731D01*
X67717D01*
X67749Y170726D01*
X67791Y170721D01*
X67837D01*
X67888Y170717D01*
X68003Y170712D01*
X68119D01*
X68230Y170708D01*
X68280D01*
X68322D01*
X68359D01*
X68387D01*
X68405D01*
X68410D01*
X68936D01*
X69024D01*
X69103Y170703D01*
X69163Y170698D01*
X69214D01*
X69251Y170694D01*
X69278Y170689D01*
X69292Y170685D01*
X69297D01*
X69357Y170671D01*
X69408Y170652D01*
X69449Y170634D01*
X69491Y170611D01*
X69519Y170592D01*
X69542Y170578D01*
X69555Y170569D01*
X69560Y170564D01*
X69597Y170528D01*
X69634Y170486D01*
X69662Y170440D01*
X69690Y170394D01*
X69708Y170352D01*
X69722Y170320D01*
X69731Y170297D01*
X69736Y170287D01*
X69759Y170213D01*
X69777Y170135D01*
X69791Y170056D01*
X69800Y169978D01*
X69805Y169908D01*
X69810Y169858D01*
Y169807D01*
X69805Y169696D01*
X69796Y169599D01*
X69782Y169506D01*
X69768Y169432D01*
X69754Y169368D01*
X69740Y169322D01*
X69736Y169303D01*
X69731Y169289D01*
X69726Y169285D01*
Y169280D01*
X69694Y169202D01*
X69652Y169132D01*
X69616Y169072D01*
X69579Y169021D01*
X69542Y168984D01*
X69514Y168957D01*
X69495Y168938D01*
X69491Y168934D01*
X69431Y168892D01*
X69366Y168855D01*
X69301Y168827D01*
X69241Y168804D01*
X69181Y168786D01*
X69140Y168772D01*
X69121Y168767D01*
X69107D01*
X69103Y168763D01*
X69098D01*
X69047Y169146D01*
X69130Y169174D01*
X69204Y169202D01*
X69264Y169234D01*
X69311Y169262D01*
X69348Y169289D01*
X69371Y169312D01*
X69385Y169331D01*
X69389Y169335D01*
X69421Y169391D01*
X69445Y169456D01*
X69463Y169525D01*
X69472Y169590D01*
X69482Y169654D01*
X69486Y169701D01*
Y169747D01*
X69482Y169853D01*
X69468Y169945D01*
X69445Y170019D01*
X69421Y170084D01*
X69394Y170130D01*
X69375Y170167D01*
X69357Y170190D01*
X69352Y170195D01*
X69311Y170232D01*
X69260Y170259D01*
X69204Y170283D01*
X69149Y170297D01*
X69098Y170306D01*
X69052Y170310D01*
X69024D01*
X69020D01*
X69015D01*
X69006D01*
X68987D01*
X68955D01*
X68927Y170306D01*
X68918D01*
X68913D01*
X68900Y170259D01*
X68886Y170209D01*
X68858Y170102D01*
X68835Y169982D01*
X68812Y169871D01*
X68802Y169816D01*
X68798Y169765D01*
X68789Y169719D01*
X68784Y169682D01*
X68779Y169650D01*
Y169627D01*
X68775Y169608D01*
Y169604D01*
X68765Y169520D01*
X68752Y169451D01*
X68742Y169391D01*
X68733Y169345D01*
X68729Y169308D01*
X68719Y169280D01*
X68715Y169262D01*
Y169257D01*
X68696Y169197D01*
X68678Y169146D01*
X68655Y169095D01*
X68636Y169054D01*
X68618Y169017D01*
X68599Y168994D01*
X68590Y168975D01*
X68585Y168971D01*
X68553Y168924D01*
X68516Y168887D01*
X68479Y168850D01*
X68442Y168823D01*
X68410Y168800D01*
X68382Y168781D01*
X68363Y168772D01*
X68359Y168767D01*
X68308Y168744D01*
X68253Y168726D01*
X68202Y168712D01*
X68151Y168703D01*
X68110Y168698D01*
X68077Y168693D01*
X68059D01*
X68049D01*
X67994Y168698D01*
X67948Y168703D01*
X67851Y168726D01*
X67772Y168758D01*
X67703Y168795D01*
X67647Y168832D01*
X67606Y168864D01*
X67583Y168887D01*
X67573Y168897D01*
X67514Y168980D01*
X67467Y169072D01*
X67435Y169174D01*
X67412Y169266D01*
X67398Y169349D01*
X67393Y169386D01*
Y169419D01*
X67389Y169446D01*
Y169483D01*
X67393Y169567D01*
X67403Y169650D01*
X67412Y169724D01*
X67426Y169788D01*
X67440Y169839D01*
X67453Y169881D01*
X67458Y169908D01*
X67463Y169918D01*
X67495Y169996D01*
X67537Y170070D01*
X67583Y170139D01*
X67624Y170209D01*
X67666Y170264D01*
X67698Y170306D01*
X67721Y170333D01*
X67731Y170338D01*
Y170343D01*
X67671Y170352D01*
X67615Y170361D01*
X67564Y170370D01*
X67523Y170384D01*
X67486Y170398D01*
X67463Y170407D01*
X67444Y170412D01*
X67440Y170417D01*
Y170828D01*
X67490Y170805D01*
D02*
G37*
G36*
X70637Y168051D02*
X68581Y167552D01*
X68437Y167515D01*
X68308Y167488D01*
X68188Y167460D01*
X68086Y167437D01*
X68040Y167423D01*
X67999Y167418D01*
X67966Y167409D01*
X67939Y167404D01*
X67915Y167395D01*
X67897D01*
X67888Y167391D01*
X67883D01*
X68086Y167358D01*
X68285Y167317D01*
X68474Y167275D01*
X68562Y167256D01*
X68650Y167233D01*
X68729Y167215D01*
X68798Y167196D01*
X68858Y167178D01*
X68913Y167164D01*
X68955Y167155D01*
X68987Y167146D01*
X69010Y167136D01*
X69015D01*
X70637Y166684D01*
Y166171D01*
X68474Y165566D01*
X68456Y165561D01*
X68428Y165552D01*
X68391Y165542D01*
X68350Y165533D01*
X68304Y165519D01*
X68253Y165510D01*
X68151Y165482D01*
X68049Y165459D01*
X68003Y165445D01*
X67966Y165436D01*
X67929Y165432D01*
X67906Y165422D01*
X67888Y165418D01*
X67883D01*
X68003Y165395D01*
X68123Y165372D01*
X68234Y165348D01*
X68331Y165325D01*
X68377Y165316D01*
X68419Y165307D01*
X68451Y165298D01*
X68484Y165293D01*
X68507Y165288D01*
X68525Y165284D01*
X68534Y165279D01*
X68539D01*
X70637Y164803D01*
Y164364D01*
X67440Y165201D01*
Y165644D01*
X69874Y166319D01*
X69934Y166337D01*
X69999Y166351D01*
X70064Y166369D01*
X70119Y166383D01*
X70170Y166397D01*
X70211Y166406D01*
X70239Y166411D01*
X70244Y166416D01*
X70249D01*
X70235Y166420D01*
X70211Y166425D01*
X70161Y166439D01*
X70101Y166457D01*
X70036Y166476D01*
X69976Y166490D01*
X69925Y166503D01*
X69902Y166508D01*
X69888Y166513D01*
X69879Y166517D01*
X69874D01*
X67440Y167187D01*
Y167603D01*
X70637Y168481D01*
Y168051D01*
D02*
G37*
G36*
X28693Y182147D02*
X28836Y182133D01*
X28966Y182110D01*
X29026Y182100D01*
X29077Y182087D01*
X29127Y182073D01*
X29169Y182064D01*
X29206Y182054D01*
X29238Y182041D01*
X29266Y182036D01*
X29285Y182027D01*
X29294Y182022D01*
X29298D01*
X29419Y181971D01*
X29525Y181911D01*
X29617Y181846D01*
X29696Y181786D01*
X29760Y181731D01*
X29807Y181685D01*
X29820Y181666D01*
X29834Y181652D01*
X29839Y181648D01*
X29844Y181643D01*
X29904Y181569D01*
X29950Y181491D01*
X29991Y181412D01*
X30024Y181338D01*
X30047Y181274D01*
X30061Y181223D01*
X30070Y181204D01*
Y181190D01*
X30075Y181181D01*
Y181176D01*
X30088Y181098D01*
X30102Y181006D01*
X30112Y180913D01*
X30116Y180821D01*
X30121Y180738D01*
Y179509D01*
X26924D01*
Y180659D01*
X26928Y180765D01*
X26933Y180862D01*
X26942Y180950D01*
X26951Y181024D01*
X26961Y181089D01*
X26965Y181135D01*
X26970Y181149D01*
X26974Y181163D01*
Y181172D01*
X26998Y181255D01*
X27025Y181329D01*
X27048Y181394D01*
X27076Y181449D01*
X27099Y181495D01*
X27118Y181528D01*
X27132Y181546D01*
X27136Y181555D01*
X27178Y181615D01*
X27229Y181666D01*
X27275Y181717D01*
X27321Y181759D01*
X27363Y181796D01*
X27395Y181823D01*
X27418Y181842D01*
X27427Y181846D01*
X27501Y181893D01*
X27580Y181939D01*
X27654Y181976D01*
X27728Y182003D01*
X27792Y182031D01*
X27843Y182050D01*
X27861Y182054D01*
X27875Y182059D01*
X27885Y182064D01*
X27889D01*
X28000Y182091D01*
X28111Y182114D01*
X28217Y182128D01*
X28319Y182142D01*
X28407Y182147D01*
X28444D01*
X28476Y182151D01*
X28499D01*
X28522D01*
X28532D01*
X28536D01*
X28693Y182147D01*
D02*
G37*
G36*
X30121Y178391D02*
X27608D01*
X30121Y176714D01*
Y176279D01*
X26924D01*
Y176686D01*
X29432D01*
X26924Y178358D01*
Y178797D01*
X30121D01*
Y178391D01*
D02*
G37*
G36*
X28555Y174302D02*
X28176D01*
Y175244D01*
X27575D01*
X27529Y175189D01*
X27487Y175124D01*
X27450Y175055D01*
X27418Y174990D01*
X27390Y174935D01*
X27367Y174884D01*
X27358Y174866D01*
X27353Y174856D01*
X27349Y174847D01*
Y174843D01*
X27316Y174746D01*
X27289Y174648D01*
X27270Y174561D01*
X27261Y174478D01*
X27252Y174408D01*
Y174381D01*
X27247Y174353D01*
Y174307D01*
X27252Y174191D01*
X27270Y174080D01*
X27293Y173979D01*
X27316Y173886D01*
X27344Y173812D01*
X27353Y173780D01*
X27363Y173757D01*
X27372Y173734D01*
X27381Y173720D01*
X27386Y173711D01*
Y173706D01*
X27446Y173609D01*
X27510Y173521D01*
X27580Y173447D01*
X27649Y173387D01*
X27714Y173336D01*
X27764Y173304D01*
X27783Y173290D01*
X27797Y173286D01*
X27806Y173276D01*
X27811D01*
X27926Y173230D01*
X28046Y173193D01*
X28166Y173170D01*
X28282Y173152D01*
X28333Y173147D01*
X28379Y173142D01*
X28425Y173138D01*
X28462D01*
X28490Y173133D01*
X28513D01*
X28527D01*
X28532D01*
X28661Y173138D01*
X28776Y173152D01*
X28887Y173170D01*
X28984Y173193D01*
X29026Y173202D01*
X29063Y173216D01*
X29095Y173225D01*
X29123Y173235D01*
X29146Y173244D01*
X29160Y173249D01*
X29169Y173253D01*
X29174D01*
X29238Y173286D01*
X29298Y173318D01*
X29354Y173350D01*
X29400Y173383D01*
X29437Y173410D01*
X29469Y173433D01*
X29488Y173452D01*
X29492Y173457D01*
X29543Y173507D01*
X29589Y173563D01*
X29626Y173623D01*
X29663Y173678D01*
X29686Y173724D01*
X29710Y173761D01*
X29719Y173789D01*
X29723Y173798D01*
X29756Y173882D01*
X29779Y173965D01*
X29793Y174053D01*
X29807Y174131D01*
X29811Y174200D01*
Y174228D01*
X29816Y174251D01*
Y174302D01*
X29811Y174390D01*
X29802Y174473D01*
X29788Y174547D01*
X29774Y174611D01*
X29756Y174667D01*
X29742Y174708D01*
X29733Y174732D01*
X29728Y174741D01*
X29696Y174810D01*
X29659Y174870D01*
X29622Y174926D01*
X29585Y174967D01*
X29553Y175000D01*
X29529Y175027D01*
X29511Y175041D01*
X29506Y175046D01*
X29451Y175087D01*
X29386Y175120D01*
X29326Y175152D01*
X29261Y175180D01*
X29206Y175198D01*
X29164Y175212D01*
X29146Y175217D01*
X29132Y175221D01*
X29127Y175226D01*
X29123D01*
X29225Y175609D01*
X29340Y175577D01*
X29442Y175536D01*
X29534Y175494D01*
X29608Y175457D01*
X29668Y175420D01*
X29710Y175392D01*
X29737Y175374D01*
X29746Y175365D01*
X29820Y175300D01*
X29880Y175231D01*
X29936Y175157D01*
X29982Y175087D01*
X30015Y175023D01*
X30042Y174972D01*
X30051Y174953D01*
X30056Y174940D01*
X30061Y174930D01*
Y174926D01*
X30098Y174819D01*
X30125Y174708D01*
X30149Y174607D01*
X30162Y174510D01*
X30172Y174422D01*
Y174385D01*
X30176Y174357D01*
Y174210D01*
X30167Y174126D01*
X30144Y173965D01*
X30130Y173891D01*
X30112Y173821D01*
X30098Y173757D01*
X30079Y173697D01*
X30061Y173641D01*
X30042Y173595D01*
X30024Y173554D01*
X30010Y173517D01*
X29996Y173489D01*
X29987Y173470D01*
X29982Y173457D01*
X29978Y173452D01*
X29936Y173387D01*
X29894Y173323D01*
X29797Y173212D01*
X29700Y173115D01*
X29599Y173036D01*
X29511Y172971D01*
X29474Y172948D01*
X29437Y172930D01*
X29409Y172911D01*
X29391Y172902D01*
X29377Y172898D01*
X29372Y172893D01*
X29220Y172828D01*
X29067Y172782D01*
X28920Y172745D01*
X28850Y172736D01*
X28786Y172722D01*
X28725Y172717D01*
X28675Y172708D01*
X28624Y172704D01*
X28582D01*
X28550Y172699D01*
X28527D01*
X28508D01*
X28504D01*
X28333Y172708D01*
X28171Y172731D01*
X28097Y172745D01*
X28028Y172759D01*
X27959Y172777D01*
X27898Y172796D01*
X27843Y172814D01*
X27797Y172833D01*
X27751Y172847D01*
X27718Y172861D01*
X27686Y172874D01*
X27667Y172884D01*
X27654Y172893D01*
X27649D01*
X27515Y172976D01*
X27400Y173068D01*
X27298Y173166D01*
X27215Y173258D01*
X27150Y173346D01*
X27127Y173378D01*
X27104Y173410D01*
X27090Y173438D01*
X27076Y173457D01*
X27071Y173470D01*
X27067Y173475D01*
X27030Y173549D01*
X27002Y173623D01*
X26951Y173771D01*
X26919Y173914D01*
X26891Y174048D01*
X26887Y174108D01*
X26877Y174163D01*
X26873Y174214D01*
Y174256D01*
X26868Y174288D01*
Y174334D01*
X26873Y174464D01*
X26887Y174588D01*
X26910Y174704D01*
X26933Y174806D01*
X26942Y174847D01*
X26951Y174889D01*
X26965Y174926D01*
X26974Y174958D01*
X26984Y174981D01*
X26988Y175000D01*
X26993Y175009D01*
Y175013D01*
X27044Y175138D01*
X27104Y175254D01*
X27169Y175365D01*
X27229Y175462D01*
X27256Y175503D01*
X27284Y175545D01*
X27307Y175577D01*
X27326Y175605D01*
X27344Y175628D01*
X27358Y175646D01*
X27363Y175656D01*
X27367Y175660D01*
X28555D01*
Y174302D01*
D02*
G37*
G36*
X18725Y182147D02*
X18868Y182133D01*
X18997Y182110D01*
X19058Y182101D01*
X19108Y182087D01*
X19159Y182073D01*
X19201Y182064D01*
X19238Y182054D01*
X19270Y182041D01*
X19298Y182036D01*
X19316Y182027D01*
X19326Y182022D01*
X19330D01*
X19450Y181971D01*
X19557Y181911D01*
X19649Y181846D01*
X19727Y181786D01*
X19792Y181731D01*
X19838Y181685D01*
X19852Y181666D01*
X19866Y181652D01*
X19871Y181648D01*
X19875Y181643D01*
X19935Y181569D01*
X19982Y181491D01*
X20023Y181412D01*
X20055Y181338D01*
X20079Y181274D01*
X20092Y181223D01*
X20102Y181204D01*
Y181190D01*
X20106Y181181D01*
Y181177D01*
X20120Y181098D01*
X20134Y181006D01*
X20143Y180913D01*
X20148Y180821D01*
X20153Y180738D01*
Y179509D01*
X16955D01*
Y180659D01*
X16960Y180765D01*
X16965Y180862D01*
X16974Y180950D01*
X16983Y181024D01*
X16992Y181089D01*
X16997Y181135D01*
X17002Y181149D01*
X17006Y181163D01*
Y181172D01*
X17029Y181255D01*
X17057Y181329D01*
X17080Y181394D01*
X17108Y181449D01*
X17131Y181495D01*
X17150Y181528D01*
X17163Y181546D01*
X17168Y181555D01*
X17210Y181615D01*
X17260Y181666D01*
X17307Y181717D01*
X17353Y181759D01*
X17394Y181796D01*
X17427Y181823D01*
X17450Y181842D01*
X17459Y181846D01*
X17533Y181893D01*
X17612Y181939D01*
X17685Y181976D01*
X17759Y182003D01*
X17824Y182031D01*
X17875Y182050D01*
X17893Y182054D01*
X17907Y182059D01*
X17916Y182064D01*
X17921D01*
X18032Y182091D01*
X18143Y182114D01*
X18249Y182128D01*
X18351Y182142D01*
X18439Y182147D01*
X18475D01*
X18508Y182151D01*
X18531D01*
X18554D01*
X18563D01*
X18568D01*
X18725Y182147D01*
D02*
G37*
G36*
X20153Y178391D02*
X17639D01*
X20153Y176714D01*
Y176279D01*
X16955D01*
Y176686D01*
X19464D01*
X16955Y178358D01*
Y178797D01*
X20153D01*
Y178391D01*
D02*
G37*
G36*
X18586Y174302D02*
X18207D01*
Y175244D01*
X17607D01*
X17561Y175189D01*
X17519Y175124D01*
X17482Y175055D01*
X17450Y174990D01*
X17422Y174935D01*
X17399Y174884D01*
X17390Y174866D01*
X17385Y174856D01*
X17380Y174847D01*
Y174843D01*
X17348Y174746D01*
X17320Y174648D01*
X17302Y174561D01*
X17293Y174478D01*
X17283Y174408D01*
Y174381D01*
X17279Y174353D01*
Y174307D01*
X17283Y174191D01*
X17302Y174080D01*
X17325Y173979D01*
X17348Y173886D01*
X17376Y173812D01*
X17385Y173780D01*
X17394Y173757D01*
X17404Y173734D01*
X17413Y173720D01*
X17417Y173711D01*
Y173706D01*
X17478Y173609D01*
X17542Y173521D01*
X17612Y173447D01*
X17681Y173387D01*
X17745Y173336D01*
X17796Y173304D01*
X17815Y173290D01*
X17829Y173286D01*
X17838Y173276D01*
X17842D01*
X17958Y173230D01*
X18078Y173193D01*
X18198Y173170D01*
X18314Y173152D01*
X18364Y173147D01*
X18411Y173142D01*
X18457Y173138D01*
X18494D01*
X18522Y173133D01*
X18545D01*
X18559D01*
X18563D01*
X18692Y173138D01*
X18808Y173152D01*
X18919Y173170D01*
X19016Y173193D01*
X19058Y173202D01*
X19094Y173216D01*
X19127Y173225D01*
X19155Y173235D01*
X19178Y173244D01*
X19192Y173249D01*
X19201Y173253D01*
X19205D01*
X19270Y173286D01*
X19330Y173318D01*
X19386Y173350D01*
X19432Y173383D01*
X19469Y173410D01*
X19501Y173433D01*
X19520Y173452D01*
X19524Y173457D01*
X19575Y173507D01*
X19621Y173563D01*
X19658Y173623D01*
X19695Y173678D01*
X19718Y173724D01*
X19741Y173761D01*
X19750Y173789D01*
X19755Y173798D01*
X19787Y173882D01*
X19811Y173965D01*
X19824Y174053D01*
X19838Y174131D01*
X19843Y174200D01*
Y174228D01*
X19848Y174251D01*
Y174302D01*
X19843Y174390D01*
X19834Y174473D01*
X19820Y174547D01*
X19806Y174611D01*
X19787Y174667D01*
X19774Y174709D01*
X19764Y174732D01*
X19760Y174741D01*
X19727Y174810D01*
X19691Y174870D01*
X19654Y174926D01*
X19617Y174967D01*
X19584Y175000D01*
X19561Y175027D01*
X19543Y175041D01*
X19538Y175046D01*
X19483Y175087D01*
X19418Y175120D01*
X19358Y175152D01*
X19293Y175180D01*
X19238Y175198D01*
X19196Y175212D01*
X19178Y175217D01*
X19164Y175221D01*
X19159Y175226D01*
X19155D01*
X19256Y175610D01*
X19372Y175577D01*
X19473Y175536D01*
X19566Y175494D01*
X19640Y175457D01*
X19700Y175420D01*
X19741Y175392D01*
X19769Y175374D01*
X19778Y175365D01*
X19852Y175300D01*
X19912Y175231D01*
X19968Y175157D01*
X20014Y175087D01*
X20046Y175023D01*
X20074Y174972D01*
X20083Y174953D01*
X20088Y174940D01*
X20092Y174930D01*
Y174926D01*
X20129Y174819D01*
X20157Y174709D01*
X20180Y174607D01*
X20194Y174510D01*
X20203Y174422D01*
Y174385D01*
X20208Y174357D01*
Y174210D01*
X20199Y174126D01*
X20176Y173965D01*
X20162Y173891D01*
X20143Y173821D01*
X20129Y173757D01*
X20111Y173697D01*
X20092Y173641D01*
X20074Y173595D01*
X20055Y173554D01*
X20042Y173517D01*
X20028Y173489D01*
X20019Y173470D01*
X20014Y173457D01*
X20009Y173452D01*
X19968Y173387D01*
X19926Y173323D01*
X19829Y173212D01*
X19732Y173115D01*
X19630Y173036D01*
X19543Y172971D01*
X19506Y172948D01*
X19469Y172930D01*
X19441Y172911D01*
X19422Y172902D01*
X19409Y172898D01*
X19404Y172893D01*
X19252Y172828D01*
X19099Y172782D01*
X18951Y172745D01*
X18882Y172736D01*
X18817Y172722D01*
X18757Y172717D01*
X18706Y172708D01*
X18656Y172704D01*
X18614D01*
X18582Y172699D01*
X18559D01*
X18540D01*
X18535D01*
X18364Y172708D01*
X18203Y172731D01*
X18129Y172745D01*
X18060Y172759D01*
X17990Y172777D01*
X17930Y172796D01*
X17875Y172814D01*
X17829Y172833D01*
X17782Y172847D01*
X17750Y172861D01*
X17718Y172874D01*
X17699Y172884D01*
X17685Y172893D01*
X17681D01*
X17547Y172976D01*
X17431Y173068D01*
X17330Y173166D01*
X17246Y173258D01*
X17182Y173346D01*
X17159Y173378D01*
X17136Y173410D01*
X17122Y173438D01*
X17108Y173457D01*
X17103Y173470D01*
X17099Y173475D01*
X17062Y173549D01*
X17034Y173623D01*
X16983Y173771D01*
X16951Y173914D01*
X16923Y174048D01*
X16918Y174108D01*
X16909Y174163D01*
X16905Y174214D01*
Y174256D01*
X16900Y174288D01*
Y174334D01*
X16905Y174464D01*
X16918Y174588D01*
X16942Y174704D01*
X16965Y174806D01*
X16974Y174847D01*
X16983Y174889D01*
X16997Y174926D01*
X17006Y174958D01*
X17016Y174981D01*
X17020Y175000D01*
X17025Y175009D01*
Y175013D01*
X17076Y175138D01*
X17136Y175254D01*
X17200Y175365D01*
X17260Y175462D01*
X17288Y175503D01*
X17316Y175545D01*
X17339Y175577D01*
X17357Y175605D01*
X17376Y175628D01*
X17390Y175646D01*
X17394Y175656D01*
X17399Y175660D01*
X18586D01*
Y174302D01*
D02*
G37*
G36*
X59058Y182147D02*
X59132D01*
X59206Y182142D01*
X59271Y182133D01*
X59336Y182128D01*
X59391Y182124D01*
X59442Y182114D01*
X59488Y182110D01*
X59530Y182101D01*
X59562Y182096D01*
X59590Y182091D01*
X59613Y182087D01*
X59627Y182082D01*
X59636Y182078D01*
X59641D01*
X59742Y182050D01*
X59835Y182017D01*
X59913Y181980D01*
X59982Y181953D01*
X60043Y181920D01*
X60084Y181902D01*
X60107Y181883D01*
X60116Y181879D01*
X60186Y181828D01*
X60246Y181777D01*
X60297Y181722D01*
X60343Y181671D01*
X60375Y181625D01*
X60398Y181588D01*
X60412Y181565D01*
X60417Y181560D01*
Y181555D01*
X60454Y181482D01*
X60477Y181403D01*
X60495Y181329D01*
X60509Y181260D01*
X60518Y181200D01*
X60523Y181149D01*
Y181107D01*
X60514Y180982D01*
X60495Y180867D01*
X60463Y180770D01*
X60431Y180687D01*
X60394Y180617D01*
X60380Y180590D01*
X60361Y180567D01*
X60352Y180548D01*
X60343Y180534D01*
X60334Y180530D01*
Y180525D01*
X60260Y180442D01*
X60172Y180373D01*
X60084Y180313D01*
X60001Y180266D01*
X59922Y180229D01*
X59890Y180211D01*
X59858Y180202D01*
X59835Y180192D01*
X59816Y180183D01*
X59807Y180179D01*
X59802D01*
X59733Y180160D01*
X59664Y180142D01*
X59511Y180114D01*
X59359Y180091D01*
X59215Y180077D01*
X59146Y180072D01*
X59086Y180068D01*
X59031D01*
X58980Y180063D01*
X58943D01*
X58911D01*
X58892D01*
X58887D01*
X58726Y180068D01*
X58573Y180077D01*
X58435Y180091D01*
X58305Y180114D01*
X58185Y180137D01*
X58079Y180165D01*
X57982Y180192D01*
X57899Y180220D01*
X57825Y180248D01*
X57760Y180280D01*
X57705Y180303D01*
X57663Y180326D01*
X57626Y180350D01*
X57603Y180363D01*
X57589Y180373D01*
X57585Y180377D01*
X57529Y180428D01*
X57478Y180484D01*
X57432Y180544D01*
X57395Y180604D01*
X57363Y180664D01*
X57335Y180724D01*
X57317Y180784D01*
X57298Y180839D01*
X57284Y180895D01*
X57275Y180946D01*
X57266Y180992D01*
X57261Y181029D01*
X57257Y181061D01*
Y181107D01*
X57266Y181232D01*
X57284Y181348D01*
X57317Y181445D01*
X57349Y181528D01*
X57381Y181597D01*
X57400Y181620D01*
X57414Y181643D01*
X57423Y181662D01*
X57432Y181676D01*
X57441Y181680D01*
Y181685D01*
X57520Y181768D01*
X57603Y181837D01*
X57696Y181897D01*
X57779Y181944D01*
X57857Y181980D01*
X57890Y181999D01*
X57922Y182008D01*
X57945Y182017D01*
X57964Y182027D01*
X57973Y182031D01*
X57977D01*
X58047Y182054D01*
X58116Y182073D01*
X58264Y182101D01*
X58416Y182124D01*
X58564Y182138D01*
X58629Y182142D01*
X58689Y182147D01*
X58744D01*
X58795Y182151D01*
X58832D01*
X58864D01*
X58883D01*
X58887D01*
X58975D01*
X59058Y182147D01*
D02*
G37*
G36*
X58985Y178649D02*
X60509Y179758D01*
Y179296D01*
X59659Y178659D01*
X59590Y178603D01*
X59525Y178557D01*
X59460Y178511D01*
X59410Y178474D01*
X59363Y178442D01*
X59326Y178418D01*
X59308Y178405D01*
X59299Y178400D01*
X59354Y178368D01*
X59414Y178331D01*
X59479Y178289D01*
X59544Y178247D01*
X59599Y178206D01*
X59645Y178178D01*
X59664Y178164D01*
X59677Y178155D01*
X59682Y178146D01*
X59687D01*
X60509Y177564D01*
Y177060D01*
X58966Y178150D01*
X57312Y176917D01*
Y177425D01*
X58421Y178234D01*
X58449Y178252D01*
X58481Y178275D01*
X58555Y178326D01*
X58592Y178349D01*
X58620Y178368D01*
X58638Y178382D01*
X58643Y178386D01*
X58573Y178432D01*
X58509Y178474D01*
X58486Y178492D01*
X58467Y178502D01*
X58453Y178511D01*
X58449Y178515D01*
X57312Y179324D01*
Y179846D01*
X58985Y178649D01*
D02*
G37*
G36*
X57691Y174741D02*
X57917Y174930D01*
X60130Y176737D01*
X60509D01*
Y174441D01*
X60130D01*
Y176228D01*
X60066Y176169D01*
X60001Y176108D01*
X59936Y176053D01*
X59876Y176002D01*
X59825Y175961D01*
X59784Y175928D01*
X59756Y175905D01*
X59751Y175896D01*
X59747D01*
X57705Y174256D01*
X57312D01*
Y176788D01*
X57691D01*
Y174741D01*
D02*
G37*
G36*
X47559Y180576D02*
X47637Y180631D01*
X47670Y180659D01*
X47702Y180682D01*
X47730Y180705D01*
X47748Y180724D01*
X47762Y180738D01*
X47767Y180742D01*
X47790Y180765D01*
X47813Y180793D01*
X47873Y180858D01*
X47942Y180932D01*
X48011Y181010D01*
X48072Y181084D01*
X48099Y181116D01*
X48127Y181144D01*
X48145Y181167D01*
X48159Y181186D01*
X48169Y181195D01*
X48173Y181200D01*
X48238Y181274D01*
X48298Y181348D01*
X48358Y181412D01*
X48409Y181472D01*
X48460Y181528D01*
X48506Y181574D01*
X48547Y181620D01*
X48584Y181657D01*
X48621Y181694D01*
X48649Y181722D01*
X48672Y181745D01*
X48695Y181768D01*
X48723Y181791D01*
X48732Y181800D01*
X48811Y181865D01*
X48880Y181920D01*
X48949Y181967D01*
X49005Y182003D01*
X49055Y182031D01*
X49093Y182050D01*
X49116Y182059D01*
X49125Y182064D01*
X49194Y182091D01*
X49263Y182110D01*
X49328Y182128D01*
X49384Y182138D01*
X49434Y182142D01*
X49471Y182147D01*
X49494D01*
X49504D01*
X49573Y182142D01*
X49638Y182133D01*
X49702Y182124D01*
X49758Y182105D01*
X49869Y182059D01*
X49956Y182013D01*
X49998Y181985D01*
X50030Y181962D01*
X50063Y181939D01*
X50086Y181916D01*
X50104Y181897D01*
X50123Y181888D01*
X50127Y181879D01*
X50132Y181874D01*
X50178Y181823D01*
X50220Y181768D01*
X50252Y181708D01*
X50280Y181648D01*
X50326Y181528D01*
X50358Y181408D01*
X50368Y181357D01*
X50377Y181306D01*
X50381Y181260D01*
X50386Y181223D01*
X50391Y181190D01*
Y181144D01*
X50386Y181061D01*
X50381Y180982D01*
X50368Y180909D01*
X50354Y180839D01*
X50335Y180775D01*
X50317Y180715D01*
X50294Y180659D01*
X50271Y180608D01*
X50248Y180562D01*
X50224Y180525D01*
X50206Y180493D01*
X50187Y180465D01*
X50174Y180442D01*
X50160Y180428D01*
X50155Y180419D01*
X50151Y180414D01*
X50104Y180368D01*
X50053Y180326D01*
X49998Y180285D01*
X49943Y180253D01*
X49832Y180197D01*
X49721Y180160D01*
X49670Y180146D01*
X49619Y180132D01*
X49578Y180123D01*
X49541Y180114D01*
X49508Y180109D01*
X49485D01*
X49471Y180105D01*
X49467D01*
X49425Y180507D01*
X49531Y180516D01*
X49624Y180534D01*
X49707Y180562D01*
X49772Y180594D01*
X49827Y180622D01*
X49864Y180650D01*
X49887Y180668D01*
X49896Y180678D01*
X49952Y180747D01*
X49993Y180821D01*
X50026Y180899D01*
X50044Y180969D01*
X50058Y181033D01*
X50063Y181089D01*
X50067Y181107D01*
Y181135D01*
X50063Y181232D01*
X50044Y181320D01*
X50016Y181394D01*
X49989Y181458D01*
X49956Y181509D01*
X49933Y181542D01*
X49915Y181565D01*
X49906Y181574D01*
X49841Y181629D01*
X49776Y181671D01*
X49712Y181703D01*
X49647Y181722D01*
X49596Y181736D01*
X49550Y181740D01*
X49522Y181745D01*
X49518D01*
X49513D01*
X49430Y181736D01*
X49342Y181717D01*
X49263Y181685D01*
X49189Y181652D01*
X49130Y181615D01*
X49079Y181583D01*
X49060Y181574D01*
X49046Y181565D01*
X49042Y181555D01*
X49037D01*
X48986Y181518D01*
X48935Y181472D01*
X48880Y181421D01*
X48825Y181366D01*
X48714Y181251D01*
X48603Y181135D01*
X48552Y181075D01*
X48506Y181024D01*
X48464Y180973D01*
X48427Y180932D01*
X48399Y180899D01*
X48376Y180872D01*
X48362Y180853D01*
X48358Y180849D01*
X48261Y180733D01*
X48169Y180627D01*
X48085Y180539D01*
X48016Y180470D01*
X47956Y180410D01*
X47914Y180368D01*
X47887Y180345D01*
X47882Y180336D01*
X47877D01*
X47799Y180271D01*
X47725Y180220D01*
X47651Y180174D01*
X47586Y180137D01*
X47531Y180109D01*
X47489Y180091D01*
X47462Y180082D01*
X47457Y180077D01*
X47452D01*
X47402Y180059D01*
X47355Y180049D01*
X47309Y180040D01*
X47268Y180035D01*
X47231Y180031D01*
X47203D01*
X47184D01*
X47180D01*
Y182151D01*
X47559D01*
Y180576D01*
D02*
G37*
G36*
X48852Y178673D02*
X50377Y179781D01*
Y179319D01*
X49527Y178682D01*
X49457Y178626D01*
X49393Y178580D01*
X49328Y178534D01*
X49277Y178497D01*
X49231Y178465D01*
X49194Y178442D01*
X49176Y178428D01*
X49166Y178423D01*
X49222Y178391D01*
X49282Y178354D01*
X49347Y178312D01*
X49411Y178271D01*
X49467Y178229D01*
X49513Y178201D01*
X49531Y178187D01*
X49545Y178178D01*
X49550Y178169D01*
X49554D01*
X50377Y177587D01*
Y177083D01*
X48834Y178174D01*
X47180Y176940D01*
Y177448D01*
X48289Y178257D01*
X48316Y178275D01*
X48349Y178298D01*
X48423Y178349D01*
X48460Y178372D01*
X48487Y178391D01*
X48506Y178405D01*
X48510Y178409D01*
X48441Y178455D01*
X48376Y178497D01*
X48353Y178515D01*
X48335Y178525D01*
X48321Y178534D01*
X48316Y178539D01*
X47180Y179347D01*
Y179869D01*
X48852Y178673D01*
D02*
G37*
G36*
X47559Y174764D02*
X47785Y174953D01*
X49998Y176760D01*
X50377D01*
Y174464D01*
X49998D01*
Y176252D01*
X49933Y176192D01*
X49869Y176131D01*
X49804Y176076D01*
X49744Y176025D01*
X49693Y175984D01*
X49652Y175951D01*
X49624Y175928D01*
X49619Y175919D01*
X49615D01*
X47572Y174279D01*
X47180D01*
Y176811D01*
X47559D01*
Y174764D01*
D02*
G37*
G36*
X40281Y181897D02*
X40202Y181851D01*
X40128Y181800D01*
X40054Y181740D01*
X39990Y181685D01*
X39934Y181629D01*
X39888Y181588D01*
X39874Y181569D01*
X39860Y181555D01*
X39856Y181551D01*
X39851Y181546D01*
X39772Y181449D01*
X39698Y181352D01*
X39634Y181260D01*
X39583Y181167D01*
X39537Y181089D01*
X39518Y181056D01*
X39505Y181029D01*
X39491Y181006D01*
X39486Y180987D01*
X39477Y180978D01*
Y180973D01*
X39098D01*
X39126Y181043D01*
X39158Y181112D01*
X39190Y181181D01*
X39223Y181246D01*
X39250Y181301D01*
X39274Y181348D01*
X39292Y181375D01*
X39297Y181380D01*
Y181385D01*
X39347Y181468D01*
X39398Y181542D01*
X39444Y181606D01*
X39486Y181657D01*
X39518Y181703D01*
X39546Y181731D01*
X39564Y181754D01*
X39569Y181759D01*
X37070D01*
Y182151D01*
X40281D01*
Y181897D01*
D02*
G37*
G36*
X38742Y179259D02*
X40267Y180368D01*
Y179906D01*
X39417Y179269D01*
X39347Y179213D01*
X39283Y179167D01*
X39218Y179121D01*
X39167Y179084D01*
X39121Y179051D01*
X39084Y179028D01*
X39066Y179014D01*
X39056Y179010D01*
X39112Y178977D01*
X39172Y178940D01*
X39237Y178899D01*
X39301Y178857D01*
X39357Y178816D01*
X39403Y178788D01*
X39421Y178774D01*
X39435Y178765D01*
X39440Y178756D01*
X39444D01*
X40267Y178174D01*
Y177670D01*
X38724Y178760D01*
X37070Y177527D01*
Y178035D01*
X38179Y178843D01*
X38206Y178862D01*
X38239Y178885D01*
X38313Y178936D01*
X38350Y178959D01*
X38377Y178977D01*
X38396Y178991D01*
X38400Y178996D01*
X38331Y179042D01*
X38266Y179084D01*
X38243Y179102D01*
X38225Y179111D01*
X38211Y179121D01*
X38206Y179125D01*
X37070Y179934D01*
Y180456D01*
X38742Y179259D01*
D02*
G37*
G36*
X37449Y175351D02*
X37675Y175540D01*
X39888Y177347D01*
X40267D01*
Y175050D01*
X39888D01*
Y176838D01*
X39823Y176778D01*
X39759Y176718D01*
X39694Y176663D01*
X39634Y176612D01*
X39583Y176570D01*
X39541Y176538D01*
X39514Y176515D01*
X39509Y176506D01*
X39505D01*
X37462Y174866D01*
X37070D01*
Y177397D01*
X37449D01*
Y175351D01*
D02*
G37*
%LPC*%
G36*
X119538Y204005D02*
X119515D01*
X119511D01*
X119506D01*
X119409Y203996D01*
X119326Y203977D01*
X119252Y203950D01*
X119192Y203917D01*
X119146Y203885D01*
X119109Y203857D01*
X119090Y203839D01*
X119081Y203830D01*
X119053Y203797D01*
X119030Y203756D01*
X118993Y203668D01*
X118965Y203571D01*
X118947Y203474D01*
X118938Y203386D01*
X118933Y203349D01*
Y203317D01*
X118929Y203284D01*
Y202425D01*
X120070D01*
Y203340D01*
X120065Y203423D01*
X120060Y203492D01*
X120056Y203548D01*
X120046Y203585D01*
X120042Y203612D01*
X120037Y203631D01*
Y203636D01*
X120014Y203696D01*
X119986Y203746D01*
X119959Y203793D01*
X119926Y203834D01*
X119894Y203862D01*
X119871Y203885D01*
X119852Y203899D01*
X119848Y203903D01*
X119792Y203936D01*
X119737Y203963D01*
X119677Y203982D01*
X119626Y203991D01*
X119580Y204000D01*
X119538Y204005D01*
D02*
G37*
G36*
X108978Y210228D02*
X108936D01*
X108913D01*
X108909D01*
X108904D01*
X108761D01*
X108631Y210219D01*
X108516Y210210D01*
X108405Y210201D01*
X108313Y210187D01*
X108225Y210168D01*
X108151Y210150D01*
X108082Y210136D01*
X108026Y210117D01*
X107980Y210099D01*
X107938Y210085D01*
X107906Y210067D01*
X107883Y210057D01*
X107869Y210048D01*
X107860Y210039D01*
X107855D01*
X107809Y210002D01*
X107772Y209965D01*
X107735Y209928D01*
X107707Y209891D01*
X107661Y209812D01*
X107629Y209743D01*
X107610Y209678D01*
X107601Y209632D01*
X107597Y209614D01*
Y209586D01*
X107601Y209535D01*
X107606Y209489D01*
X107638Y209401D01*
X107680Y209323D01*
X107726Y209253D01*
X107772Y209203D01*
X107814Y209161D01*
X107846Y209138D01*
X107851Y209129D01*
X107855D01*
X107911Y209096D01*
X107975Y209069D01*
X108049Y209041D01*
X108128Y209022D01*
X108211Y209004D01*
X108299Y208990D01*
X108479Y208967D01*
X108562Y208958D01*
X108641Y208953D01*
X108715Y208948D01*
X108775D01*
X108830Y208944D01*
X108872D01*
X108895D01*
X108904D01*
X109047Y208948D01*
X109177Y208953D01*
X109297Y208962D01*
X109408Y208976D01*
X109505Y208990D01*
X109592Y209009D01*
X109671Y209027D01*
X109740Y209046D01*
X109800Y209064D01*
X109851Y209078D01*
X109893Y209096D01*
X109930Y209110D01*
X109953Y209124D01*
X109971Y209133D01*
X109980Y209142D01*
X109985D01*
X110027Y209175D01*
X110064Y209207D01*
X110091Y209244D01*
X110119Y209281D01*
X110161Y209355D01*
X110188Y209424D01*
X110202Y209484D01*
X110211Y209535D01*
X110216Y209554D01*
Y209581D01*
X110211Y209632D01*
X110207Y209683D01*
X110193Y209729D01*
X110175Y209771D01*
X110133Y209849D01*
X110087Y209919D01*
X110036Y209969D01*
X109994Y210011D01*
X109976Y210025D01*
X109962Y210034D01*
X109957Y210043D01*
X109953D01*
X109897Y210076D01*
X109833Y210104D01*
X109759Y210131D01*
X109680Y210150D01*
X109597Y210168D01*
X109509Y210182D01*
X109334Y210205D01*
X109246Y210214D01*
X109167Y210219D01*
X109093Y210224D01*
X109033D01*
X108978Y210228D01*
D02*
G37*
G36*
X109616Y204005D02*
X109592D01*
X109588D01*
X109583D01*
X109486Y203996D01*
X109403Y203977D01*
X109329Y203950D01*
X109269Y203917D01*
X109223Y203885D01*
X109186Y203857D01*
X109167Y203839D01*
X109158Y203830D01*
X109130Y203797D01*
X109107Y203756D01*
X109070Y203668D01*
X109043Y203571D01*
X109024Y203474D01*
X109015Y203386D01*
X109010Y203349D01*
Y203317D01*
X109006Y203284D01*
Y202425D01*
X110147D01*
Y203340D01*
X110142Y203423D01*
X110137Y203492D01*
X110133Y203548D01*
X110124Y203585D01*
X110119Y203612D01*
X110114Y203631D01*
Y203636D01*
X110091Y203696D01*
X110064Y203746D01*
X110036Y203793D01*
X110003Y203834D01*
X109971Y203862D01*
X109948Y203885D01*
X109930Y203899D01*
X109925Y203903D01*
X109870Y203936D01*
X109814Y203963D01*
X109754Y203982D01*
X109703Y203991D01*
X109657Y204000D01*
X109616Y204005D01*
D02*
G37*
G36*
X98979Y208870D02*
X98951D01*
X98932D01*
X98918D01*
X98914D01*
X98789Y208865D01*
X98674Y208856D01*
X98567Y208838D01*
X98466Y208810D01*
X98378Y208782D01*
X98295Y208750D01*
X98216Y208717D01*
X98147Y208685D01*
X98087Y208648D01*
X98036Y208616D01*
X97995Y208583D01*
X97957Y208556D01*
X97930Y208533D01*
X97907Y208514D01*
X97897Y208500D01*
X97893Y208496D01*
X97967Y208399D01*
X98027Y208302D01*
X98078Y208200D01*
X98124Y208103D01*
X98156Y208020D01*
X98170Y207983D01*
X98179Y207951D01*
X98189Y207927D01*
X98193Y207909D01*
X98198Y207895D01*
Y207891D01*
X97893Y207784D01*
X97870Y207867D01*
X97842Y207946D01*
X97810Y208015D01*
X97782Y208080D01*
X97754Y208131D01*
X97731Y208172D01*
X97713Y208195D01*
X97708Y208205D01*
X97680Y208131D01*
X97662Y208052D01*
X97643Y207983D01*
X97634Y207914D01*
X97629Y207858D01*
X97625Y207817D01*
Y207775D01*
X97629Y207687D01*
X97639Y207604D01*
X97657Y207525D01*
X97676Y207447D01*
X97703Y207378D01*
X97731Y207313D01*
X97759Y207253D01*
X97791Y207202D01*
X97824Y207151D01*
X97851Y207110D01*
X97879Y207073D01*
X97907Y207040D01*
X97925Y207017D01*
X97944Y206999D01*
X97953Y206990D01*
X97957Y206985D01*
X98022Y206929D01*
X98096Y206883D01*
X98170Y206842D01*
X98249Y206809D01*
X98327Y206777D01*
X98406Y206754D01*
X98563Y206717D01*
X98632Y206708D01*
X98701Y206698D01*
X98761Y206689D01*
X98812Y206685D01*
X98854Y206680D01*
X98886D01*
X98905D01*
X98914D01*
X99029Y206685D01*
X99140Y206694D01*
X99242Y206708D01*
X99334Y206731D01*
X99422Y206754D01*
X99501Y206777D01*
X99575Y206805D01*
X99639Y206837D01*
X99695Y206865D01*
X99745Y206893D01*
X99787Y206916D01*
X99819Y206943D01*
X99847Y206962D01*
X99866Y206976D01*
X99875Y206985D01*
X99879Y206990D01*
X99940Y207050D01*
X99986Y207114D01*
X100032Y207179D01*
X100069Y207244D01*
X100101Y207313D01*
X100129Y207378D01*
X100147Y207438D01*
X100166Y207502D01*
X100180Y207558D01*
X100189Y207609D01*
X100198Y207655D01*
X100203Y207697D01*
X100207Y207729D01*
Y207775D01*
X100203Y207891D01*
X100184Y208001D01*
X100157Y208098D01*
X100129Y208182D01*
X100097Y208251D01*
X100083Y208279D01*
X100074Y208302D01*
X100060Y208325D01*
X100055Y208339D01*
X100046Y208343D01*
Y208348D01*
X99981Y208436D01*
X99907Y208514D01*
X99833Y208583D01*
X99759Y208639D01*
X99695Y208681D01*
X99639Y208713D01*
X99621Y208722D01*
X99607Y208731D01*
X99598Y208736D01*
X99593D01*
X99482Y208782D01*
X99367Y208815D01*
X99251Y208838D01*
X99145Y208852D01*
X99099Y208861D01*
X99052Y208865D01*
X99015D01*
X98979Y208870D01*
D02*
G37*
G36*
X99648Y205299D02*
X99644D01*
X99639D01*
X99584Y205294D01*
X99528Y205285D01*
X99482Y205271D01*
X99440Y205257D01*
X99404Y205239D01*
X99376Y205225D01*
X99357Y205216D01*
X99353Y205211D01*
X99306Y205178D01*
X99265Y205137D01*
X99233Y205095D01*
X99205Y205054D01*
X99186Y205017D01*
X99173Y204989D01*
X99163Y204971D01*
X99159Y204961D01*
X99140Y204897D01*
X99126Y204823D01*
X99117Y204749D01*
X99112Y204675D01*
X99108Y204610D01*
X99103Y204555D01*
Y203603D01*
X100161D01*
Y204610D01*
X100157Y204735D01*
X100138Y204841D01*
X100115Y204934D01*
X100087Y205003D01*
X100060Y205063D01*
X100037Y205100D01*
X100018Y205123D01*
X100013Y205132D01*
X99953Y205188D01*
X99893Y205229D01*
X99829Y205257D01*
X99773Y205280D01*
X99718Y205289D01*
X99676Y205294D01*
X99648Y205299D01*
D02*
G37*
G36*
X138514Y181717D02*
X138486D01*
X138468D01*
X138454D01*
X138449D01*
X138338Y181712D01*
X138232Y181703D01*
X138130Y181689D01*
X138038Y181671D01*
X137955Y181643D01*
X137876Y181620D01*
X137803Y181592D01*
X137738Y181565D01*
X137682Y181532D01*
X137632Y181505D01*
X137590Y181482D01*
X137558Y181458D01*
X137530Y181435D01*
X137507Y181421D01*
X137498Y181412D01*
X137493Y181407D01*
X137433Y181348D01*
X137382Y181283D01*
X137340Y181218D01*
X137299Y181153D01*
X137267Y181089D01*
X137243Y181019D01*
X137220Y180959D01*
X137202Y180895D01*
X137188Y180839D01*
X137179Y180784D01*
X137170Y180738D01*
X137165Y180696D01*
Y180664D01*
X137160Y180641D01*
Y180617D01*
X137165Y180530D01*
X137174Y180447D01*
X137193Y180373D01*
X137211Y180299D01*
X137239Y180229D01*
X137267Y180165D01*
X137294Y180105D01*
X137327Y180049D01*
X137359Y180003D01*
X137387Y179962D01*
X137414Y179924D01*
X137442Y179892D01*
X137461Y179869D01*
X137479Y179851D01*
X137488Y179841D01*
X137493Y179837D01*
X137558Y179781D01*
X137627Y179735D01*
X137701Y179693D01*
X137775Y179657D01*
X137853Y179629D01*
X137927Y179601D01*
X138075Y179564D01*
X138140Y179555D01*
X138204Y179546D01*
X138260Y179536D01*
X138306Y179532D01*
X138348Y179527D01*
X138380D01*
X138399D01*
X138403D01*
X138532Y179532D01*
X138653Y179541D01*
X138768Y179555D01*
X138870Y179578D01*
X138962Y179601D01*
X139045Y179629D01*
X139124Y179661D01*
X139189Y179689D01*
X139249Y179721D01*
X139299Y179749D01*
X139341Y179777D01*
X139373Y179800D01*
X139401Y179823D01*
X139419Y179837D01*
X139429Y179846D01*
X139433Y179851D01*
X139489Y179911D01*
X139535Y179975D01*
X139577Y180040D01*
X139614Y180109D01*
X139641Y180174D01*
X139669Y180239D01*
X139706Y180359D01*
X139715Y180414D01*
X139724Y180465D01*
X139734Y180507D01*
X139738Y180548D01*
X139743Y180581D01*
Y180622D01*
X139738Y180738D01*
X139720Y180849D01*
X139692Y180946D01*
X139664Y181029D01*
X139632Y181098D01*
X139618Y181126D01*
X139609Y181149D01*
X139595Y181172D01*
X139591Y181186D01*
X139581Y181190D01*
Y181195D01*
X139516Y181283D01*
X139443Y181361D01*
X139369Y181431D01*
X139295Y181486D01*
X139230Y181528D01*
X139175Y181560D01*
X139156Y181569D01*
X139142Y181579D01*
X139133Y181583D01*
X139128D01*
X139018Y181629D01*
X138898Y181662D01*
X138787Y181685D01*
X138680Y181699D01*
X138629Y181708D01*
X138588Y181712D01*
X138546D01*
X138514Y181717D01*
D02*
G37*
G36*
X128491Y177698D02*
X128463D01*
X128445D01*
X128431D01*
X128426D01*
X128315Y177693D01*
X128209Y177684D01*
X128107Y177670D01*
X128015Y177652D01*
X127932Y177624D01*
X127853Y177601D01*
X127779Y177573D01*
X127715Y177545D01*
X127659Y177513D01*
X127608Y177485D01*
X127567Y177462D01*
X127534Y177439D01*
X127507Y177416D01*
X127484Y177402D01*
X127474Y177393D01*
X127470Y177388D01*
X127410Y177328D01*
X127359Y177263D01*
X127317Y177199D01*
X127276Y177134D01*
X127243Y177069D01*
X127220Y177000D01*
X127197Y176940D01*
X127179Y176875D01*
X127165Y176820D01*
X127156Y176765D01*
X127146Y176718D01*
X127142Y176677D01*
Y176644D01*
X127137Y176621D01*
Y176598D01*
X127142Y176510D01*
X127151Y176427D01*
X127170Y176353D01*
X127188Y176279D01*
X127216Y176210D01*
X127243Y176145D01*
X127271Y176085D01*
X127304Y176030D01*
X127336Y175984D01*
X127364Y175942D01*
X127391Y175905D01*
X127419Y175873D01*
X127437Y175850D01*
X127456Y175831D01*
X127465Y175822D01*
X127470Y175817D01*
X127534Y175762D01*
X127604Y175716D01*
X127678Y175674D01*
X127752Y175637D01*
X127830Y175610D01*
X127904Y175582D01*
X128052Y175545D01*
X128117Y175536D01*
X128181Y175526D01*
X128237Y175517D01*
X128283Y175512D01*
X128324Y175508D01*
X128357D01*
X128375D01*
X128380D01*
X128509Y175512D01*
X128629Y175522D01*
X128745Y175536D01*
X128847Y175559D01*
X128939Y175582D01*
X129022Y175610D01*
X129101Y175642D01*
X129165Y175670D01*
X129225Y175702D01*
X129276Y175730D01*
X129318Y175757D01*
X129350Y175780D01*
X129378Y175803D01*
X129396Y175817D01*
X129406Y175827D01*
X129410Y175831D01*
X129466Y175891D01*
X129512Y175956D01*
X129553Y176021D01*
X129590Y176090D01*
X129618Y176155D01*
X129646Y176219D01*
X129683Y176339D01*
X129692Y176395D01*
X129701Y176446D01*
X129710Y176487D01*
X129715Y176529D01*
X129720Y176561D01*
Y176603D01*
X129715Y176718D01*
X129697Y176829D01*
X129669Y176926D01*
X129641Y177009D01*
X129609Y177079D01*
X129595Y177106D01*
X129586Y177129D01*
X129572Y177153D01*
X129567Y177166D01*
X129558Y177171D01*
Y177176D01*
X129493Y177263D01*
X129419Y177342D01*
X129346Y177411D01*
X129272Y177467D01*
X129207Y177508D01*
X129151Y177541D01*
X129133Y177550D01*
X129119Y177559D01*
X129110Y177564D01*
X129105D01*
X128994Y177610D01*
X128874Y177642D01*
X128763Y177665D01*
X128657Y177679D01*
X128606Y177689D01*
X128565Y177693D01*
X128523D01*
X128491Y177698D01*
D02*
G37*
G36*
X119369Y181324D02*
X117936D01*
Y180317D01*
X119369Y181324D01*
D02*
G37*
G36*
X88883Y211397D02*
X88841D01*
X88818D01*
X88814D01*
X88809D01*
X88666D01*
X88536Y211388D01*
X88421Y211379D01*
X88310Y211369D01*
X88218Y211355D01*
X88130Y211337D01*
X88056Y211318D01*
X87987Y211305D01*
X87931Y211286D01*
X87885Y211268D01*
X87843Y211254D01*
X87811Y211235D01*
X87788Y211226D01*
X87774Y211217D01*
X87765Y211208D01*
X87760D01*
X87714Y211171D01*
X87677Y211134D01*
X87640Y211097D01*
X87612Y211060D01*
X87566Y210981D01*
X87534Y210912D01*
X87515Y210847D01*
X87506Y210801D01*
X87502Y210783D01*
Y210755D01*
X87506Y210704D01*
X87511Y210658D01*
X87543Y210570D01*
X87585Y210492D01*
X87631Y210422D01*
X87677Y210371D01*
X87719Y210330D01*
X87751Y210307D01*
X87756Y210297D01*
X87760D01*
X87816Y210265D01*
X87880Y210238D01*
X87954Y210210D01*
X88033Y210191D01*
X88116Y210173D01*
X88204Y210159D01*
X88384Y210136D01*
X88467Y210127D01*
X88546Y210122D01*
X88620Y210117D01*
X88680D01*
X88735Y210113D01*
X88777D01*
X88800D01*
X88809D01*
X88952Y210117D01*
X89082Y210122D01*
X89202Y210131D01*
X89313Y210145D01*
X89410Y210159D01*
X89497Y210177D01*
X89576Y210196D01*
X89645Y210214D01*
X89705Y210233D01*
X89756Y210247D01*
X89798Y210265D01*
X89835Y210279D01*
X89858Y210293D01*
X89876Y210302D01*
X89885Y210311D01*
X89890D01*
X89932Y210344D01*
X89969Y210376D01*
X89996Y210413D01*
X90024Y210450D01*
X90066Y210524D01*
X90093Y210593D01*
X90107Y210653D01*
X90117Y210704D01*
X90121Y210723D01*
Y210750D01*
X90117Y210801D01*
X90112Y210852D01*
X90098Y210898D01*
X90079Y210940D01*
X90038Y211018D01*
X89992Y211087D01*
X89941Y211138D01*
X89899Y211180D01*
X89881Y211194D01*
X89867Y211203D01*
X89862Y211212D01*
X89858D01*
X89802Y211245D01*
X89738Y211272D01*
X89664Y211300D01*
X89585Y211318D01*
X89502Y211337D01*
X89414Y211351D01*
X89239Y211374D01*
X89151Y211383D01*
X89072Y211388D01*
X88998Y211392D01*
X88938D01*
X88883Y211397D01*
D02*
G37*
G36*
X88892Y208870D02*
X88864D01*
X88846D01*
X88832D01*
X88828D01*
X88703Y208865D01*
X88587Y208856D01*
X88481Y208838D01*
X88379Y208810D01*
X88292Y208782D01*
X88208Y208750D01*
X88130Y208717D01*
X88061Y208685D01*
X88001Y208648D01*
X87950Y208616D01*
X87908Y208583D01*
X87871Y208556D01*
X87843Y208533D01*
X87820Y208514D01*
X87811Y208500D01*
X87806Y208496D01*
X87880Y208399D01*
X87941Y208302D01*
X87991Y208200D01*
X88038Y208103D01*
X88070Y208020D01*
X88084Y207983D01*
X88093Y207951D01*
X88102Y207927D01*
X88107Y207909D01*
X88111Y207895D01*
Y207891D01*
X87806Y207784D01*
X87783Y207867D01*
X87756Y207946D01*
X87723Y208015D01*
X87696Y208080D01*
X87668Y208131D01*
X87645Y208172D01*
X87626Y208195D01*
X87622Y208205D01*
X87594Y208131D01*
X87576Y208052D01*
X87557Y207983D01*
X87548Y207914D01*
X87543Y207858D01*
X87538Y207817D01*
Y207775D01*
X87543Y207687D01*
X87552Y207604D01*
X87571Y207525D01*
X87589Y207447D01*
X87617Y207378D01*
X87645Y207313D01*
X87673Y207253D01*
X87705Y207202D01*
X87737Y207151D01*
X87765Y207110D01*
X87793Y207073D01*
X87820Y207040D01*
X87839Y207017D01*
X87857Y206999D01*
X87866Y206990D01*
X87871Y206985D01*
X87936Y206929D01*
X88010Y206883D01*
X88084Y206842D01*
X88162Y206809D01*
X88241Y206777D01*
X88319Y206754D01*
X88476Y206717D01*
X88546Y206708D01*
X88615Y206698D01*
X88675Y206689D01*
X88726Y206685D01*
X88767Y206680D01*
X88800D01*
X88818D01*
X88828D01*
X88943Y206685D01*
X89054Y206694D01*
X89156Y206708D01*
X89248Y206731D01*
X89336Y206754D01*
X89414Y206777D01*
X89488Y206805D01*
X89553Y206837D01*
X89608Y206865D01*
X89659Y206893D01*
X89701Y206916D01*
X89733Y206943D01*
X89761Y206962D01*
X89779Y206976D01*
X89789Y206985D01*
X89793Y206990D01*
X89853Y207050D01*
X89899Y207114D01*
X89946Y207179D01*
X89982Y207244D01*
X90015Y207313D01*
X90043Y207378D01*
X90061Y207438D01*
X90079Y207502D01*
X90093Y207558D01*
X90103Y207609D01*
X90112Y207655D01*
X90117Y207697D01*
X90121Y207729D01*
Y207775D01*
X90117Y207891D01*
X90098Y208001D01*
X90070Y208098D01*
X90043Y208182D01*
X90010Y208251D01*
X89996Y208279D01*
X89987Y208302D01*
X89973Y208325D01*
X89969Y208339D01*
X89959Y208343D01*
Y208348D01*
X89895Y208436D01*
X89821Y208514D01*
X89747Y208583D01*
X89673Y208639D01*
X89608Y208681D01*
X89553Y208713D01*
X89534Y208722D01*
X89521Y208731D01*
X89511Y208736D01*
X89507D01*
X89396Y208782D01*
X89280Y208815D01*
X89165Y208838D01*
X89059Y208852D01*
X89012Y208861D01*
X88966Y208865D01*
X88929D01*
X88892Y208870D01*
D02*
G37*
G36*
X89562Y205299D02*
X89557D01*
X89553D01*
X89497Y205294D01*
X89442Y205285D01*
X89396Y205271D01*
X89354Y205257D01*
X89317Y205239D01*
X89289Y205225D01*
X89271Y205216D01*
X89266Y205211D01*
X89220Y205179D01*
X89179Y205137D01*
X89146Y205095D01*
X89119Y205054D01*
X89100Y205017D01*
X89086Y204989D01*
X89077Y204971D01*
X89072Y204961D01*
X89054Y204897D01*
X89040Y204823D01*
X89031Y204749D01*
X89026Y204675D01*
X89021Y204610D01*
X89017Y204555D01*
Y203603D01*
X90075D01*
Y204610D01*
X90070Y204735D01*
X90052Y204841D01*
X90029Y204934D01*
X90001Y205003D01*
X89973Y205063D01*
X89950Y205100D01*
X89932Y205123D01*
X89927Y205132D01*
X89867Y205188D01*
X89807Y205229D01*
X89742Y205257D01*
X89687Y205280D01*
X89631Y205289D01*
X89590Y205294D01*
X89562Y205299D01*
D02*
G37*
G36*
X60050Y204121D02*
X60045D01*
X60041D01*
X59985Y204116D01*
X59930Y204107D01*
X59883Y204093D01*
X59842Y204079D01*
X59805Y204061D01*
X59777Y204047D01*
X59759Y204037D01*
X59754Y204033D01*
X59708Y204000D01*
X59666Y203959D01*
X59634Y203917D01*
X59606Y203876D01*
X59588Y203839D01*
X59574Y203811D01*
X59565Y203793D01*
X59560Y203783D01*
X59542Y203719D01*
X59528Y203645D01*
X59518Y203571D01*
X59514Y203497D01*
X59509Y203432D01*
X59505Y203377D01*
Y202425D01*
X60563D01*
Y203432D01*
X60558Y203557D01*
X60540Y203663D01*
X60516Y203756D01*
X60489Y203825D01*
X60461Y203885D01*
X60438Y203922D01*
X60419Y203945D01*
X60415Y203954D01*
X60355Y204010D01*
X60295Y204051D01*
X60230Y204079D01*
X60175Y204102D01*
X60119Y204111D01*
X60078Y204116D01*
X60050Y204121D01*
D02*
G37*
G36*
X40083Y204121D02*
X40078D01*
X40073D01*
X40018Y204116D01*
X39963Y204107D01*
X39917Y204093D01*
X39875Y204079D01*
X39838Y204061D01*
X39810Y204047D01*
X39792Y204037D01*
X39787Y204033D01*
X39741Y204000D01*
X39699Y203959D01*
X39667Y203917D01*
X39639Y203876D01*
X39621Y203839D01*
X39607Y203811D01*
X39598Y203793D01*
X39593Y203783D01*
X39575Y203719D01*
X39561Y203645D01*
X39551Y203571D01*
X39547Y203497D01*
X39542Y203432D01*
X39538Y203377D01*
Y202425D01*
X40596D01*
Y203432D01*
X40591Y203557D01*
X40573Y203663D01*
X40549Y203756D01*
X40522Y203825D01*
X40494Y203885D01*
X40471Y203922D01*
X40452Y203945D01*
X40448Y203954D01*
X40388Y204010D01*
X40328Y204051D01*
X40263Y204079D01*
X40207Y204102D01*
X40152Y204111D01*
X40110Y204116D01*
X40083Y204121D01*
D02*
G37*
G36*
X28769Y210131D02*
X28621Y210127D01*
X28529Y210122D01*
X28450Y210117D01*
X28386Y210108D01*
X28330Y210094D01*
X28289Y210080D01*
X28256Y210071D01*
X28238Y210067D01*
X28233Y210062D01*
X28173Y210025D01*
X28118Y209988D01*
X28071Y209942D01*
X28034Y209900D01*
X28002Y209863D01*
X27979Y209831D01*
X27965Y209812D01*
X27961Y209803D01*
X27928Y209734D01*
X27905Y209665D01*
X27887Y209600D01*
X27877Y209535D01*
X27868Y209484D01*
X27863Y209438D01*
Y209401D01*
X27868Y209318D01*
X27877Y209249D01*
X27896Y209189D01*
X27914Y209138D01*
X27933Y209101D01*
X27951Y209073D01*
X27961Y209055D01*
X27965Y209050D01*
X28007Y209013D01*
X28053Y208985D01*
X28095Y208962D01*
X28136Y208948D01*
X28173Y208939D01*
X28201Y208935D01*
X28224D01*
X28229D01*
X28266Y208939D01*
X28302Y208944D01*
X28330Y208953D01*
X28358Y208962D01*
X28381Y208972D01*
X28399Y208976D01*
X28409Y208985D01*
X28413D01*
X28469Y209032D01*
X28506Y209087D01*
X28520Y209105D01*
X28529Y209124D01*
X28538Y209138D01*
Y209142D01*
X28556Y209189D01*
X28570Y209240D01*
X28584Y209295D01*
X28594Y209350D01*
X28603Y209401D01*
X28612Y209447D01*
X28617Y209475D01*
Y209484D01*
X28630Y209563D01*
X28640Y209637D01*
X28653Y209701D01*
X28667Y209766D01*
X28681Y209826D01*
X28695Y209877D01*
X28704Y209928D01*
X28718Y209969D01*
X28727Y210006D01*
X28737Y210039D01*
X28746Y210067D01*
X28755Y210090D01*
X28760Y210108D01*
X28764Y210122D01*
X28769Y210127D01*
Y210131D01*
D02*
G37*
G36*
X29000Y206759D02*
X28991D01*
X28986D01*
Y205460D01*
X29092Y205474D01*
X29190Y205502D01*
X29273Y205534D01*
X29337Y205571D01*
X29393Y205604D01*
X29434Y205636D01*
X29457Y205654D01*
X29467Y205664D01*
X29527Y205738D01*
X29573Y205812D01*
X29605Y205890D01*
X29628Y205964D01*
X29642Y206024D01*
X29647Y206075D01*
X29651Y206093D01*
Y206121D01*
X29647Y206176D01*
X29642Y206227D01*
X29614Y206324D01*
X29577Y206407D01*
X29536Y206477D01*
X29494Y206532D01*
X29457Y206574D01*
X29430Y206597D01*
X29425Y206606D01*
X29421D01*
X29360Y206648D01*
X29291Y206685D01*
X29222Y206708D01*
X29148Y206731D01*
X29088Y206745D01*
X29032Y206754D01*
X29014D01*
X29000Y206759D01*
D02*
G37*
G36*
X29933Y204121D02*
X29929D01*
X29924D01*
X29869Y204116D01*
X29813Y204107D01*
X29767Y204093D01*
X29725Y204079D01*
X29688Y204061D01*
X29661Y204047D01*
X29642Y204037D01*
X29638Y204033D01*
X29591Y204000D01*
X29550Y203959D01*
X29517Y203917D01*
X29490Y203876D01*
X29471Y203839D01*
X29457Y203811D01*
X29448Y203793D01*
X29444Y203783D01*
X29425Y203719D01*
X29411Y203645D01*
X29402Y203571D01*
X29397Y203497D01*
X29393Y203432D01*
X29388Y203377D01*
Y202425D01*
X30446D01*
Y203432D01*
X30441Y203557D01*
X30423Y203663D01*
X30400Y203756D01*
X30372Y203825D01*
X30345Y203885D01*
X30321Y203922D01*
X30303Y203945D01*
X30298Y203954D01*
X30238Y204010D01*
X30178Y204051D01*
X30114Y204079D01*
X30058Y204102D01*
X30003Y204111D01*
X29961Y204116D01*
X29933Y204121D01*
D02*
G37*
G36*
X69098Y177832D02*
X69070D01*
X69052D01*
X69038D01*
X69033D01*
X68923Y177827D01*
X68816Y177818D01*
X68715Y177804D01*
X68622Y177786D01*
X68539Y177758D01*
X68461Y177735D01*
X68387Y177707D01*
X68322Y177679D01*
X68266Y177647D01*
X68216Y177619D01*
X68174Y177596D01*
X68142Y177573D01*
X68114Y177550D01*
X68091Y177536D01*
X68082Y177527D01*
X68077Y177522D01*
X68017Y177462D01*
X67966Y177397D01*
X67925Y177333D01*
X67883Y177268D01*
X67851Y177203D01*
X67828Y177134D01*
X67804Y177074D01*
X67786Y177009D01*
X67772Y176954D01*
X67763Y176898D01*
X67754Y176852D01*
X67749Y176811D01*
Y176778D01*
X67744Y176755D01*
Y176732D01*
X67749Y176644D01*
X67758Y176561D01*
X67777Y176487D01*
X67795Y176413D01*
X67823Y176344D01*
X67851Y176279D01*
X67878Y176219D01*
X67911Y176164D01*
X67943Y176118D01*
X67971Y176076D01*
X67999Y176039D01*
X68026Y176007D01*
X68045Y175984D01*
X68063Y175965D01*
X68072Y175956D01*
X68077Y175951D01*
X68142Y175896D01*
X68211Y175850D01*
X68285Y175808D01*
X68359Y175771D01*
X68437Y175743D01*
X68511Y175716D01*
X68659Y175679D01*
X68724Y175670D01*
X68789Y175660D01*
X68844Y175651D01*
X68890Y175646D01*
X68932Y175642D01*
X68964D01*
X68983D01*
X68987D01*
X69117Y175646D01*
X69237Y175656D01*
X69352Y175670D01*
X69454Y175693D01*
X69546Y175716D01*
X69629Y175743D01*
X69708Y175776D01*
X69773Y175803D01*
X69833Y175836D01*
X69884Y175864D01*
X69925Y175891D01*
X69957Y175914D01*
X69985Y175937D01*
X70004Y175951D01*
X70013Y175961D01*
X70017Y175965D01*
X70073Y176025D01*
X70119Y176090D01*
X70161Y176155D01*
X70198Y176224D01*
X70225Y176289D01*
X70253Y176353D01*
X70290Y176473D01*
X70299Y176529D01*
X70309Y176580D01*
X70318Y176621D01*
X70322Y176663D01*
X70327Y176695D01*
Y176737D01*
X70322Y176852D01*
X70304Y176963D01*
X70276Y177060D01*
X70249Y177143D01*
X70216Y177213D01*
X70202Y177240D01*
X70193Y177263D01*
X70179Y177287D01*
X70175Y177300D01*
X70165Y177305D01*
Y177310D01*
X70101Y177397D01*
X70027Y177476D01*
X69953Y177545D01*
X69879Y177601D01*
X69814Y177642D01*
X69759Y177675D01*
X69740Y177684D01*
X69726Y177693D01*
X69717Y177698D01*
X69713D01*
X69602Y177744D01*
X69482Y177776D01*
X69371Y177799D01*
X69264Y177813D01*
X69214Y177822D01*
X69172Y177827D01*
X69130D01*
X69098Y177832D01*
D02*
G37*
G36*
X68604Y170310D02*
X68456Y170306D01*
X68363Y170301D01*
X68285Y170297D01*
X68220Y170287D01*
X68165Y170273D01*
X68123Y170259D01*
X68091Y170250D01*
X68072Y170246D01*
X68068Y170241D01*
X68008Y170204D01*
X67952Y170167D01*
X67906Y170121D01*
X67869Y170079D01*
X67837Y170042D01*
X67814Y170010D01*
X67800Y169992D01*
X67795Y169982D01*
X67763Y169913D01*
X67740Y169844D01*
X67721Y169779D01*
X67712Y169714D01*
X67703Y169664D01*
X67698Y169617D01*
Y169580D01*
X67703Y169497D01*
X67712Y169428D01*
X67731Y169368D01*
X67749Y169317D01*
X67768Y169280D01*
X67786Y169252D01*
X67795Y169234D01*
X67800Y169229D01*
X67842Y169192D01*
X67888Y169165D01*
X67929Y169141D01*
X67971Y169128D01*
X68008Y169118D01*
X68036Y169114D01*
X68059D01*
X68063D01*
X68100Y169118D01*
X68137Y169123D01*
X68165Y169132D01*
X68193Y169141D01*
X68216Y169151D01*
X68234Y169155D01*
X68243Y169165D01*
X68248D01*
X68304Y169211D01*
X68340Y169266D01*
X68354Y169285D01*
X68363Y169303D01*
X68373Y169317D01*
Y169322D01*
X68391Y169368D01*
X68405Y169419D01*
X68419Y169474D01*
X68428Y169529D01*
X68437Y169580D01*
X68447Y169627D01*
X68451Y169654D01*
Y169664D01*
X68465Y169742D01*
X68474Y169816D01*
X68488Y169881D01*
X68502Y169945D01*
X68516Y170005D01*
X68530Y170056D01*
X68539Y170107D01*
X68553Y170149D01*
X68562Y170186D01*
X68572Y170218D01*
X68581Y170246D01*
X68590Y170269D01*
X68595Y170287D01*
X68599Y170301D01*
X68604Y170306D01*
Y170310D01*
D02*
G37*
G36*
X28591Y181717D02*
X28568D01*
X28550D01*
X28545D01*
X28416Y181712D01*
X28296Y181703D01*
X28190Y181689D01*
X28097Y181676D01*
X28060Y181666D01*
X28028Y181657D01*
X27995Y181648D01*
X27972Y181643D01*
X27954Y181639D01*
X27940Y181634D01*
X27931Y181629D01*
X27926D01*
X27839Y181597D01*
X27760Y181560D01*
X27691Y181518D01*
X27630Y181482D01*
X27584Y181449D01*
X27552Y181421D01*
X27534Y181403D01*
X27524Y181398D01*
X27487Y181352D01*
X27455Y181306D01*
X27427Y181260D01*
X27400Y181213D01*
X27381Y181172D01*
X27367Y181140D01*
X27363Y181116D01*
X27358Y181107D01*
X27340Y181038D01*
X27326Y180955D01*
X27316Y180872D01*
X27312Y180793D01*
X27307Y180724D01*
X27303Y180692D01*
Y179934D01*
X29742D01*
Y180673D01*
X29737Y180733D01*
Y180793D01*
X29733Y180849D01*
X29719Y180941D01*
X29710Y181015D01*
X29696Y181075D01*
X29682Y181116D01*
X29677Y181140D01*
X29673Y181149D01*
X29631Y181232D01*
X29580Y181310D01*
X29520Y181380D01*
X29460Y181440D01*
X29405Y181486D01*
X29358Y181523D01*
X29340Y181532D01*
X29326Y181542D01*
X29317Y181551D01*
X29312D01*
X29261Y181579D01*
X29201Y181606D01*
X29081Y181648D01*
X28952Y181676D01*
X28827Y181699D01*
X28772Y181703D01*
X28716Y181708D01*
X28670Y181712D01*
X28629D01*
X28591Y181717D01*
D02*
G37*
G36*
X18623Y181717D02*
X18600D01*
X18582D01*
X18577D01*
X18448Y181712D01*
X18328Y181703D01*
X18221Y181689D01*
X18129Y181676D01*
X18092Y181666D01*
X18060Y181657D01*
X18027Y181648D01*
X18004Y181643D01*
X17986Y181639D01*
X17972Y181634D01*
X17963Y181629D01*
X17958D01*
X17870Y181597D01*
X17792Y181560D01*
X17722Y181518D01*
X17662Y181482D01*
X17616Y181449D01*
X17584Y181421D01*
X17565Y181403D01*
X17556Y181398D01*
X17519Y181352D01*
X17487Y181306D01*
X17459Y181260D01*
X17431Y181213D01*
X17413Y181172D01*
X17399Y181140D01*
X17394Y181116D01*
X17390Y181107D01*
X17371Y181038D01*
X17357Y180955D01*
X17348Y180872D01*
X17344Y180793D01*
X17339Y180724D01*
X17334Y180692D01*
Y179934D01*
X19774D01*
Y180673D01*
X19769Y180733D01*
Y180793D01*
X19764Y180849D01*
X19750Y180941D01*
X19741Y181015D01*
X19727Y181075D01*
X19714Y181116D01*
X19709Y181140D01*
X19704Y181149D01*
X19663Y181232D01*
X19612Y181310D01*
X19552Y181380D01*
X19492Y181440D01*
X19436Y181486D01*
X19390Y181523D01*
X19372Y181532D01*
X19358Y181542D01*
X19349Y181551D01*
X19344D01*
X19293Y181579D01*
X19233Y181606D01*
X19113Y181648D01*
X18984Y181676D01*
X18859Y181699D01*
X18803Y181703D01*
X18748Y181708D01*
X18702Y181712D01*
X18660D01*
X18623Y181717D01*
D02*
G37*
G36*
X58961Y181749D02*
X58920D01*
X58897D01*
X58892D01*
X58887D01*
X58744D01*
X58615Y181740D01*
X58499Y181731D01*
X58389Y181722D01*
X58296Y181708D01*
X58208Y181689D01*
X58135Y181671D01*
X58065Y181657D01*
X58010Y181639D01*
X57964Y181620D01*
X57922Y181606D01*
X57890Y181588D01*
X57867Y181579D01*
X57853Y181569D01*
X57843Y181560D01*
X57839D01*
X57793Y181523D01*
X57756Y181486D01*
X57719Y181449D01*
X57691Y181412D01*
X57645Y181334D01*
X57612Y181264D01*
X57594Y181200D01*
X57585Y181154D01*
X57580Y181135D01*
Y181107D01*
X57585Y181056D01*
X57589Y181010D01*
X57622Y180922D01*
X57663Y180844D01*
X57709Y180775D01*
X57756Y180724D01*
X57797Y180682D01*
X57829Y180659D01*
X57834Y180650D01*
X57839D01*
X57894Y180617D01*
X57959Y180590D01*
X58033Y180562D01*
X58111Y180544D01*
X58195Y180525D01*
X58282Y180511D01*
X58463Y180488D01*
X58546Y180479D01*
X58624Y180474D01*
X58698Y180470D01*
X58758D01*
X58814Y180465D01*
X58855D01*
X58878D01*
X58887D01*
X59031Y180470D01*
X59160Y180474D01*
X59280Y180484D01*
X59391Y180497D01*
X59488Y180511D01*
X59576Y180530D01*
X59654Y180548D01*
X59724Y180567D01*
X59784Y180585D01*
X59835Y180599D01*
X59876Y180617D01*
X59913Y180631D01*
X59936Y180645D01*
X59955Y180655D01*
X59964Y180664D01*
X59969D01*
X60010Y180696D01*
X60047Y180728D01*
X60075Y180765D01*
X60103Y180802D01*
X60144Y180876D01*
X60172Y180946D01*
X60186Y181006D01*
X60195Y181056D01*
X60200Y181075D01*
Y181103D01*
X60195Y181154D01*
X60190Y181204D01*
X60176Y181251D01*
X60158Y181292D01*
X60116Y181371D01*
X60070Y181440D01*
X60019Y181491D01*
X59978Y181532D01*
X59959Y181546D01*
X59945Y181555D01*
X59941Y181565D01*
X59936D01*
X59881Y181597D01*
X59816Y181625D01*
X59742Y181652D01*
X59664Y181671D01*
X59580Y181689D01*
X59493Y181703D01*
X59317Y181726D01*
X59229Y181736D01*
X59151Y181740D01*
X59077Y181745D01*
X59017D01*
X58961Y181749D01*
D02*
G37*
%LPD*%
%TF.MD5,b9e7824d617d9592f87b031f330c3d5d*%
M02*
