%TF.GenerationSoftware,Altium Limited,Altium Designer,25.6.2 (33)*%
G04 Layer_Color=0*
%FSLAX25Y25*%
%MOIN*%
%TF.SameCoordinates,FE0DA3C0-2896-4111-9436-F88E09ACE2E6*%
%TF.FilePolarity,Positive*%
%TF.FileFunction,NonPlated,1,2,NPTH,Drill*%
%TF.Part,Single*%
G01*
G75*
%TA.AperFunction,ComponentDrill*%
%ADD126C,0.04016*%
%ADD127C,0.04606*%
G36*
X315498Y13996D02*
X315399Y55196D01*
X315398Y55495D01*
X315625Y56047D01*
X316046Y56471D01*
X316598Y56701D01*
X317195Y56702D01*
X317747Y56475D01*
X318171Y56054D01*
X318401Y55502D01*
X318402Y55204D01*
X318402Y55204D01*
X318501Y14004D01*
Y14000D01*
Y13702D01*
X318273Y13150D01*
X317851Y12728D01*
X317300Y12499D01*
X316703Y12498D01*
X316152Y12726D01*
X315729Y13147D01*
X315499Y13698D01*
X315498Y13996D01*
D01*
D02*
G37*
G36*
X283749D02*
X283648Y55196D01*
X283648Y55495D01*
X283875Y56047D01*
X284296Y56471D01*
X284848Y56701D01*
X285445Y56702D01*
X285997Y56475D01*
X286421Y56054D01*
X286651Y55502D01*
X286651Y55204D01*
X286651Y55204D01*
X286752Y14004D01*
Y14000D01*
Y13702D01*
X286523Y13150D01*
X286102Y12728D01*
X285550Y12499D01*
X284953Y12498D01*
X284402Y12726D01*
X283979Y13147D01*
X283749Y13698D01*
X283749Y13996D01*
D01*
D02*
G37*
G36*
X251998D02*
X251899Y55196D01*
X251898Y55495D01*
X252125Y56047D01*
X252546Y56471D01*
X253098Y56701D01*
X253695Y56702D01*
X254247Y56475D01*
X254671Y56054D01*
X254901Y55502D01*
X254902Y55204D01*
X254902Y55204D01*
X255001Y14004D01*
Y14000D01*
Y13702D01*
X254773Y13150D01*
X254351Y12728D01*
X253800Y12499D01*
X253203Y12498D01*
X252652Y12726D01*
X252229Y13147D01*
X251999Y13698D01*
X251998Y13996D01*
D01*
D02*
G37*
G36*
X318500Y254998D02*
X318201D01*
X317650Y255227D01*
X317227Y255649D01*
X316999Y256201D01*
Y256799D01*
X317227Y257350D01*
X317650Y257773D01*
X318201Y258001D01*
X318500D01*
D01*
X363500D01*
X363799D01*
X364351Y257773D01*
X364773Y257350D01*
X365002Y256799D01*
Y256500D01*
Y256201D01*
X364773Y255649D01*
X364351Y255227D01*
X363799Y254998D01*
X363500D01*
D01*
X318500D01*
D02*
G37*
G36*
X256588Y238581D02*
X256448Y238721D01*
X256228Y239049D01*
X256076Y239414D01*
X255998Y239802D01*
Y240000D01*
D01*
Y295000D01*
Y295398D01*
X256303Y296134D01*
X256866Y296697D01*
X257602Y297002D01*
X258398D01*
X259134Y296697D01*
X259697Y296134D01*
X260001Y295398D01*
Y295000D01*
D01*
Y240829D01*
X291829Y209001D01*
X350000D01*
X350398D01*
X351134Y208697D01*
X351697Y208134D01*
X352002Y207398D01*
Y207000D01*
Y206602D01*
X351697Y205866D01*
X351134Y205303D01*
X350398Y204998D01*
X350000D01*
D01*
X291000D01*
X290802D01*
X290414Y205076D01*
X290049Y205228D01*
X289721Y205448D01*
X289581Y205588D01*
Y205588D01*
X289585Y205585D01*
X256588Y238581D01*
D02*
G37*
G36*
X59499Y300000D02*
Y299701D01*
X59727Y299149D01*
X60150Y298727D01*
X60701Y298499D01*
X61299D01*
X61851Y298727D01*
X62273Y299149D01*
X62502Y299701D01*
Y300000D01*
D01*
Y330000D01*
Y330299D01*
X62273Y330851D01*
X61851Y331273D01*
X61299Y331502D01*
X60701D01*
X60150Y331273D01*
X59727Y330851D01*
X59499Y330299D01*
Y330000D01*
D01*
Y300000D01*
D02*
G37*
G36*
X14500Y252499D02*
X14102D01*
X13366Y252803D01*
X12803Y253366D01*
X12499Y254102D01*
Y254898D01*
X12803Y255634D01*
X13366Y256197D01*
X14102Y256502D01*
X14500D01*
D01*
X48500D01*
X48898D01*
X49634Y256197D01*
X50197Y255634D01*
X50502Y254898D01*
Y254500D01*
Y254102D01*
X50197Y253366D01*
X49634Y252803D01*
X48898Y252499D01*
X48500D01*
D01*
X14500D01*
D02*
G37*
D126*
X138500Y187000D02*
D03*
Y197000D02*
D03*
X128500Y187000D02*
D03*
Y197000D02*
D03*
X118500Y187000D02*
D03*
Y197000D02*
D03*
X108500Y187000D02*
D03*
Y197000D02*
D03*
X98500Y187000D02*
D03*
Y197000D02*
D03*
X88500Y187000D02*
D03*
Y197000D02*
D03*
X19000D02*
D03*
Y187000D02*
D03*
X29000Y197000D02*
D03*
Y187000D02*
D03*
X39000Y197000D02*
D03*
Y187000D02*
D03*
X49000Y197000D02*
D03*
Y187000D02*
D03*
X59000Y197000D02*
D03*
Y187000D02*
D03*
X69000Y197000D02*
D03*
Y187000D02*
D03*
D127*
X133500Y192000D02*
D03*
X93500D02*
D03*
X24000D02*
D03*
X64000D02*
D03*
%TF.MD5,c460b49d6051494d5ba5d02c1b829eaf*%
M02*
