%TF.GenerationSoftware,Altium Limited,Altium Designer,25.6.2 (33)*%
G04 Layer_Color=255*
%FSLAX25Y25*%
%MOIN*%
%TF.SameCoordinates,FE0DA3C0-2896-4111-9436-F88E09ACE2E6*%
%TF.FilePolarity,Positive*%
%TF.FileFunction,Pads,Top*%
%TF.Part,Single*%
G01*
G75*
%TA.AperFunction,ConnectorPad*%
%ADD10R,0.06496X0.04134*%
%TA.AperFunction,SMDPad,CuDef*%
G04:AMPARAMS|DCode=11|XSize=47.24mil|YSize=51.18mil|CornerRadius=9.84mil|HoleSize=0mil|Usage=FLASHONLY|Rotation=90.000|XOffset=0mil|YOffset=0mil|HoleType=Round|Shape=RoundedRectangle|*
%AMROUNDEDRECTD11*
21,1,0.04724,0.03150,0,0,90.0*
21,1,0.02756,0.05118,0,0,90.0*
1,1,0.01968,0.01575,0.01378*
1,1,0.01968,0.01575,-0.01378*
1,1,0.01968,-0.01575,-0.01378*
1,1,0.01968,-0.01575,0.01378*
%
%ADD11ROUNDEDRECTD11*%
%ADD12O,0.02362X0.05709*%
G04:AMPARAMS|DCode=13|XSize=68.9mil|YSize=49.21mil|CornerRadius=9.84mil|HoleSize=0mil|Usage=FLASHONLY|Rotation=90.000|XOffset=0mil|YOffset=0mil|HoleType=Round|Shape=RoundedRectangle|*
%AMROUNDEDRECTD13*
21,1,0.06890,0.02953,0,0,90.0*
21,1,0.04921,0.04921,0,0,90.0*
1,1,0.01968,0.01476,0.02461*
1,1,0.01968,0.01476,-0.02461*
1,1,0.01968,-0.01476,-0.02461*
1,1,0.01968,-0.01476,0.02461*
%
%ADD13ROUNDEDRECTD13*%
%ADD14O,0.02362X0.06496*%
%ADD15R,0.02362X0.03937*%
%ADD16R,0.04134X0.06496*%
%ADD17R,0.06496X0.04134*%
G04:AMPARAMS|DCode=18|XSize=68.9mil|YSize=49.21mil|CornerRadius=9.84mil|HoleSize=0mil|Usage=FLASHONLY|Rotation=180.000|XOffset=0mil|YOffset=0mil|HoleType=Round|Shape=RoundedRectangle|*
%AMROUNDEDRECTD18*
21,1,0.06890,0.02953,0,0,180.0*
21,1,0.04921,0.04921,0,0,180.0*
1,1,0.01968,-0.02461,0.01476*
1,1,0.01968,0.02461,0.01476*
1,1,0.01968,0.02461,-0.01476*
1,1,0.01968,-0.02461,-0.01476*
%
%ADD18ROUNDEDRECTD18*%
G04:AMPARAMS|DCode=19|XSize=47.24mil|YSize=51.18mil|CornerRadius=9.84mil|HoleSize=0mil|Usage=FLASHONLY|Rotation=180.000|XOffset=0mil|YOffset=0mil|HoleType=Round|Shape=RoundedRectangle|*
%AMROUNDEDRECTD19*
21,1,0.04724,0.03150,0,0,180.0*
21,1,0.02756,0.05118,0,0,180.0*
1,1,0.01968,-0.01378,0.01575*
1,1,0.01968,0.01378,0.01575*
1,1,0.01968,0.01378,-0.01575*
1,1,0.01968,-0.01378,-0.01575*
%
%ADD19ROUNDEDRECTD19*%
%ADD20R,0.06299X0.13780*%
%ADD21R,0.09646X0.06299*%
%ADD22R,0.03150X0.02165*%
%ADD23R,0.04016X0.07500*%
%ADD24R,0.03543X0.08465*%
%ADD25R,0.12795X0.08465*%
G04:AMPARAMS|DCode=26|XSize=47.24mil|YSize=51.18mil|CornerRadius=9.84mil|HoleSize=0mil|Usage=FLASHONLY|Rotation=225.000|XOffset=0mil|YOffset=0mil|HoleType=Round|Shape=RoundedRectangle|*
%AMROUNDEDRECTD26*
21,1,0.04724,0.03150,0,0,225.0*
21,1,0.02756,0.05118,0,0,225.0*
1,1,0.01968,-0.02088,0.00139*
1,1,0.01968,-0.00139,0.02088*
1,1,0.01968,0.02088,-0.00139*
1,1,0.01968,0.00139,-0.02088*
%
%ADD26ROUNDEDRECTD26*%
G04:AMPARAMS|DCode=27|XSize=11.81mil|YSize=57.09mil|CornerRadius=0mil|HoleSize=0mil|Usage=FLASHONLY|Rotation=45.000|XOffset=0mil|YOffset=0mil|HoleType=Round|Shape=Round|*
%AMOVALD27*
21,1,0.04528,0.01181,0.00000,0.00000,135.0*
1,1,0.01181,0.01601,-0.01601*
1,1,0.01181,-0.01601,0.01601*
%
%ADD27OVALD27*%

G04:AMPARAMS|DCode=28|XSize=11.81mil|YSize=57.09mil|CornerRadius=0mil|HoleSize=0mil|Usage=FLASHONLY|Rotation=135.000|XOffset=0mil|YOffset=0mil|HoleType=Round|Shape=Round|*
%AMOVALD28*
21,1,0.04528,0.01181,0.00000,0.00000,225.0*
1,1,0.01181,0.01601,0.01601*
1,1,0.01181,-0.01601,-0.01601*
%
%ADD28OVALD28*%

%ADD29R,0.11614X0.07953*%
G04:AMPARAMS|DCode=30|XSize=47.24mil|YSize=51.18mil|CornerRadius=9.84mil|HoleSize=0mil|Usage=FLASHONLY|Rotation=135.000|XOffset=0mil|YOffset=0mil|HoleType=Round|Shape=RoundedRectangle|*
%AMROUNDEDRECTD30*
21,1,0.04724,0.03150,0,0,135.0*
21,1,0.02756,0.05118,0,0,135.0*
1,1,0.01968,0.00139,0.02088*
1,1,0.01968,0.02088,0.00139*
1,1,0.01968,-0.00139,-0.02088*
1,1,0.01968,-0.02088,-0.00139*
%
%ADD30ROUNDEDRECTD30*%
%ADD31R,0.17717X0.04724*%
%TA.AperFunction,ComponentPad*%
%ADD41C,0.08500*%
%ADD42R,0.05906X0.05906*%
%ADD43C,0.05906*%
%ADD44C,0.10039*%
%ADD45R,0.10039X0.10039*%
%ADD46C,0.07677*%
%ADD47R,0.07677X0.07677*%
%ADD48C,0.05937*%
%ADD49R,0.05937X0.05937*%
%ADD50C,0.02008*%
%ADD51C,0.02303*%
%ADD52C,0.07874*%
%ADD53C,0.05512*%
%ADD54C,0.04724*%
D10*
X177000Y342209D02*
D03*
Y355791D02*
D03*
D11*
X45999Y235457D02*
D03*
Y242543D02*
D03*
X160432Y323228D02*
D03*
Y330315D02*
D03*
X126301Y308343D02*
D03*
Y301257D02*
D03*
X118901Y308343D02*
D03*
Y301257D02*
D03*
X79499Y316757D02*
D03*
Y323843D02*
D03*
X71999Y316757D02*
D03*
Y323843D02*
D03*
X111999Y254543D02*
D03*
Y247457D02*
D03*
X91999Y254543D02*
D03*
Y247457D02*
D03*
X81999D02*
D03*
Y254543D02*
D03*
X31199Y230443D02*
D03*
Y223357D02*
D03*
X23599Y230443D02*
D03*
Y223357D02*
D03*
X143499Y168543D02*
D03*
Y161457D02*
D03*
X136001Y168543D02*
D03*
Y161457D02*
D03*
X128501Y168543D02*
D03*
Y161457D02*
D03*
X121001Y168543D02*
D03*
Y161457D02*
D03*
X296904Y128227D02*
D03*
Y121140D02*
D03*
X304403Y122227D02*
D03*
Y115140D02*
D03*
X296903Y107640D02*
D03*
Y114727D02*
D03*
X296904Y69727D02*
D03*
Y62640D02*
D03*
Y99727D02*
D03*
Y92640D02*
D03*
X304404Y100140D02*
D03*
Y107227D02*
D03*
Y92227D02*
D03*
Y85140D02*
D03*
X296904Y84727D02*
D03*
Y77640D02*
D03*
X304404Y77227D02*
D03*
Y70140D02*
D03*
Y62227D02*
D03*
Y55140D02*
D03*
X304403Y48183D02*
D03*
Y41097D02*
D03*
X226001Y127543D02*
D03*
Y120457D02*
D03*
X233499Y121543D02*
D03*
Y114457D02*
D03*
X225999Y106957D02*
D03*
Y114043D02*
D03*
X233501Y99457D02*
D03*
Y106543D02*
D03*
X226001Y99043D02*
D03*
Y91957D02*
D03*
X233501Y91543D02*
D03*
Y84457D02*
D03*
X226001Y84043D02*
D03*
Y76957D02*
D03*
Y69043D02*
D03*
Y61957D02*
D03*
X233501Y76543D02*
D03*
Y69457D02*
D03*
Y61543D02*
D03*
Y54457D02*
D03*
X233500Y47500D02*
D03*
Y40413D02*
D03*
X261962Y127297D02*
D03*
Y120211D02*
D03*
X269461Y121297D02*
D03*
Y114211D02*
D03*
X261961Y106711D02*
D03*
Y113797D02*
D03*
X269462Y99211D02*
D03*
Y106297D02*
D03*
X261962Y98797D02*
D03*
Y91711D02*
D03*
X269462Y91297D02*
D03*
Y84211D02*
D03*
X261962Y83797D02*
D03*
Y76711D02*
D03*
X269462Y76297D02*
D03*
Y69211D02*
D03*
X261962Y68797D02*
D03*
Y61711D02*
D03*
X269461Y47254D02*
D03*
Y40167D02*
D03*
X269462Y61297D02*
D03*
Y54211D02*
D03*
X211741Y183917D02*
D03*
X203867D02*
D03*
X196001Y183957D02*
D03*
X188001D02*
D03*
X211741Y191004D02*
D03*
X211739Y199697D02*
D03*
X350499Y192043D02*
D03*
X357999D02*
D03*
X342999D02*
D03*
X203867Y191004D02*
D03*
X203866Y199697D02*
D03*
X365499Y192043D02*
D03*
X136757Y136390D02*
D03*
X123156Y136390D02*
D03*
X86923Y136391D02*
D03*
X73321Y136390D02*
D03*
X37088Y136391D02*
D03*
X23487Y136390D02*
D03*
X211739Y206784D02*
D03*
X203866D02*
D03*
X144156Y129304D02*
D03*
Y136390D02*
D03*
X136757Y129304D02*
D03*
X123156Y129304D02*
D03*
X115856D02*
D03*
Y136390D02*
D03*
X94321Y129304D02*
D03*
Y136390D02*
D03*
X86923Y129304D02*
D03*
X73321Y129304D02*
D03*
X66021D02*
D03*
Y136390D02*
D03*
X44487Y129304D02*
D03*
Y136390D02*
D03*
X37088Y129304D02*
D03*
X23487Y129304D02*
D03*
X16187D02*
D03*
Y136390D02*
D03*
X196001Y191043D02*
D03*
X188001D02*
D03*
X365499Y184957D02*
D03*
X357999D02*
D03*
X350499D02*
D03*
X342999D02*
D03*
D12*
X102087Y323721D02*
D03*
X97087D02*
D03*
X92087D02*
D03*
X87087D02*
D03*
X102087Y302264D02*
D03*
X97087D02*
D03*
X92087D02*
D03*
X87087D02*
D03*
D13*
X130412Y342500D02*
D03*
X119388D02*
D03*
X81888Y342500D02*
D03*
X92912D02*
D03*
D14*
X102000Y288697D02*
D03*
X92000D02*
D03*
Y263303D02*
D03*
X102000D02*
D03*
X122000Y288697D02*
D03*
X112000D02*
D03*
Y263303D02*
D03*
X122000D02*
D03*
X72000Y288697D02*
D03*
X82000D02*
D03*
X72000Y263303D02*
D03*
X82000D02*
D03*
D15*
X126440Y331624D02*
D03*
X118960D02*
D03*
X122700Y322176D02*
D03*
D16*
X144209Y344000D02*
D03*
X157791D02*
D03*
D17*
X166308Y356791D02*
D03*
Y343209D02*
D03*
X177000Y376102D02*
D03*
Y362520D02*
D03*
D18*
X166800Y375512D02*
D03*
Y364488D02*
D03*
D19*
X202362Y340550D02*
D03*
X195276D02*
D03*
X119057Y315401D02*
D03*
X126143D02*
D03*
X101457Y341301D02*
D03*
X108543D02*
D03*
X101457Y333801D02*
D03*
X108543D02*
D03*
X88643Y333799D02*
D03*
X81557D02*
D03*
X78843Y302499D02*
D03*
X71757D02*
D03*
X86979Y143647D02*
D03*
X73165D02*
D03*
X136813Y143647D02*
D03*
X123000D02*
D03*
X37144Y143647D02*
D03*
X23331D02*
D03*
X143900Y143647D02*
D03*
X115913D02*
D03*
X94065Y143647D02*
D03*
X66079D02*
D03*
X44231D02*
D03*
X16244D02*
D03*
X351457Y158334D02*
D03*
X358543D02*
D03*
X351457Y136001D02*
D03*
X358543D02*
D03*
X351457Y147167D02*
D03*
X358543D02*
D03*
X351457Y169501D02*
D03*
X358543D02*
D03*
D20*
X134000Y226976D02*
D03*
Y249024D02*
D03*
X258000Y181390D02*
D03*
Y203437D02*
D03*
D21*
X35879Y241100D02*
D03*
X20721D02*
D03*
D22*
X46232Y227000D02*
D03*
X37768Y229559D02*
D03*
Y224441D02*
D03*
D23*
X138500Y180002D02*
D03*
Y203998D02*
D03*
X128500Y180002D02*
D03*
Y203998D02*
D03*
X118500Y180002D02*
D03*
Y203998D02*
D03*
X108500Y180002D02*
D03*
Y203998D02*
D03*
X98500Y180002D02*
D03*
Y203998D02*
D03*
X88500D02*
D03*
Y180002D02*
D03*
X19000Y203998D02*
D03*
Y180002D02*
D03*
X29000Y203998D02*
D03*
Y180002D02*
D03*
X39000Y203998D02*
D03*
Y180002D02*
D03*
X49000Y203998D02*
D03*
Y180002D02*
D03*
X59000Y203998D02*
D03*
Y180002D02*
D03*
X69000Y203998D02*
D03*
Y180002D02*
D03*
D24*
X238512Y204913D02*
D03*
X220402D02*
D03*
X229457D02*
D03*
D25*
Y181882D02*
D03*
D26*
X159995Y149994D02*
D03*
X154495Y155494D02*
D03*
X166506Y173005D02*
D03*
X172006Y167505D02*
D03*
X159506Y160505D02*
D03*
X165006Y155005D02*
D03*
X161495Y167994D02*
D03*
X166995Y162494D02*
D03*
D27*
X170582Y146106D02*
D03*
X202458Y130934D02*
D03*
X176150Y151674D02*
D03*
X171974Y147498D02*
D03*
X173366Y148890D02*
D03*
X174758Y150282D02*
D03*
X177542Y153066D02*
D03*
X178934Y154458D02*
D03*
X180326Y155850D02*
D03*
X181718Y157242D02*
D03*
X183110Y158634D02*
D03*
X184502Y160026D02*
D03*
X185894Y161418D02*
D03*
X209418Y137894D02*
D03*
X208026Y136502D02*
D03*
X206634Y135110D02*
D03*
X205242Y133718D02*
D03*
X203850Y132326D02*
D03*
X201066Y129542D02*
D03*
X199674Y128150D02*
D03*
X198282Y126758D02*
D03*
X196890Y125366D02*
D03*
X195498Y123974D02*
D03*
X194106Y122582D02*
D03*
D28*
X170582Y137894D02*
D03*
X194106Y161418D02*
D03*
X199674Y155850D02*
D03*
X185894Y122582D02*
D03*
X171974Y136502D02*
D03*
X181718Y126758D02*
D03*
X183110Y125366D02*
D03*
X195498Y160026D02*
D03*
X196890Y158634D02*
D03*
X198282Y157242D02*
D03*
X201066Y154458D02*
D03*
X202458Y153066D02*
D03*
X203850Y151674D02*
D03*
X205242Y150282D02*
D03*
X206634Y148890D02*
D03*
X208026Y147498D02*
D03*
X209418Y146106D02*
D03*
X184502Y123974D02*
D03*
X180326Y128150D02*
D03*
X178934Y129542D02*
D03*
X177542Y130934D02*
D03*
X176150Y132326D02*
D03*
X174758Y133718D02*
D03*
X173366Y135110D02*
D03*
D29*
X340000Y71842D02*
D03*
Y52157D02*
D03*
D30*
X182505Y111494D02*
D03*
X177005Y105994D02*
D03*
X177494Y116505D02*
D03*
X171994Y111005D02*
D03*
D31*
X234000Y152000D02*
D03*
X271000D02*
D03*
D41*
X364665Y320276D02*
D03*
Y370276D02*
D03*
D42*
X290551Y249016D02*
D03*
X337500Y319685D02*
D03*
D43*
X290551Y272638D02*
D03*
X158268Y225394D02*
D03*
Y296260D02*
D03*
X307972Y333465D02*
D03*
D44*
X45138Y364961D02*
D03*
X65138D02*
D03*
X85138D02*
D03*
X105138D02*
D03*
X125138D02*
D03*
X145138D02*
D03*
X31752Y18504D02*
D03*
X51752D02*
D03*
X71752D02*
D03*
X91752D02*
D03*
X111752D02*
D03*
X329468Y18504D02*
D03*
X299468D02*
D03*
X269468D02*
D03*
X317815Y364961D02*
D03*
X337815D02*
D03*
D45*
X25138D02*
D03*
X131752Y18504D02*
D03*
X239469Y18504D02*
D03*
X297815Y364961D02*
D03*
D46*
X51673Y276772D02*
D03*
X12303Y316929D02*
D03*
X51673D02*
D03*
X12303Y276772D02*
D03*
D47*
X31988Y266929D02*
D03*
D48*
X183976Y329134D02*
D03*
X173976D02*
D03*
X193976D02*
D03*
D49*
X203976D02*
D03*
D50*
X138500Y187000D02*
D03*
Y197000D02*
D03*
X128500Y187000D02*
D03*
Y197000D02*
D03*
X118500Y187000D02*
D03*
Y197000D02*
D03*
X108500Y187000D02*
D03*
Y197000D02*
D03*
X98500Y187000D02*
D03*
Y197000D02*
D03*
X88500Y187000D02*
D03*
Y197000D02*
D03*
X19000D02*
D03*
Y187000D02*
D03*
X29000Y197000D02*
D03*
Y187000D02*
D03*
X39000Y197000D02*
D03*
Y187000D02*
D03*
X49000Y197000D02*
D03*
Y187000D02*
D03*
X59000Y197000D02*
D03*
Y187000D02*
D03*
X69000Y197000D02*
D03*
Y187000D02*
D03*
D51*
X133500Y192000D02*
D03*
X93500D02*
D03*
X24000D02*
D03*
X64000D02*
D03*
D52*
X144224Y118110D02*
D03*
X115878Y53150D02*
D03*
Y118110D02*
D03*
X144224Y53150D02*
D03*
X94390Y118110D02*
D03*
X66043Y53150D02*
D03*
Y118110D02*
D03*
X94390Y53150D02*
D03*
X44555Y118110D02*
D03*
X16209Y53150D02*
D03*
Y118110D02*
D03*
X44555Y53150D02*
D03*
D53*
X357579Y268504D02*
D03*
X326083D02*
D03*
X357579Y240945D02*
D03*
X326083D02*
D03*
D54*
X368602Y295276D02*
D03*
X309547D02*
D03*
%TF.MD5,5e830871d3ee3143f0f69f4d295472b5*%
M02*
