%TF.GenerationSoftware,Altium Limited,Altium Designer,25.6.2 (33)*%
G04 Layer_Color=16711935*
%FSLAX25Y25*%
%MOIN*%
%TF.SameCoordinates,FE0DA3C0-2896-4111-9436-F88E09ACE2E6*%
%TF.FilePolarity,Negative*%
%TF.FileFunction,Soldermask,Bot*%
%TF.Part,Single*%
G01*
G75*
%TA.AperFunction,ComponentPad*%
%ADD93C,0.09300*%
%ADD94R,0.06706X0.06706*%
%ADD95C,0.06706*%
%ADD96C,0.10839*%
%ADD97R,0.10839X0.10839*%
%ADD98C,0.08477*%
%ADD99R,0.08477X0.08477*%
%ADD100C,0.06737*%
%ADD101R,0.06737X0.06737*%
%ADD102C,0.02808*%
%ADD103C,0.03103*%
%ADD104C,0.08674*%
%ADD105C,0.06312*%
%ADD106C,0.05524*%
%TA.AperFunction,ViaPad*%
%ADD107C,0.03162*%
%ADD108C,0.04737*%
%ADD109C,0.05564*%
%ADD110C,0.05524*%
%ADD111C,0.04737*%
D93*
X364665Y320276D02*
D03*
Y370276D02*
D03*
D94*
X290551Y249016D02*
D03*
X337500Y319685D02*
D03*
D95*
X290551Y272638D02*
D03*
X158268Y225394D02*
D03*
Y296260D02*
D03*
X307972Y333465D02*
D03*
D96*
X45138Y364961D02*
D03*
X65138D02*
D03*
X85138D02*
D03*
X105138D02*
D03*
X125138D02*
D03*
X145138D02*
D03*
X31752Y18504D02*
D03*
X51752D02*
D03*
X71752D02*
D03*
X91752D02*
D03*
X111752D02*
D03*
X329468Y18504D02*
D03*
X299468D02*
D03*
X269468D02*
D03*
X317815Y364961D02*
D03*
X337815D02*
D03*
D97*
X25138D02*
D03*
X131752Y18504D02*
D03*
X239469Y18504D02*
D03*
X297815Y364961D02*
D03*
D98*
X51673Y276772D02*
D03*
X12303Y316929D02*
D03*
X51673D02*
D03*
X12303Y276772D02*
D03*
D99*
X31988Y266929D02*
D03*
D100*
X183976Y329134D02*
D03*
X173976D02*
D03*
X193976D02*
D03*
D101*
X203976D02*
D03*
D102*
X138500Y187000D02*
D03*
Y197000D02*
D03*
X128500Y187000D02*
D03*
Y197000D02*
D03*
X118500Y187000D02*
D03*
Y197000D02*
D03*
X108500Y187000D02*
D03*
Y197000D02*
D03*
X98500Y187000D02*
D03*
Y197000D02*
D03*
X88500Y187000D02*
D03*
Y197000D02*
D03*
X19000D02*
D03*
Y187000D02*
D03*
X29000Y197000D02*
D03*
Y187000D02*
D03*
X39000Y197000D02*
D03*
Y187000D02*
D03*
X49000Y197000D02*
D03*
Y187000D02*
D03*
X59000Y197000D02*
D03*
Y187000D02*
D03*
X69000Y197000D02*
D03*
Y187000D02*
D03*
D103*
X133500Y192000D02*
D03*
X93500D02*
D03*
X24000D02*
D03*
X64000D02*
D03*
D104*
X144224Y118110D02*
D03*
X115878Y53150D02*
D03*
Y118110D02*
D03*
X144224Y53150D02*
D03*
X94390Y118110D02*
D03*
X66043Y53150D02*
D03*
Y118110D02*
D03*
X94390Y53150D02*
D03*
X44555Y118110D02*
D03*
X16209Y53150D02*
D03*
Y118110D02*
D03*
X44555Y53150D02*
D03*
D105*
X357579Y268504D02*
D03*
X326083D02*
D03*
X357579Y240945D02*
D03*
X326083D02*
D03*
D106*
X368602Y295276D02*
D03*
X309547D02*
D03*
D107*
X122000Y352000D02*
D03*
X118000D02*
D03*
X114000D02*
D03*
X110000D02*
D03*
X114000Y328000D02*
D03*
Y324000D02*
D03*
X286000Y103000D02*
D03*
X282000D02*
D03*
X286000Y107000D02*
D03*
X282000D02*
D03*
X286000Y111000D02*
D03*
X282000D02*
D03*
X250000Y103000D02*
D03*
X246000D02*
D03*
X250000Y107000D02*
D03*
X246000D02*
D03*
X250000Y111000D02*
D03*
X246000D02*
D03*
X18000Y172000D02*
D03*
X22000D02*
D03*
X26000D02*
D03*
X18000Y168000D02*
D03*
X22000D02*
D03*
X26000D02*
D03*
X18000Y164000D02*
D03*
X22000D02*
D03*
X26000D02*
D03*
X103000Y231000D02*
D03*
X107000D02*
D03*
X111000D02*
D03*
X103000Y227000D02*
D03*
X107000D02*
D03*
X111000D02*
D03*
X103000Y223000D02*
D03*
X107000D02*
D03*
X111000D02*
D03*
X199000Y111000D02*
D03*
X203000D02*
D03*
X207000D02*
D03*
X199000Y107000D02*
D03*
X203000D02*
D03*
X207000D02*
D03*
X199000Y103000D02*
D03*
X203000D02*
D03*
X207000D02*
D03*
X372000Y111000D02*
D03*
X376000D02*
D03*
X380000D02*
D03*
X372000Y107000D02*
D03*
X376000D02*
D03*
X380000D02*
D03*
X372000Y103000D02*
D03*
X376000D02*
D03*
X380000D02*
D03*
X301000Y190000D02*
D03*
X305000D02*
D03*
X309000D02*
D03*
X301000Y186000D02*
D03*
X305000D02*
D03*
X309000D02*
D03*
X301000Y182000D02*
D03*
X305000D02*
D03*
X309000D02*
D03*
X14000Y164000D02*
D03*
X10000D02*
D03*
X6000D02*
D03*
X14000Y168000D02*
D03*
X10000D02*
D03*
X6000D02*
D03*
X14000Y172000D02*
D03*
X10000D02*
D03*
X6000D02*
D03*
X114000Y320000D02*
D03*
X184000Y339000D02*
D03*
Y343000D02*
D03*
Y377000D02*
D03*
Y381000D02*
D03*
X126000Y295000D02*
D03*
X222500Y146000D02*
D03*
X216000Y158000D02*
D03*
Y153500D02*
D03*
Y162500D02*
D03*
Y149000D02*
D03*
X219089Y142911D02*
D03*
X150000Y182000D02*
D03*
X153000Y196500D02*
D03*
X193500D02*
D03*
X150000Y191000D02*
D03*
X181500D02*
D03*
X122407Y173407D02*
D03*
X215839Y139661D02*
D03*
D108*
X338000Y164000D02*
D03*
Y152500D02*
D03*
Y141000D02*
D03*
X53500Y213500D02*
D03*
X49000Y164500D02*
D03*
X105500D02*
D03*
X99167D02*
D03*
X92833D02*
D03*
X86500D02*
D03*
D109*
X211500Y175000D02*
D03*
X114500Y161500D02*
D03*
D110*
X145000Y257000D02*
D03*
X7000Y243000D02*
D03*
X134000Y332000D02*
D03*
X95000Y334000D02*
D03*
D111*
X59000Y164500D02*
D03*
X39000D02*
D03*
%TF.MD5,c23a058990ceaf9a5627d036250a1b1c*%
M02*
