%TF.GenerationSoftware,Altium Limited,Altium Designer,25.6.2 (33)*%
G04 Layer_Color=0*
%FSLAX25Y25*%
%MOIN*%
%TF.SameCoordinates,FE0DA3C0-2896-4111-9436-F88E09ACE2E6*%
%TF.FilePolarity,Positive*%
%TF.FileFunction,Plated,1,2,PTH,Drill*%
%TF.Part,Single*%
G01*
G75*
%TA.AperFunction,ComponentDrill*%
%ADD128C,0.03500*%
%ADD129C,0.03937*%
%ADD130C,0.06693*%
%ADD131C,0.05118*%
%ADD132C,0.03937*%
%ADD133C,0.03543*%
%ADD134C,0.03347*%
%TA.AperFunction,ViaDrill,NotFilled*%
%ADD135C,0.01181*%
%ADD136C,0.01968*%
%ADD137C,0.02402*%
%ADD138C,0.02362*%
D128*
X364665Y320276D02*
D03*
Y370276D02*
D03*
D129*
X290551Y249016D02*
D03*
Y272638D02*
D03*
X158268Y225394D02*
D03*
Y296260D02*
D03*
X183976Y329134D02*
D03*
X173976D02*
D03*
X203976D02*
D03*
X193976D02*
D03*
X337500Y319685D02*
D03*
X307972Y333465D02*
D03*
D130*
X45138Y364961D02*
D03*
X65138D02*
D03*
X25138D02*
D03*
X85138D02*
D03*
X105138D02*
D03*
X125138D02*
D03*
X145138D02*
D03*
X31752Y18504D02*
D03*
X51752D02*
D03*
X71752D02*
D03*
X91752D02*
D03*
X111752D02*
D03*
X131752D02*
D03*
X329468Y18504D02*
D03*
X299468D02*
D03*
X269468D02*
D03*
X239469D02*
D03*
X317815Y364961D02*
D03*
X337815D02*
D03*
X297815D02*
D03*
D131*
X51673Y276772D02*
D03*
X31988Y266929D02*
D03*
X12303Y316929D02*
D03*
X51673D02*
D03*
X12303Y276772D02*
D03*
D132*
X144224Y118110D02*
D03*
X115878Y53150D02*
D03*
Y118110D02*
D03*
X144224Y53150D02*
D03*
X94390Y118110D02*
D03*
X66043Y53150D02*
D03*
Y118110D02*
D03*
X94390Y53150D02*
D03*
X44555Y118110D02*
D03*
X16209Y53150D02*
D03*
Y118110D02*
D03*
X44555Y53150D02*
D03*
D133*
X357579Y268504D02*
D03*
X326083D02*
D03*
X357579Y240945D02*
D03*
X326083D02*
D03*
D134*
X368602Y295276D02*
D03*
X309547D02*
D03*
D135*
X122000Y352000D02*
D03*
X118000D02*
D03*
X114000D02*
D03*
X110000D02*
D03*
X114000Y328000D02*
D03*
Y324000D02*
D03*
X286000Y103000D02*
D03*
X282000D02*
D03*
X286000Y107000D02*
D03*
X282000D02*
D03*
X286000Y111000D02*
D03*
X282000D02*
D03*
X250000Y103000D02*
D03*
X246000D02*
D03*
X250000Y107000D02*
D03*
X246000D02*
D03*
X250000Y111000D02*
D03*
X246000D02*
D03*
X18000Y172000D02*
D03*
X22000D02*
D03*
X26000D02*
D03*
X18000Y168000D02*
D03*
X22000D02*
D03*
X26000D02*
D03*
X18000Y164000D02*
D03*
X22000D02*
D03*
X26000D02*
D03*
X103000Y231000D02*
D03*
X107000D02*
D03*
X111000D02*
D03*
X103000Y227000D02*
D03*
X107000D02*
D03*
X111000D02*
D03*
X103000Y223000D02*
D03*
X107000D02*
D03*
X111000D02*
D03*
X199000Y111000D02*
D03*
X203000D02*
D03*
X207000D02*
D03*
X199000Y107000D02*
D03*
X203000D02*
D03*
X207000D02*
D03*
X199000Y103000D02*
D03*
X203000D02*
D03*
X207000D02*
D03*
X372000Y111000D02*
D03*
X376000D02*
D03*
X380000D02*
D03*
X372000Y107000D02*
D03*
X376000D02*
D03*
X380000D02*
D03*
X372000Y103000D02*
D03*
X376000D02*
D03*
X380000D02*
D03*
X301000Y190000D02*
D03*
X305000D02*
D03*
X309000D02*
D03*
X301000Y186000D02*
D03*
X305000D02*
D03*
X309000D02*
D03*
X301000Y182000D02*
D03*
X305000D02*
D03*
X309000D02*
D03*
X14000Y164000D02*
D03*
X10000D02*
D03*
X6000D02*
D03*
X14000Y168000D02*
D03*
X10000D02*
D03*
X6000D02*
D03*
X14000Y172000D02*
D03*
X10000D02*
D03*
X6000D02*
D03*
X114000Y320000D02*
D03*
X184000Y339000D02*
D03*
Y343000D02*
D03*
Y377000D02*
D03*
Y381000D02*
D03*
X126000Y295000D02*
D03*
X222500Y146000D02*
D03*
X216000Y158000D02*
D03*
Y153500D02*
D03*
Y162500D02*
D03*
Y149000D02*
D03*
X219089Y142911D02*
D03*
X150000Y182000D02*
D03*
X153000Y196500D02*
D03*
X193500D02*
D03*
X150000Y191000D02*
D03*
X181500D02*
D03*
X122407Y173407D02*
D03*
X215839Y139661D02*
D03*
D136*
X338000Y164000D02*
D03*
Y152500D02*
D03*
Y141000D02*
D03*
X53500Y213500D02*
D03*
X59000Y164500D02*
D03*
X39000D02*
D03*
X49000D02*
D03*
X105500D02*
D03*
X99167D02*
D03*
X92833D02*
D03*
X86500D02*
D03*
D137*
X211500Y175000D02*
D03*
X114500Y161500D02*
D03*
D138*
X145000Y257000D02*
D03*
X7000Y243000D02*
D03*
X134000Y332000D02*
D03*
X95000Y334000D02*
D03*
%TF.MD5,0b31b221b98790a56a1c727b4ba2cbc2*%
M02*
