%TF.GenerationSoftware,Altium Limited,Altium Designer,25.6.2 (33)*%
G04 Layer_Color=8388736*
%FSLAX25Y25*%
%MOIN*%
%TF.SameCoordinates,FE0DA3C0-2896-4111-9436-F88E09ACE2E6*%
%TF.FilePolarity,Positive*%
%TF.FileFunction,Other,Top_Component_Outline*%
%TF.Part,Single*%
G01*
G75*
%TA.AperFunction,NonConductor*%
%ADD116C,0.00197*%
%ADD117R,0.02559X0.05512*%
%ADD118R,0.05512X0.02559*%
%ADD119R,0.02953X0.06890*%
%ADD120R,0.05709X0.02953*%
%ADD121R,0.06890X0.02953*%
%ADD122R,0.02953X0.05709*%
G04:AMPARAMS|DCode=123|XSize=29.53mil|YSize=57.09mil|CornerRadius=0mil|HoleSize=0mil|Usage=FLASHONLY|Rotation=225.000|XOffset=0mil|YOffset=0mil|HoleType=Round|Shape=Rectangle|*
%AMROTATEDRECTD123*
4,1,4,-0.00974,0.03062,0.03062,-0.00974,0.00974,-0.03062,-0.03062,0.00974,-0.00974,0.03062,0.0*
%
%ADD123ROTATEDRECTD123*%

G04:AMPARAMS|DCode=124|XSize=29.53mil|YSize=57.09mil|CornerRadius=0mil|HoleSize=0mil|Usage=FLASHONLY|Rotation=135.000|XOffset=0mil|YOffset=0mil|HoleType=Round|Shape=Rectangle|*
%AMROTATEDRECTD124*
4,1,4,0.03062,0.00974,-0.00974,-0.03062,-0.03062,-0.00974,0.00974,0.03062,0.03062,0.00974,0.0*
%
%ADD124ROTATEDRECTD124*%

D116*
X356181Y158333D02*
G03*
X356181Y158333I-1181J0D01*
G01*
Y136000D02*
G03*
X356181Y136000I-1181J0D01*
G01*
Y147167D02*
G03*
X356181Y147167I-1181J0D01*
G01*
Y169500D02*
G03*
X356181Y169500I-1181J0D01*
G01*
X43244Y234669D02*
X48756D01*
Y243331D01*
X43244D02*
X48756D01*
X43244Y234669D02*
Y243331D01*
X118306Y345945D02*
X131494D01*
Y339055D02*
Y345945D01*
X118306Y339055D02*
X131494D01*
X118306D02*
Y345945D01*
X157579Y322441D02*
X163287D01*
Y331102D01*
X157579D02*
X163287D01*
X157579Y322441D02*
Y331102D01*
X163355Y363405D02*
Y376594D01*
X170245D01*
Y363405D02*
Y376594D01*
X163355Y363405D02*
X170245D01*
X203150Y337697D02*
Y343406D01*
X194488D02*
X203150D01*
X194488Y337697D02*
Y343406D01*
Y337697D02*
X203150D01*
X123446Y309131D02*
X129154D01*
X123446Y300469D02*
Y309131D01*
Y300469D02*
X129154D01*
Y309131D01*
X116046D02*
X121754D01*
X116046Y300469D02*
Y309131D01*
Y300469D02*
X121754D01*
Y309131D01*
X118269Y312546D02*
Y318254D01*
Y312546D02*
X126931D01*
Y318254D01*
X118269D02*
X126931D01*
X100669Y338544D02*
Y344056D01*
Y338544D02*
X109331D01*
Y344056D01*
X100669D02*
X109331D01*
X100669Y330946D02*
Y336654D01*
Y330946D02*
X109331D01*
Y336654D01*
X100669D02*
X109331D01*
X76744Y315969D02*
X82256D01*
Y324631D01*
X76744D02*
X82256D01*
X76744Y315969D02*
Y324631D01*
X80805Y339055D02*
X93994D01*
X80805D02*
Y345945D01*
X93994D01*
Y339055D02*
Y345945D01*
X69244Y315969D02*
X74756D01*
Y324631D01*
X69244D02*
X74756D01*
X69244Y315969D02*
Y324631D01*
X89431Y331044D02*
Y336556D01*
X80769D02*
X89431D01*
X80769Y331044D02*
Y336556D01*
Y331044D02*
X89431D01*
X79631Y299744D02*
Y305256D01*
X70969D02*
X79631D01*
X70969Y299744D02*
Y305256D01*
Y299744D02*
X79631D01*
X109244Y246669D02*
X114756D01*
Y255331D01*
X109244D02*
X114756D01*
X109244Y246669D02*
Y255331D01*
X89244Y246669D02*
X94756D01*
Y255331D01*
X89244D02*
X94756D01*
X89244Y246669D02*
Y255331D01*
X79244Y246669D02*
X84756D01*
Y255331D01*
X79244D02*
X84756D01*
X79244Y246669D02*
Y255331D01*
X28444Y222569D02*
X33956D01*
Y231231D01*
X28444D02*
X33956D01*
X28444Y222569D02*
Y231231D01*
X20844Y222569D02*
X26356D01*
Y231231D01*
X20844D02*
X26356D01*
X20844Y222569D02*
Y231231D01*
X140646Y160669D02*
X146354D01*
Y169331D01*
X140646D02*
X146354D01*
X140646Y160669D02*
Y169331D01*
X133244D02*
X138756D01*
X133244Y160669D02*
Y169331D01*
Y160669D02*
X138756D01*
Y169331D01*
X125744D02*
X131256D01*
X125744Y160669D02*
Y169331D01*
Y160669D02*
X131256D01*
Y169331D01*
X118244D02*
X123756D01*
X118244Y160669D02*
Y169331D01*
Y160669D02*
X123756D01*
Y169331D01*
X294147Y129014D02*
X299659D01*
X294147Y120352D02*
Y129014D01*
Y120352D02*
X299659D01*
Y129014D01*
X301549Y114353D02*
X307258D01*
Y123014D01*
X301549D02*
X307258D01*
X301549Y114353D02*
Y123014D01*
X294147Y106852D02*
X299659D01*
Y115514D01*
X294147D02*
X299659D01*
X294147Y106852D02*
Y115514D01*
Y70514D02*
X299659D01*
X294147Y61853D02*
Y70514D01*
Y61853D02*
X299659D01*
Y70514D01*
X294147Y100514D02*
X299659D01*
X294147Y91852D02*
Y100514D01*
Y91852D02*
X299659D01*
Y100514D01*
X301549Y108014D02*
X307258D01*
X301549Y99353D02*
Y108014D01*
Y99353D02*
X307258D01*
Y108014D01*
X301647Y93014D02*
X307159D01*
X301647Y84352D02*
Y93014D01*
Y84352D02*
X307159D01*
Y93014D01*
X294147Y85514D02*
X299659D01*
X294147Y76853D02*
Y85514D01*
Y76853D02*
X299659D01*
Y85514D01*
X301647Y78014D02*
X307159D01*
X301647Y69353D02*
Y78014D01*
Y69353D02*
X307159D01*
Y78014D01*
X301647Y63014D02*
X307159D01*
X301647Y54352D02*
Y63014D01*
Y54352D02*
X307159D01*
Y63014D01*
X301647Y48971D02*
X307159D01*
X301647Y40309D02*
Y48971D01*
Y40309D02*
X307159D01*
Y48971D01*
X223244Y128331D02*
X228756D01*
X223244Y119669D02*
Y128331D01*
Y119669D02*
X228756D01*
Y128331D01*
X230646Y113669D02*
X236354D01*
Y122331D01*
X230646D02*
X236354D01*
X230646Y113669D02*
Y122331D01*
X223244Y106169D02*
X228756D01*
Y114831D01*
X223244D02*
X228756D01*
X223244Y106169D02*
Y114831D01*
X230646Y107331D02*
X236354D01*
X230646Y98669D02*
Y107331D01*
Y98669D02*
X236354D01*
Y107331D01*
X223244Y99831D02*
X228756D01*
X223244Y91169D02*
Y99831D01*
Y91169D02*
X228756D01*
Y99831D01*
X230744Y92331D02*
X236256D01*
X230744Y83669D02*
Y92331D01*
Y83669D02*
X236256D01*
Y92331D01*
X223244Y84831D02*
X228756D01*
X223244Y76169D02*
Y84831D01*
Y76169D02*
X228756D01*
Y84831D01*
X223244Y69831D02*
X228756D01*
X223244Y61169D02*
Y69831D01*
Y61169D02*
X228756D01*
Y69831D01*
X230744Y77331D02*
X236256D01*
X230744Y68669D02*
Y77331D01*
Y68669D02*
X236256D01*
Y77331D01*
X230744Y62331D02*
X236256D01*
X230744Y53669D02*
Y62331D01*
Y53669D02*
X236256D01*
Y62331D01*
X230743Y48287D02*
X236255D01*
X230743Y39626D02*
Y48287D01*
Y39626D02*
X236255D01*
Y48287D01*
X259206Y128085D02*
X264717D01*
X259206Y119423D02*
Y128085D01*
Y119423D02*
X264717D01*
Y128085D01*
X266607Y113423D02*
X272316D01*
Y122085D01*
X266607D02*
X272316D01*
X266607Y113423D02*
Y122085D01*
X259206Y105923D02*
X264717D01*
Y114585D01*
X259206D02*
X264717D01*
X259206Y105923D02*
Y114585D01*
X266607Y107085D02*
X272316D01*
X266607Y98423D02*
Y107085D01*
Y98423D02*
X272316D01*
Y107085D01*
X259206Y99585D02*
X264717D01*
X259206Y90923D02*
Y99585D01*
Y90923D02*
X264717D01*
Y99585D01*
X266706Y92085D02*
X272217D01*
X266706Y83423D02*
Y92085D01*
Y83423D02*
X272217D01*
Y92085D01*
X259206Y84585D02*
X264717D01*
X259206Y75923D02*
Y84585D01*
Y75923D02*
X264717D01*
Y84585D01*
X266706Y77085D02*
X272217D01*
X266706Y68423D02*
Y77085D01*
Y68423D02*
X272217D01*
Y77085D01*
X259206Y69585D02*
X264717D01*
X259206Y60923D02*
Y69585D01*
Y60923D02*
X264717D01*
Y69585D01*
X266705Y48041D02*
X272217D01*
X266705Y39380D02*
Y48041D01*
Y39380D02*
X272217D01*
Y48041D01*
X266706Y62085D02*
X272217D01*
X266706Y53423D02*
Y62085D01*
Y53423D02*
X272217D01*
Y62085D01*
X141401Y128516D02*
X146913D01*
Y137178D01*
X141401D02*
X146913D01*
X141401Y128516D02*
Y137178D01*
X134001Y137178D02*
X139513D01*
X134001Y128516D02*
Y137178D01*
Y128516D02*
X139513D01*
Y137178D01*
X155956Y152919D02*
X162081Y159044D01*
X151919Y156956D02*
X155956Y152919D01*
X151919Y156956D02*
X158044Y163081D01*
X162081Y159044D01*
X161456Y147419D02*
X167581Y153544D01*
X157419Y151456D02*
X161456Y147419D01*
X157419Y151456D02*
X163544Y157581D01*
X167581Y153544D01*
X165044Y175581D02*
X169081Y171544D01*
X158919Y169456D02*
X165044Y175581D01*
X158919Y169456D02*
X162956Y165419D01*
X169081Y171544D01*
X170544Y170081D02*
X174581Y166044D01*
X164419Y163956D02*
X170544Y170081D01*
X164419Y163956D02*
X168456Y159919D01*
X174581Y166044D01*
X120401Y128516D02*
X125913D01*
Y137178D01*
X120401D02*
X125913D01*
X120401Y128516D02*
Y137178D01*
X113101Y128516D02*
X118613D01*
Y137178D01*
X113101D02*
X118613D01*
X113101Y128516D02*
Y137178D01*
X144687Y140793D02*
Y146502D01*
X136026D02*
X144687D01*
X136026Y140793D02*
Y146502D01*
Y140793D02*
X144687D01*
X91566Y128516D02*
X97078D01*
Y137178D01*
X91566D02*
X97078D01*
X91566Y128516D02*
Y137178D01*
X84166Y137178D02*
X89678D01*
X84166Y128516D02*
Y137178D01*
Y128516D02*
X89678D01*
Y137178D01*
X123787Y140793D02*
Y146502D01*
X115126D02*
X123787D01*
X115126Y140793D02*
Y146502D01*
Y140793D02*
X123787D01*
X94853Y140793D02*
Y146502D01*
X86191D02*
X94853D01*
X86191Y140793D02*
Y146502D01*
Y140793D02*
X94853D01*
X70566Y128516D02*
X76078D01*
Y137178D01*
X70566D02*
X76078D01*
X70566Y128516D02*
Y137178D01*
X63266Y128516D02*
X68778D01*
Y137178D01*
X63266D02*
X68778D01*
X63266Y128516D02*
Y137178D01*
X73953Y140793D02*
Y146502D01*
X65291D02*
X73953D01*
X65291Y140793D02*
Y146502D01*
Y140793D02*
X73953D01*
X41732Y128516D02*
X47243D01*
Y137178D01*
X41732D02*
X47243D01*
X41732Y128516D02*
Y137178D01*
X34332Y137178D02*
X39843D01*
X34332Y128516D02*
Y137178D01*
Y128516D02*
X39843D01*
Y137178D01*
X45018Y140793D02*
Y146502D01*
X36357D02*
X45018D01*
X36357Y140793D02*
Y146502D01*
Y140793D02*
X45018D01*
X20731Y128516D02*
X26243D01*
Y137178D01*
X20731D02*
X26243D01*
X20731Y128516D02*
Y137178D01*
X24118Y140793D02*
Y146502D01*
X15457D02*
X24118D01*
X15457Y140793D02*
Y146502D01*
Y140793D02*
X24118D01*
X13431Y128516D02*
X18943D01*
Y137178D01*
X13431D02*
X18943D01*
X13431Y128516D02*
Y137178D01*
X181044Y108919D02*
X185081Y112956D01*
X178956Y119081D02*
X185081Y112956D01*
X174919Y115044D02*
X178956Y119081D01*
X174919Y115044D02*
X181044Y108919D01*
X175544Y103419D02*
X179581Y107456D01*
X173456Y113581D02*
X179581Y107456D01*
X169419Y109544D02*
X173456Y113581D01*
X169419Y109544D02*
X175544Y103419D01*
X208886Y191791D02*
X214595D01*
X208886Y183130D02*
Y191791D01*
Y183130D02*
X214595D01*
Y191791D01*
X208886Y198909D02*
X214595D01*
Y207571D01*
X208886D02*
X214595D01*
X208886Y198909D02*
Y207571D01*
X201012Y198909D02*
X206720D01*
Y207571D01*
X201012D02*
X206720D01*
X201012Y198909D02*
Y207571D01*
Y191791D02*
X206720D01*
X201012Y183130D02*
Y191791D01*
Y183130D02*
X206720D01*
Y191791D01*
X193244Y191831D02*
X198756D01*
X193244Y183169D02*
Y191831D01*
Y183169D02*
X198756D01*
Y191831D01*
X185244D02*
X190756D01*
X185244Y183169D02*
Y191831D01*
Y183169D02*
X190756D01*
Y191831D01*
X355000Y156365D02*
Y160302D01*
X353031Y158333D02*
X356968D01*
X355000Y134031D02*
Y137969D01*
X353031Y136000D02*
X356968D01*
X355000Y145198D02*
Y149135D01*
X353031Y147167D02*
X356968D01*
X355000Y167532D02*
Y171468D01*
X353031Y169500D02*
X356968D01*
X362744Y184169D02*
X368256D01*
Y192831D01*
X362744D02*
X368256D01*
X362744Y184169D02*
Y192831D01*
X355244Y184169D02*
X360756D01*
Y192831D01*
X355244D02*
X360756D01*
X355244Y184169D02*
Y192831D01*
X347744Y184169D02*
X353256D01*
Y192831D01*
X347744D02*
X353256D01*
X347744Y184169D02*
Y192831D01*
X340244Y184169D02*
X345756D01*
Y192831D01*
X340244D02*
X345756D01*
X340244Y184169D02*
Y192831D01*
D117*
X101949Y341300D02*
D03*
X108051Y341300D02*
D03*
X88151Y333800D02*
D03*
X82049Y333800D02*
D03*
X78351Y302500D02*
D03*
X72249Y302500D02*
D03*
D118*
X46000Y235949D02*
D03*
X46000Y242052D02*
D03*
X79500Y317249D02*
D03*
X79500Y323351D02*
D03*
X72000Y317249D02*
D03*
X72000Y323351D02*
D03*
X112000Y247949D02*
D03*
X112000Y254051D02*
D03*
X92000Y247949D02*
D03*
X92000Y254051D02*
D03*
X82000Y247949D02*
D03*
X82000Y254051D02*
D03*
X31200Y223849D02*
D03*
X31200Y229952D02*
D03*
X23600Y223849D02*
D03*
X23600Y229952D02*
D03*
X136000Y168051D02*
D03*
Y161949D02*
D03*
X128500Y168051D02*
D03*
Y161949D02*
D03*
X121000Y168051D02*
D03*
Y161949D02*
D03*
X296903Y127734D02*
D03*
X296903Y121632D02*
D03*
X296904Y108132D02*
D03*
X296902Y114235D02*
D03*
X296903Y69234D02*
D03*
X296903Y63132D02*
D03*
X296903Y99234D02*
D03*
X296904Y93132D02*
D03*
X304403Y91734D02*
D03*
X304403Y85632D02*
D03*
X296903Y84234D02*
D03*
X296903Y78132D02*
D03*
X304403Y76734D02*
D03*
X304403Y70632D02*
D03*
X304403Y61734D02*
D03*
X304403Y55632D02*
D03*
X304403Y47691D02*
D03*
X304403Y41589D02*
D03*
X226000Y127051D02*
D03*
X226000Y120949D02*
D03*
X226000Y107449D02*
D03*
X226000Y113551D02*
D03*
X226000Y98551D02*
D03*
X226000Y92448D02*
D03*
X233500Y91051D02*
D03*
X233500Y84948D02*
D03*
X226000Y83551D02*
D03*
X226000Y77448D02*
D03*
Y68551D02*
D03*
X226000Y62448D02*
D03*
X233500Y76051D02*
D03*
X233500Y69948D02*
D03*
X233500Y61051D02*
D03*
X233500Y54948D02*
D03*
X233500Y47007D02*
D03*
X233500Y40905D02*
D03*
X261962Y126805D02*
D03*
X261962Y120703D02*
D03*
X261961Y107203D02*
D03*
X261961Y113305D02*
D03*
X261962Y98305D02*
D03*
X261962Y92203D02*
D03*
X269462Y90805D02*
D03*
X269462Y84702D02*
D03*
X261962Y83305D02*
D03*
X261962Y77203D02*
D03*
X269462Y75805D02*
D03*
X269462Y69703D02*
D03*
X261962Y68305D02*
D03*
X261962Y62203D02*
D03*
X269461Y46762D02*
D03*
X269461Y40659D02*
D03*
X269462Y60805D02*
D03*
X269462Y54703D02*
D03*
X144156Y129797D02*
D03*
X144156Y135899D02*
D03*
X136757Y135898D02*
D03*
X136757Y129796D02*
D03*
X123156Y129797D02*
D03*
X123156Y135899D02*
D03*
X115856Y129797D02*
D03*
X115856Y135899D02*
D03*
X94322Y129796D02*
D03*
X94322Y135899D02*
D03*
X86923Y135898D02*
D03*
X86923Y129796D02*
D03*
X73322Y129797D02*
D03*
X73322Y135899D02*
D03*
X66022Y129797D02*
D03*
X66022Y135899D02*
D03*
X44487Y129796D02*
D03*
Y135899D02*
D03*
X37088Y135898D02*
D03*
Y129796D02*
D03*
X23487Y129797D02*
D03*
Y135899D02*
D03*
X16187Y129797D02*
D03*
X16187Y135899D02*
D03*
X196000Y190551D02*
D03*
Y184449D02*
D03*
X188000Y190551D02*
D03*
Y184449D02*
D03*
X365500Y185450D02*
D03*
Y191552D02*
D03*
X358000Y185450D02*
D03*
Y191552D02*
D03*
X350500Y185449D02*
D03*
Y191552D02*
D03*
X343000Y185450D02*
D03*
Y191552D02*
D03*
D119*
X130018Y342500D02*
D03*
X119782D02*
D03*
X82282Y342500D02*
D03*
X92518D02*
D03*
D120*
X160434Y323917D02*
D03*
X160433Y329725D02*
D03*
X126300Y307657D02*
D03*
X126298Y301847D02*
D03*
X118898Y307659D02*
D03*
X118896Y301846D02*
D03*
X143509Y162138D02*
D03*
X143508Y167962D02*
D03*
X304410Y115829D02*
D03*
X304403Y121641D02*
D03*
X304404Y106539D02*
D03*
X304402Y100732D02*
D03*
X233506Y115142D02*
D03*
X233503Y120959D02*
D03*
X233498Y105863D02*
D03*
X233491Y100045D02*
D03*
X269470Y114898D02*
D03*
X269464Y120716D02*
D03*
X269461Y105610D02*
D03*
X269460Y99801D02*
D03*
X211740Y190315D02*
D03*
X211740Y184508D02*
D03*
X211743Y200386D02*
D03*
X211740Y206195D02*
D03*
X203868Y200386D02*
D03*
X203866Y206195D02*
D03*
X203867Y190315D02*
D03*
X203866Y184509D02*
D03*
D121*
X166800Y375118D02*
D03*
Y364882D02*
D03*
D122*
X201673Y340552D02*
D03*
X195865Y340551D02*
D03*
X119746Y315392D02*
D03*
X125561Y315400D02*
D03*
X102146Y333792D02*
D03*
X107961Y333800D02*
D03*
X143211Y143648D02*
D03*
X137403Y143647D02*
D03*
X122312Y143649D02*
D03*
X116502Y143648D02*
D03*
X93376Y143647D02*
D03*
X87569Y143647D02*
D03*
X72477Y143648D02*
D03*
X66669Y143647D02*
D03*
X43542Y143649D02*
D03*
X37735Y143647D02*
D03*
X22642Y143647D02*
D03*
X16834Y143648D02*
D03*
D123*
X154913Y155912D02*
D03*
X159018Y160017D02*
D03*
X160413Y150411D02*
D03*
X164517Y154518D02*
D03*
X166019Y172520D02*
D03*
X161910Y168413D02*
D03*
X171519Y167020D02*
D03*
X167410Y162913D02*
D03*
D124*
X182018Y111981D02*
D03*
X177912Y116088D02*
D03*
X176518Y106482D02*
D03*
X172412Y110588D02*
D03*
%TF.MD5,0e6d91476b3633eb32c7fb92df390841*%
M02*
