%TF.GenerationSoftware,Altium Limited,Altium Designer,25.6.2 (33)*%
G04 Layer_Color=32896*
%FSLAX25Y25*%
%MOIN*%
%TF.SameCoordinates,FE0DA3C0-2896-4111-9436-F88E09ACE2E6*%
%TF.FilePolarity,Positive*%
%TF.FileFunction,Other,Top_Component_Center*%
%TF.Part,Single*%
G01*
G75*
%TA.AperFunction,NonConductor*%
%ADD116C,0.00197*%
%ADD117R,0.02559X0.05512*%
D116*
X365846Y345276D02*
G03*
X365846Y345276I-1181J0D01*
G01*
X225590Y260827D02*
G03*
X225590Y260827I-1181J0D01*
G01*
X178181Y349000D02*
G03*
X178181Y349000I-1181J0D01*
G01*
X47181Y239000D02*
G03*
X47181Y239000I-1181J0D01*
G01*
X33144Y292939D02*
G03*
X33144Y292939I-1181J0D01*
G01*
X95768Y312992D02*
G03*
X95768Y312992I-1181J0D01*
G01*
X126081Y342500D02*
G03*
X126081Y342500I-1181J0D01*
G01*
X98181Y276000D02*
G03*
X98181Y276000I-1181J0D01*
G01*
X118181D02*
G03*
X118181Y276000I-1181J0D01*
G01*
X123881Y326900D02*
G03*
X123881Y326900I-1181J0D01*
G01*
X152181Y344000D02*
G03*
X152181Y344000I-1181J0D01*
G01*
X161614Y326772D02*
G03*
X161614Y326772I-1181J0D01*
G01*
X167489Y350000D02*
G03*
X167489Y350000I-1181J0D01*
G01*
X167981Y370000D02*
G03*
X167981Y370000I-1181J0D01*
G01*
X178181Y369311D02*
G03*
X178181Y369311I-1181J0D01*
G01*
X200000Y340551D02*
G03*
X200000Y340551I-1181J0D01*
G01*
X190157Y320866D02*
G03*
X190157Y320866I-1181J0D01*
G01*
X127481Y304800D02*
G03*
X127481Y304800I-1181J0D01*
G01*
X120081D02*
G03*
X120081Y304800I-1181J0D01*
G01*
X123781Y315400D02*
G03*
X123781Y315400I-1181J0D01*
G01*
X106181Y341300D02*
G03*
X106181Y341300I-1181J0D01*
G01*
Y333800D02*
G03*
X106181Y333800I-1181J0D01*
G01*
X80681Y320300D02*
G03*
X80681Y320300I-1181J0D01*
G01*
X88581Y342500D02*
G03*
X88581Y342500I-1181J0D01*
G01*
X73181Y320300D02*
G03*
X73181Y320300I-1181J0D01*
G01*
X86281Y333800D02*
G03*
X86281Y333800I-1181J0D01*
G01*
X76481Y302500D02*
G03*
X76481Y302500I-1181J0D01*
G01*
X78181Y276000D02*
G03*
X78181Y276000I-1181J0D01*
G01*
X135181Y238000D02*
G03*
X135181Y238000I-1181J0D01*
G01*
X113181Y251000D02*
G03*
X113181Y251000I-1181J0D01*
G01*
X93181D02*
G03*
X93181Y251000I-1181J0D01*
G01*
X83181D02*
G03*
X83181Y251000I-1181J0D01*
G01*
X32381Y226900D02*
G03*
X32381Y226900I-1181J0D01*
G01*
X24781D02*
G03*
X24781Y226900I-1181J0D01*
G01*
X29481Y241100D02*
G03*
X29481Y241100I-1181J0D01*
G01*
X43181Y227000D02*
G03*
X43181Y227000I-1181J0D01*
G01*
X114681Y192000D02*
G03*
X114681Y192000I-1181J0D01*
G01*
X45181D02*
G03*
X45181Y192000I-1181J0D01*
G01*
X144681Y165000D02*
G03*
X144681Y165000I-1181J0D01*
G01*
X137181D02*
G03*
X137181Y165000I-1181J0D01*
G01*
X129681D02*
G03*
X129681Y165000I-1181J0D01*
G01*
X122181D02*
G03*
X122181Y165000I-1181J0D01*
G01*
X298084Y124683D02*
G03*
X298084Y124683I-1181J0D01*
G01*
X305585Y118683D02*
G03*
X305585Y118683I-1181J0D01*
G01*
X298084Y111183D02*
G03*
X298084Y111183I-1181J0D01*
G01*
Y66183D02*
G03*
X298084Y66183I-1181J0D01*
G01*
Y96183D02*
G03*
X298084Y96183I-1181J0D01*
G01*
X305585Y103683D02*
G03*
X305585Y103683I-1181J0D01*
G01*
Y88683D02*
G03*
X305585Y88683I-1181J0D01*
G01*
X298084Y81183D02*
G03*
X298084Y81183I-1181J0D01*
G01*
X305585Y73683D02*
G03*
X305585Y73683I-1181J0D01*
G01*
Y58683D02*
G03*
X305585Y58683I-1181J0D01*
G01*
X305584Y44640D02*
G03*
X305584Y44640I-1181J0D01*
G01*
X227181Y124000D02*
G03*
X227181Y124000I-1181J0D01*
G01*
X234681Y118000D02*
G03*
X234681Y118000I-1181J0D01*
G01*
X227181Y110500D02*
G03*
X227181Y110500I-1181J0D01*
G01*
X234681Y103000D02*
G03*
X234681Y103000I-1181J0D01*
G01*
X227181Y95500D02*
G03*
X227181Y95500I-1181J0D01*
G01*
X234681Y88000D02*
G03*
X234681Y88000I-1181J0D01*
G01*
X227181Y80500D02*
G03*
X227181Y80500I-1181J0D01*
G01*
Y65500D02*
G03*
X227181Y65500I-1181J0D01*
G01*
X234681Y73000D02*
G03*
X234681Y73000I-1181J0D01*
G01*
Y58000D02*
G03*
X234681Y58000I-1181J0D01*
G01*
X234681Y43957D02*
G03*
X234681Y43957I-1181J0D01*
G01*
X263143Y123754D02*
G03*
X263143Y123754I-1181J0D01*
G01*
X270643Y117754D02*
G03*
X270643Y117754I-1181J0D01*
G01*
X263143Y110254D02*
G03*
X263143Y110254I-1181J0D01*
G01*
X270643Y102754D02*
G03*
X270643Y102754I-1181J0D01*
G01*
X263143Y95254D02*
G03*
X263143Y95254I-1181J0D01*
G01*
X270643Y87754D02*
G03*
X270643Y87754I-1181J0D01*
G01*
X263143Y80254D02*
G03*
X263143Y80254I-1181J0D01*
G01*
X270643Y72754D02*
G03*
X270643Y72754I-1181J0D01*
G01*
X263143Y65254D02*
G03*
X263143Y65254I-1181J0D01*
G01*
X270642Y43711D02*
G03*
X270642Y43711I-1181J0D01*
G01*
X270643Y57754D02*
G03*
X270643Y57754I-1181J0D01*
G01*
X230638Y193398D02*
G03*
X230638Y193398I-1181J0D01*
G01*
X145338Y132847D02*
G03*
X145338Y132847I-1181J0D01*
G01*
X137938Y132847D02*
G03*
X137938Y132847I-1181J0D01*
G01*
X158181Y158000D02*
G03*
X158181Y158000I-1181J0D01*
G01*
X163681Y152500D02*
G03*
X163681Y152500I-1181J0D01*
G01*
X165181Y170500D02*
G03*
X165181Y170500I-1181J0D01*
G01*
X170681Y165000D02*
G03*
X170681Y165000I-1181J0D01*
G01*
X124338Y132847D02*
G03*
X124338Y132847I-1181J0D01*
G01*
X117038D02*
G03*
X117038Y132847I-1181J0D01*
G01*
X141538Y143647D02*
G03*
X141538Y143647I-1181J0D01*
G01*
X95503Y132847D02*
G03*
X95503Y132847I-1181J0D01*
G01*
X88103Y132847D02*
G03*
X88103Y132847I-1181J0D01*
G01*
X120638Y143647D02*
G03*
X120638Y143647I-1181J0D01*
G01*
X91703Y143647D02*
G03*
X91703Y143647I-1181J0D01*
G01*
X74503Y132847D02*
G03*
X74503Y132847I-1181J0D01*
G01*
X67203D02*
G03*
X67203Y132847I-1181J0D01*
G01*
X70803Y143647D02*
G03*
X70803Y143647I-1181J0D01*
G01*
X45669Y132847D02*
G03*
X45669Y132847I-1181J0D01*
G01*
X38269Y132847D02*
G03*
X38269Y132847I-1181J0D01*
G01*
X41868Y143647D02*
G03*
X41868Y143647I-1181J0D01*
G01*
X24668Y132847D02*
G03*
X24668Y132847I-1181J0D01*
G01*
X20968Y143647D02*
G03*
X20968Y143647I-1181J0D01*
G01*
X131232Y85630D02*
G03*
X131232Y85630I-1181J0D01*
G01*
X81398Y85630D02*
G03*
X81398Y85630I-1181J0D01*
G01*
X31563D02*
G03*
X31563Y85630I-1181J0D01*
G01*
X17368Y132847D02*
G03*
X17368Y132847I-1181J0D01*
G01*
X253181Y152000D02*
G03*
X253181Y152000I-1181J0D01*
G01*
X181181Y114000D02*
G03*
X181181Y114000I-1181J0D01*
G01*
X175681Y108500D02*
G03*
X175681Y108500I-1181J0D01*
G01*
X191181Y142000D02*
G03*
X191181Y142000I-1181J0D01*
G01*
X212921Y187461D02*
G03*
X212921Y187461I-1181J0D01*
G01*
Y203240D02*
G03*
X212921Y203240I-1181J0D01*
G01*
X205047D02*
G03*
X205047Y203240I-1181J0D01*
G01*
Y187461D02*
G03*
X205047Y187461I-1181J0D01*
G01*
X197181Y187500D02*
G03*
X197181Y187500I-1181J0D01*
G01*
X189181D02*
G03*
X189181Y187500I-1181J0D01*
G01*
X341181Y62000D02*
G03*
X341181Y62000I-1181J0D01*
G01*
X366681Y188500D02*
G03*
X366681Y188500I-1181J0D01*
G01*
X359181D02*
G03*
X359181Y188500I-1181J0D01*
G01*
X351681D02*
G03*
X351681Y188500I-1181J0D01*
G01*
X344181D02*
G03*
X344181Y188500I-1181J0D01*
G01*
X259181Y192413D02*
G03*
X259181Y192413I-1181J0D01*
G01*
X343012Y254724D02*
G03*
X343012Y254724I-1181J0D01*
G01*
X340256Y295276D02*
G03*
X340256Y295276I-1181J0D01*
G01*
X362697Y345276D02*
X366634D01*
X364665Y343307D02*
Y347244D01*
X224410Y258858D02*
Y262795D01*
X222441Y260827D02*
X226378D01*
X177000Y347031D02*
Y350969D01*
X175031Y349000D02*
X178969D01*
X44032Y239000D02*
X47969D01*
X46000Y237032D02*
Y240968D01*
X29995Y292939D02*
X33932D01*
X31963Y290970D02*
Y294907D01*
X94587Y311024D02*
Y314961D01*
X92618Y312992D02*
X96555D01*
X124900Y340531D02*
Y344468D01*
X122932Y342500D02*
X126868D01*
X97000Y274031D02*
Y277969D01*
X95031Y276000D02*
X98968D01*
X117000Y274031D02*
Y277969D01*
X115032Y276000D02*
X118968D01*
X122700Y324932D02*
Y328869D01*
X120731Y326900D02*
X124669D01*
X149031Y344000D02*
X152969D01*
X151000Y342032D02*
Y345969D01*
X160433Y324803D02*
Y328740D01*
X158465Y326772D02*
X162402D01*
X166308Y348031D02*
Y351969D01*
X164339Y350000D02*
X168276D01*
X164831Y370000D02*
X168769D01*
X166800Y368032D02*
Y371969D01*
X177000Y367342D02*
Y371280D01*
X175031Y369311D02*
X178969D01*
X196850Y340551D02*
X200787D01*
X198819Y338583D02*
Y342520D01*
X187008Y320866D02*
X190945D01*
X188976Y318898D02*
Y322835D01*
X126300Y302832D02*
Y306768D01*
X124331Y304800D02*
X128269D01*
X118900Y302832D02*
Y306768D01*
X116931Y304800D02*
X120869D01*
X120632Y315400D02*
X124568D01*
X122600Y313432D02*
Y317369D01*
X105000Y339332D02*
Y343268D01*
X103032Y341300D02*
X106968D01*
X103032Y333800D02*
X106968D01*
X105000Y331832D02*
Y335769D01*
X77531Y320300D02*
X81468D01*
X79500Y318332D02*
Y322269D01*
X87400Y340531D02*
Y344468D01*
X85431Y342500D02*
X89368D01*
X70031Y320300D02*
X73968D01*
X72000Y318332D02*
Y322269D01*
X85100Y331832D02*
Y335769D01*
X83131Y333800D02*
X87068D01*
X75300Y300532D02*
Y304468D01*
X73331Y302500D02*
X77268D01*
X77000Y274031D02*
Y277969D01*
X75032Y276000D02*
X78969D01*
X134000Y236032D02*
Y239968D01*
X132032Y238000D02*
X135968D01*
X110031Y251000D02*
X113969D01*
X112000Y249031D02*
Y252969D01*
X90031Y251000D02*
X93968D01*
X92000Y249031D02*
Y252969D01*
X80032Y251000D02*
X83969D01*
X82000Y249031D02*
Y252969D01*
X29232Y226900D02*
X33169D01*
X31200Y224932D02*
Y228869D01*
X21632Y226900D02*
X25569D01*
X23600Y224932D02*
Y228869D01*
X26331Y241100D02*
X30268D01*
X28300Y239131D02*
Y243069D01*
X40031Y227000D02*
X43968D01*
X42000Y225031D02*
Y228969D01*
X111531Y192000D02*
X115469D01*
X113500Y190032D02*
Y193968D01*
X44000Y190032D02*
Y193968D01*
X42031Y192000D02*
X45968D01*
X143500Y163031D02*
Y166969D01*
X141532Y165000D02*
X145468D01*
X134031D02*
X137969D01*
X136000Y163031D02*
Y166969D01*
X126532Y165000D02*
X130468D01*
X128500Y163031D02*
Y166969D01*
X119032Y165000D02*
X122968D01*
X121000Y163031D02*
Y166969D01*
X294935Y124683D02*
X298872D01*
X296903Y122715D02*
Y126652D01*
X304403Y116715D02*
Y120652D01*
X302435Y118683D02*
X306372D01*
X294935Y111183D02*
X298872D01*
X296903Y109215D02*
Y113152D01*
X294935Y66183D02*
X298872D01*
X296903Y64215D02*
Y68152D01*
X294935Y96183D02*
X298872D01*
X296903Y94215D02*
Y98152D01*
X304403Y101715D02*
Y105652D01*
X302435Y103683D02*
X306372D01*
X302435Y88683D02*
X306372D01*
X304403Y86715D02*
Y90652D01*
X294935Y81183D02*
X298872D01*
X296903Y79215D02*
Y83152D01*
X302435Y73683D02*
X306372D01*
X304403Y71715D02*
Y75652D01*
X302435Y58683D02*
X306372D01*
X304403Y56715D02*
Y60652D01*
X302434Y44640D02*
X306371D01*
X304403Y42671D02*
Y46608D01*
X224031Y124000D02*
X227969D01*
X226000Y122031D02*
Y125969D01*
X233500Y116032D02*
Y119968D01*
X231532Y118000D02*
X235469D01*
X224031Y110500D02*
X227969D01*
X226000Y108531D02*
Y112469D01*
X233500Y101031D02*
Y104969D01*
X231532Y103000D02*
X235469D01*
X224031Y95500D02*
X227969D01*
X226000Y93532D02*
Y97469D01*
X231532Y88000D02*
X235469D01*
X233500Y86032D02*
Y89969D01*
X224031Y80500D02*
X227969D01*
X226000Y78531D02*
Y82468D01*
X224031Y65500D02*
X227969D01*
X226000Y63532D02*
Y67469D01*
X231532Y73000D02*
X235469D01*
X233500Y71031D02*
Y74968D01*
X231532Y58000D02*
X235469D01*
X233500Y56032D02*
Y59969D01*
X231531Y43957D02*
X235468D01*
X233499Y41988D02*
Y45925D01*
X259993Y123754D02*
X263930D01*
X261962Y121785D02*
Y125723D01*
X269461Y115786D02*
Y119722D01*
X267493Y117754D02*
X271430D01*
X259993Y110254D02*
X263930D01*
X261962Y108285D02*
Y112223D01*
X269461Y100786D02*
Y104722D01*
X267493Y102754D02*
X271430D01*
X259993Y95254D02*
X263930D01*
X261962Y93286D02*
Y97223D01*
X267493Y87754D02*
X271430D01*
X269461Y85786D02*
Y89723D01*
X259993Y80254D02*
X263930D01*
X261962Y78285D02*
Y82222D01*
X267493Y72754D02*
X271430D01*
X269461Y70785D02*
Y74722D01*
X259993Y65254D02*
X263930D01*
X261962Y63285D02*
Y67222D01*
X267492Y43711D02*
X271429D01*
X269461Y41742D02*
Y45679D01*
X267493Y57754D02*
X271430D01*
X269461Y55786D02*
Y59723D01*
X227488Y193398D02*
X231425D01*
X229457Y191429D02*
Y195366D01*
X142188Y132847D02*
X146125D01*
X144157Y130879D02*
Y134816D01*
X134788Y132847D02*
X138725D01*
X136757Y130879D02*
Y134816D01*
X155608Y159392D02*
X158392Y156608D01*
X155608D02*
X158392Y159392D01*
X161108Y153892D02*
X163892Y151108D01*
X161108D02*
X163892Y153892D01*
X162608Y169108D02*
X165392Y171892D01*
X162608D02*
X165392Y169108D01*
X168108Y163608D02*
X170892Y166392D01*
X168108D02*
X170892Y163608D01*
X121188Y132847D02*
X125125D01*
X123157Y130879D02*
Y134816D01*
X113888Y132847D02*
X117825D01*
X115857Y130879D02*
Y134816D01*
X138388Y143647D02*
X142325D01*
X140357Y141679D02*
Y145616D01*
X92353Y132847D02*
X96290D01*
X94322Y130879D02*
Y134816D01*
X84953Y132847D02*
X88890D01*
X86922Y130879D02*
Y134816D01*
X117488Y143647D02*
X121425D01*
X119457Y141679D02*
Y145616D01*
X88554Y143647D02*
X92491D01*
X90522Y141679D02*
Y145616D01*
X71354Y132847D02*
X75291D01*
X73322Y130879D02*
Y134816D01*
X64053Y132847D02*
X67990D01*
X66022Y130879D02*
Y134816D01*
X67654Y143647D02*
X71591D01*
X69622Y141679D02*
Y145616D01*
X42519Y132847D02*
X46456D01*
X44487Y130879D02*
Y134816D01*
X35119Y132847D02*
X39056D01*
X37087Y130879D02*
Y134816D01*
X38719Y143647D02*
X42656D01*
X40687Y141679D02*
Y145616D01*
X21519Y132847D02*
X25456D01*
X23487Y130879D02*
Y134816D01*
X17819Y143647D02*
X21756D01*
X19787Y141679D02*
Y145616D01*
X130051Y83661D02*
Y87598D01*
X128083Y85630D02*
X132020D01*
X80216Y83661D02*
Y87598D01*
X78248Y85630D02*
X82185D01*
X30382Y83661D02*
Y87598D01*
X28413Y85630D02*
X32350D01*
X14219Y132847D02*
X18156D01*
X16187Y130879D02*
Y134816D01*
X252000Y150031D02*
Y153969D01*
X250031Y152000D02*
X253969D01*
X178608Y115392D02*
X181392Y112608D01*
X178608D02*
X181392Y115392D01*
X173108Y109892D02*
X175892Y107108D01*
X173108D02*
X175892Y109892D01*
X188608Y140608D02*
X191392Y143392D01*
X188608D02*
X191392Y140608D01*
X211740Y185492D02*
Y189429D01*
X209772Y187461D02*
X213709D01*
X211740Y201272D02*
Y205209D01*
X209772Y203240D02*
X213709D01*
X203866Y201272D02*
Y205209D01*
X201898Y203240D02*
X205835D01*
X203866Y185492D02*
Y189429D01*
X201898Y187461D02*
X205835D01*
X194032Y187500D02*
X197968D01*
X196000Y185531D02*
Y189469D01*
X186031Y187500D02*
X189969D01*
X188000Y185531D02*
Y189469D01*
X338032Y62000D02*
X341968D01*
X340000Y60031D02*
Y63968D01*
X350669Y155577D02*
Y161089D01*
Y155577D02*
X359331D01*
Y161089D01*
X350669D02*
X359331D01*
X350669Y133244D02*
Y138756D01*
Y133244D02*
X359331D01*
Y138756D01*
X350669D02*
X359331D01*
X350669Y144411D02*
Y149923D01*
Y144411D02*
X359331D01*
Y149923D01*
X350669D02*
X359331D01*
X350669Y166744D02*
Y172256D01*
Y166744D02*
X359331D01*
Y172256D01*
X350669D02*
X359331D01*
X363531Y188500D02*
X367469D01*
X365500Y186531D02*
Y190469D01*
X356031Y188500D02*
X359968D01*
X358000Y186531D02*
Y190469D01*
X348532Y188500D02*
X352468D01*
X350500Y186531D02*
Y190469D01*
X341032Y188500D02*
X344969D01*
X343000Y186531D02*
Y190469D01*
X258000Y190445D02*
Y194382D01*
X256031Y192413D02*
X259968D01*
X339862Y254724D02*
X343799D01*
X341831Y252756D02*
Y256693D01*
X339075Y293307D02*
Y297244D01*
X337106Y295276D02*
X341043D01*
D117*
X351949Y158334D02*
D03*
X358052D02*
D03*
X351950Y136001D02*
D03*
X358052D02*
D03*
X351949Y147167D02*
D03*
X358052D02*
D03*
X351950Y169500D02*
D03*
X358052D02*
D03*
%TF.MD5,a11a29bb70a00b16604f0f7579efa671*%
M02*
