%TF.GenerationSoftware,Altium Limited,Altium Designer,25.6.2 (33)*%
G04 Layer_Color=16711935*
%FSLAX25Y25*%
%MOIN*%
%TF.SameCoordinates,FE0DA3C0-2896-4111-9436-F88E09ACE2E6*%
%TF.FilePolarity,Positive*%
%TF.FileFunction,Keep-out,Top*%
%TF.Part,Single*%
G01*
G75*
%TA.AperFunction,NonConductor*%
%ADD63C,0.00591*%
%ADD112C,0.03000*%
%ADD113C,0.04000*%
D63*
X375984Y47244D02*
X383858D01*
X0Y196850D02*
Y336614D01*
X7874Y37402D02*
Y47244D01*
Y187008D02*
Y196850D01*
X0D02*
X7874D01*
X0Y346457D02*
Y383858D01*
Y346457D02*
X7874D01*
Y336614D02*
Y346457D01*
X0Y336614D02*
X7874D01*
X375984Y37402D02*
X383858D01*
X375984Y196850D02*
X383858D01*
X375984Y187008D02*
X383858D01*
X375984D02*
Y196850D01*
Y336614D02*
X383858D01*
X375984D02*
Y346457D01*
X383858D01*
X0Y37402D02*
X7874D01*
X0Y187008D02*
X7874D01*
X0Y47244D02*
X7874D01*
X0D02*
Y187008D01*
X0Y383858D02*
X383858D01*
X0Y0D02*
X383858D01*
X383858Y346457D02*
Y383858D01*
Y196850D02*
Y336614D01*
X383858Y47244D02*
Y187008D01*
Y0D02*
Y37402D01*
X0Y0D02*
Y37402D01*
X375984Y37402D02*
Y47244D01*
D112*
X253400Y55200D02*
X253500Y14000D01*
X285150Y55200D02*
X285250Y14000D01*
X316900Y55200D02*
X317000Y14000D01*
X318500Y256500D02*
X363500D01*
X61000Y300000D02*
Y330000D01*
D113*
X291000Y207000D02*
X350000D01*
X14500Y254500D02*
X48500D01*
X258000Y240000D02*
Y295000D01*
Y240000D02*
X291000Y207000D01*
%TF.MD5,f2fc155f4444c85cba718ec45cf473e6*%
M02*
