%TF.GenerationSoftware,Altium Limited,Altium Designer,25.6.2 (33)*%
G04 Layer_Color=32896*
%FSLAX25Y25*%
%MOIN*%
%TF.SameCoordinates,FE0DA3C0-2896-4111-9436-F88E09ACE2E6*%
%TF.FilePolarity,Positive*%
%TF.FileFunction,Other,Top_Courtyard*%
%TF.Part,Single*%
G01*
G75*
%TA.AperFunction,NonConductor*%
%ADD64C,0.00500*%
%ADD116C,0.00197*%
D64*
X149606Y215551D02*
Y306102D01*
X299213D01*
Y215551D02*
Y306102D01*
X149606Y215551D02*
X299213D01*
D116*
X148622Y307087D02*
X300197D01*
Y214567D02*
Y307087D01*
X148622Y214567D02*
X300197D01*
X148622D02*
Y307087D01*
X172768Y339256D02*
X181232D01*
X172768Y358744D02*
X181232D01*
X172768Y339256D02*
Y358744D01*
X181232Y339256D02*
Y358744D01*
X159272Y348622D02*
Y384055D01*
X11004Y348622D02*
Y384055D01*
X159272D01*
X11004Y348622D02*
X159272D01*
X49543Y232307D02*
Y245693D01*
X42457D02*
X49543D01*
X42457Y232307D02*
X49543D01*
X42457D02*
Y245693D01*
X6594Y260433D02*
Y325394D01*
Y260433D02*
X57382D01*
Y325394D01*
X6594D02*
X57382D01*
X105413Y298425D02*
Y327559D01*
X83760Y298425D02*
Y327559D01*
X105413D01*
X83760Y298425D02*
X105413D01*
X115845Y337776D02*
X133955D01*
X115845Y347224D02*
X133955D01*
X115845Y337776D02*
Y347224D01*
X133955Y337776D02*
Y347224D01*
X105858Y259071D02*
Y292929D01*
X88142Y259071D02*
Y292929D01*
X105858D01*
X88142Y259071D02*
X105858D01*
X125858D02*
Y292929D01*
X108142Y259071D02*
Y292929D01*
X125858D01*
X108142Y259071D02*
X125858D01*
X115810Y334479D02*
X129590D01*
X115810Y319321D02*
X129590D01*
Y334479D01*
X115810Y319321D02*
Y334479D01*
X141256Y339768D02*
Y348232D01*
X160744Y339768D02*
Y348232D01*
X141256D02*
X160744D01*
X141256Y339768D02*
X160744D01*
X156890Y320079D02*
X163976D01*
X156890Y333465D02*
X163976D01*
X156890Y320079D02*
Y333465D01*
X163976Y320079D02*
Y333465D01*
X162076Y359744D02*
X170540D01*
X162076Y340256D02*
X170540D01*
Y359744D01*
X162076Y340256D02*
Y359744D01*
X171524Y360945D02*
Y379055D01*
X162076Y360945D02*
Y379055D01*
Y360945D02*
X171524D01*
X162076Y379055D02*
X171524D01*
X172768Y379055D02*
X181232D01*
X172768Y359567D02*
X181232D01*
Y379055D01*
X172768Y359567D02*
Y379055D01*
X205512Y337008D02*
Y344094D01*
X192126Y337008D02*
Y344094D01*
Y337008D02*
X205512D01*
X192126Y344094D02*
X205512D01*
X165157Y333661D02*
X212795D01*
Y308071D02*
Y333661D01*
X165157Y308071D02*
X212795D01*
X165157D02*
Y333661D01*
X122757Y311493D02*
X129843D01*
X122757Y298107D02*
X129843D01*
Y311493D01*
X122757Y298107D02*
Y311493D01*
X115357D02*
X122443D01*
X115357Y298107D02*
X122443D01*
Y311493D01*
X115357Y298107D02*
Y311493D01*
X115907Y311857D02*
Y318943D01*
X129293Y311857D02*
Y318943D01*
X115907D02*
X129293D01*
X115907Y311857D02*
X129293D01*
X98307Y337757D02*
X111693D01*
Y344843D01*
X98307Y337757D02*
Y344843D01*
X111693D01*
X98307Y330257D02*
Y337343D01*
X111693Y330257D02*
Y337343D01*
X98307D02*
X111693D01*
X98307Y330257D02*
X111693D01*
X83043Y313607D02*
Y326993D01*
X75957D02*
X83043D01*
X75957Y313607D02*
X83043D01*
X75957D02*
Y326993D01*
X78345Y347224D02*
X96455D01*
X78345Y337776D02*
X96455D01*
Y347224D01*
X78345Y337776D02*
Y347224D01*
X75543Y313607D02*
Y326993D01*
X68457D02*
X75543D01*
X68457Y313607D02*
X75543D01*
X68457D02*
Y326993D01*
X78407Y337343D02*
X91793D01*
X78407Y330257D02*
Y337343D01*
X91793Y330257D02*
Y337343D01*
X78407Y330257D02*
X91793D01*
X68607Y306043D02*
X81993D01*
X68607Y298957D02*
Y306043D01*
X81993Y298957D02*
Y306043D01*
X68607Y298957D02*
X81993D01*
X68142Y259071D02*
Y292929D01*
X85858Y259071D02*
Y292929D01*
X68142Y259071D02*
X85858D01*
X68142Y292929D02*
X85858D01*
X120500Y219500D02*
Y256500D01*
Y219500D02*
X147500D01*
Y256500D01*
X120500D02*
X147500D01*
X115543Y244307D02*
Y257693D01*
X108457D02*
X115543D01*
X108457Y244307D02*
X115543D01*
X108457D02*
Y257693D01*
X95543Y244307D02*
Y257693D01*
X88457D02*
X95543D01*
X88457Y244307D02*
X95543D01*
X88457D02*
Y257693D01*
X85543Y244307D02*
Y257693D01*
X78457D02*
X85543D01*
X78457Y244307D02*
X85543D01*
X78457D02*
Y257693D01*
X34743Y220207D02*
Y233593D01*
X27657D02*
X34743D01*
X27657Y220207D02*
X34743D01*
X27657D02*
Y233593D01*
X27143Y220207D02*
Y233593D01*
X20057D02*
X27143D01*
X20057Y220207D02*
X27143D01*
X20057D02*
Y233593D01*
X14914Y234604D02*
X41686D01*
X14914Y247596D02*
X41686D01*
Y234604D02*
Y247596D01*
X14914Y234604D02*
Y247596D01*
X35209Y221685D02*
X48791D01*
X35209Y232315D02*
X48791D01*
Y221685D02*
Y232315D01*
X35209Y221685D02*
Y232315D01*
X78776Y211685D02*
X148224D01*
Y168781D02*
Y211685D01*
X78776Y168781D02*
X148224D01*
X78776D02*
Y211685D01*
X9276Y168781D02*
Y211685D01*
Y168781D02*
X78724D01*
Y211685D01*
X9276D02*
X78724D01*
X139957Y158307D02*
X147043D01*
X139957Y171693D02*
X147043D01*
X139957Y158307D02*
Y171693D01*
X147043Y158307D02*
Y171693D01*
X132457Y158307D02*
Y171693D01*
Y158307D02*
X139543D01*
X132457Y171693D02*
X139543D01*
Y158307D02*
Y171693D01*
X124957Y158307D02*
Y171693D01*
Y158307D02*
X132043D01*
X124957Y171693D02*
X132043D01*
Y158307D02*
Y171693D01*
X117457Y158307D02*
Y171693D01*
Y158307D02*
X124543D01*
X117457Y171693D02*
X124543D01*
Y158307D02*
Y171693D01*
X293360Y117990D02*
Y131376D01*
Y117990D02*
X300447D01*
X293360Y131376D02*
X300447D01*
Y117990D02*
Y131376D01*
X300860Y111990D02*
X307947D01*
X300860Y125376D02*
X307947D01*
X300860Y111990D02*
Y125376D01*
X307947Y111990D02*
Y125376D01*
X300447Y104490D02*
Y117876D01*
X293360D02*
X300447D01*
X293360Y104490D02*
X300447D01*
X293360D02*
Y117876D01*
Y59490D02*
Y72876D01*
Y59490D02*
X300447D01*
X293360Y72876D02*
X300447D01*
Y59490D02*
Y72876D01*
X293360Y89490D02*
Y102876D01*
Y89490D02*
X300447D01*
X293360Y102876D02*
X300447D01*
Y89490D02*
Y102876D01*
X300860Y110376D02*
X307947D01*
X300860Y96990D02*
X307947D01*
Y110376D01*
X300860Y96990D02*
Y110376D01*
Y81990D02*
Y95376D01*
Y81990D02*
X307947D01*
X300860Y95376D02*
X307947D01*
Y81990D02*
Y95376D01*
X293360Y74490D02*
Y87876D01*
Y74490D02*
X300447D01*
X293360Y87876D02*
X300447D01*
Y74490D02*
Y87876D01*
X300860Y66990D02*
Y80376D01*
Y66990D02*
X307947D01*
X300860Y80376D02*
X307947D01*
Y66990D02*
Y80376D01*
X300860Y51990D02*
Y65376D01*
Y51990D02*
X307947D01*
X300860Y65376D02*
X307947D01*
Y51990D02*
Y65376D01*
X300859Y37947D02*
Y51333D01*
Y37947D02*
X307946D01*
X300859Y51333D02*
X307946D01*
Y37947D02*
Y51333D01*
X222457Y117307D02*
Y130693D01*
Y117307D02*
X229543D01*
X222457Y130693D02*
X229543D01*
Y117307D02*
Y130693D01*
X229957Y111307D02*
X237043D01*
X229957Y124693D02*
X237043D01*
X229957Y111307D02*
Y124693D01*
X237043Y111307D02*
Y124693D01*
X229543Y103807D02*
Y117193D01*
X222457D02*
X229543D01*
X222457Y103807D02*
X229543D01*
X222457D02*
Y117193D01*
X229957Y109693D02*
X237043D01*
X229957Y96307D02*
X237043D01*
Y109693D01*
X229957Y96307D02*
Y109693D01*
X222457Y88807D02*
Y102193D01*
Y88807D02*
X229543D01*
X222457Y102193D02*
X229543D01*
Y88807D02*
Y102193D01*
X229957Y81307D02*
Y94693D01*
Y81307D02*
X237043D01*
X229957Y94693D02*
X237043D01*
Y81307D02*
Y94693D01*
X222457Y73807D02*
Y87193D01*
Y73807D02*
X229543D01*
X222457Y87193D02*
X229543D01*
Y73807D02*
Y87193D01*
X222457Y58807D02*
Y72193D01*
Y58807D02*
X229543D01*
X222457Y72193D02*
X229543D01*
Y58807D02*
Y72193D01*
X229957Y66307D02*
Y79693D01*
Y66307D02*
X237043D01*
X229957Y79693D02*
X237043D01*
Y66307D02*
Y79693D01*
X229957Y51307D02*
Y64693D01*
Y51307D02*
X237043D01*
X229957Y64693D02*
X237043D01*
Y51307D02*
Y64693D01*
X229956Y37264D02*
Y50650D01*
Y37264D02*
X237043D01*
X229956Y50650D02*
X237043D01*
Y37264D02*
Y50650D01*
X258418Y117061D02*
Y130447D01*
Y117061D02*
X265505D01*
X258418Y130447D02*
X265505D01*
Y117061D02*
Y130447D01*
X265918Y111061D02*
X273005D01*
X265918Y124447D02*
X273005D01*
X265918Y111061D02*
Y124447D01*
X273005Y111061D02*
Y124447D01*
X265505Y103561D02*
Y116947D01*
X258418D02*
X265505D01*
X258418Y103561D02*
X265505D01*
X258418D02*
Y116947D01*
X265918Y109447D02*
X273005D01*
X265918Y96061D02*
X273005D01*
Y109447D01*
X265918Y96061D02*
Y109447D01*
X258418Y88561D02*
Y101947D01*
Y88561D02*
X265505D01*
X258418Y101947D02*
X265505D01*
Y88561D02*
Y101947D01*
X265918Y81061D02*
Y94447D01*
Y81061D02*
X273005D01*
X265918Y94447D02*
X273005D01*
Y81061D02*
Y94447D01*
X258418Y73561D02*
Y86947D01*
Y73561D02*
X265505D01*
X258418Y86947D02*
X265505D01*
Y73561D02*
Y86947D01*
X265918Y66061D02*
Y79447D01*
Y66061D02*
X273005D01*
X265918Y79447D02*
X273005D01*
Y66061D02*
Y79447D01*
X258418Y58561D02*
Y71947D01*
Y58561D02*
X265505D01*
X258418Y71947D02*
X265505D01*
Y58561D02*
Y71947D01*
X265918Y37018D02*
Y50404D01*
Y37018D02*
X273004D01*
X265918Y50404D02*
X273004D01*
Y37018D02*
Y50404D01*
X265918Y51061D02*
Y64447D01*
Y51061D02*
X273005D01*
X265918Y64447D02*
X273005D01*
Y51061D02*
Y64447D01*
X215283Y210130D02*
X243630D01*
X215283Y176665D02*
X243630D01*
Y210130D01*
X215283Y176665D02*
Y210130D01*
X147700Y126154D02*
Y139540D01*
X140613D02*
X147700D01*
X140613Y126154D02*
X147700D01*
X140613D02*
Y139540D01*
X133213Y126154D02*
Y139540D01*
Y126154D02*
X140300D01*
X133213Y139540D02*
X140300D01*
Y126154D02*
Y139540D01*
X149762Y155773D02*
X159227Y165238D01*
X154773Y150762D02*
X164238Y160227D01*
X149762Y155773D02*
X154773Y150762D01*
X159227Y165238D02*
X164238Y160227D01*
X155262Y150273D02*
X164727Y159738D01*
X160273Y145262D02*
X169738Y154727D01*
X155262Y150273D02*
X160273Y145262D01*
X164727Y159738D02*
X169738Y154727D01*
X166227Y177738D02*
X171238Y172727D01*
X156762Y168273D02*
X161773Y163262D01*
X171238Y172727D01*
X156762Y168273D02*
X166227Y177738D01*
X171727Y172238D02*
X176738Y167227D01*
X162262Y162773D02*
X167273Y157762D01*
X176738Y167227D01*
X162262Y162773D02*
X171727Y172238D01*
X126700Y126154D02*
Y139540D01*
X119613D02*
X126700D01*
X119613Y126154D02*
X126700D01*
X119613D02*
Y139540D01*
X119400Y126154D02*
Y139540D01*
X112313D02*
X119400D01*
X112313Y126154D02*
X119400D01*
X112313D02*
Y139540D01*
X147050Y140104D02*
Y147190D01*
X133664Y140104D02*
Y147190D01*
Y140104D02*
X147050D01*
X133664Y147190D02*
X147050D01*
X97865Y126154D02*
Y139540D01*
X90779D02*
X97865D01*
X90779Y126154D02*
X97865D01*
X90779D02*
Y139540D01*
X83379Y126154D02*
Y139540D01*
Y126154D02*
X90465D01*
X83379Y139540D02*
X90465D01*
Y126154D02*
Y139540D01*
X126150Y140104D02*
Y147190D01*
X112764Y140104D02*
Y147190D01*
Y140104D02*
X126150D01*
X112764Y147190D02*
X126150D01*
X97215Y140104D02*
Y147191D01*
X83829Y140104D02*
Y147191D01*
Y140104D02*
X97215D01*
X83829Y147191D02*
X97215D01*
X76865Y126154D02*
Y139540D01*
X69779D02*
X76865D01*
X69779Y126154D02*
X76865D01*
X69779D02*
Y139540D01*
X69565Y126154D02*
Y139540D01*
X62479D02*
X69565D01*
X62479Y126154D02*
X69565D01*
X62479D02*
Y139540D01*
X76315Y140104D02*
Y147191D01*
X62929Y140104D02*
Y147191D01*
Y140104D02*
X76315D01*
X62929Y147191D02*
X76315D01*
X48031Y126154D02*
Y139540D01*
X40944D02*
X48031D01*
X40944Y126154D02*
X48031D01*
X40944D02*
Y139540D01*
X33544Y126154D02*
Y139540D01*
Y126154D02*
X40631D01*
X33544Y139540D02*
X40631D01*
Y126154D02*
Y139540D01*
X47380Y140104D02*
Y147191D01*
X33994Y140104D02*
Y147191D01*
Y140104D02*
X47380D01*
X33994Y147191D02*
X47380D01*
X27031Y126154D02*
Y139540D01*
X19944D02*
X27031D01*
X19944Y126154D02*
X27031D01*
X19944D02*
Y139540D01*
X26480Y140104D02*
Y147191D01*
X13094Y140104D02*
Y147191D01*
Y140104D02*
X26480D01*
X13094Y147191D02*
X26480D01*
X109382Y47244D02*
X150721D01*
X109382Y124016D02*
X150721D01*
X109382Y47244D02*
Y124016D01*
X150721Y47244D02*
Y124016D01*
X59547Y47244D02*
X100886D01*
X59547Y124016D02*
X100886D01*
X59547Y47244D02*
Y124016D01*
X100886Y47244D02*
Y124016D01*
X9712Y47244D02*
X51051D01*
X9712Y124016D02*
X51051D01*
X9712Y47244D02*
Y124016D01*
X51051Y47244D02*
Y124016D01*
X19731Y126154D02*
Y139540D01*
X12644D02*
X19731D01*
X12644Y126154D02*
X19731D01*
X12644D02*
Y139540D01*
X145886Y-591D02*
Y34843D01*
X17618Y-591D02*
Y34843D01*
Y-591D02*
X145886D01*
X17618Y34843D02*
X145886D01*
X223260Y141370D02*
Y162630D01*
Y141370D02*
X281528D01*
Y162630D01*
X223260D02*
X281528D01*
X182227Y106762D02*
X187238Y111773D01*
X172762Y116227D02*
X177773Y121238D01*
X172762Y116227D02*
X182227Y106762D01*
X177773Y121238D02*
X187238Y111773D01*
X176727Y101262D02*
X181738Y106273D01*
X167262Y110727D02*
X172273Y115738D01*
X167262Y110727D02*
X176727Y101262D01*
X172273Y115738D02*
X181738Y106273D01*
X190000Y113048D02*
X218952Y142000D01*
X161048D02*
X190000Y170952D01*
X218952Y142000D01*
X161048D02*
X190000Y113048D01*
X208197Y194153D02*
X215283D01*
X208197Y180768D02*
X215283D01*
Y194153D01*
X208197Y180768D02*
Y194153D01*
Y196547D02*
X215283D01*
X208197Y209933D02*
X215283D01*
X208197Y196547D02*
Y209933D01*
X215283Y196547D02*
Y209933D01*
X200323Y196547D02*
X207410D01*
X200323Y209933D02*
X207410D01*
X200323Y196547D02*
Y209933D01*
X207410Y196547D02*
Y209933D01*
X200323Y194153D02*
X207410D01*
X200323Y180768D02*
X207410D01*
Y194153D01*
X200323Y180768D02*
Y194153D01*
X192457Y180807D02*
Y194193D01*
Y180807D02*
X199543D01*
X192457Y194193D02*
X199543D01*
Y180807D02*
Y194193D01*
X184457Y180807D02*
Y194193D01*
Y180807D02*
X191543D01*
X184457Y194193D02*
X191543D01*
Y180807D02*
Y194193D01*
X224311Y-591D02*
Y34843D01*
Y-591D02*
X344626D01*
Y34843D01*
X224311D02*
X344626D01*
X333209Y47197D02*
Y76803D01*
X346791Y47197D02*
Y76803D01*
X333209Y47197D02*
X346791D01*
X333209Y76803D02*
X346791D01*
X369043Y181807D02*
Y195193D01*
X361957D02*
X369043D01*
X361957Y181807D02*
X369043D01*
X361957D02*
Y195193D01*
X361543Y181807D02*
Y195193D01*
X354457D02*
X361543D01*
X354457Y181807D02*
X361543D01*
X354457D02*
Y195193D01*
X354043Y181807D02*
Y195193D01*
X346957D02*
X354043D01*
X346957Y181807D02*
X354043D01*
X346957D02*
Y195193D01*
X346543Y181807D02*
Y195193D01*
X339457D02*
X346543D01*
X339457Y181807D02*
X346543D01*
X339457D02*
Y195193D01*
X271500Y173913D02*
Y210913D01*
X244500D02*
X271500D01*
X244500Y173913D02*
Y210913D01*
Y173913D02*
X271500D01*
X305283Y229224D02*
X378512D01*
Y280224D01*
X305283Y229224D02*
Y280224D01*
X378512D01*
X303642Y276575D02*
Y313976D01*
X374508D01*
Y276575D02*
Y313976D01*
X303642Y276575D02*
X374508D01*
X358366Y310630D02*
Y342520D01*
X287106D02*
X358366D01*
X287106Y310630D02*
Y342520D01*
Y310630D02*
X358366D01*
X351949Y348622D02*
Y384055D01*
X283681Y348622D02*
Y384055D01*
Y348622D02*
X351949D01*
X283681Y384055D02*
X351949D01*
%TF.MD5,7a16caba96137f591aa2042a9381c404*%
M02*
