M48
;Layer_Color=9474304
;FILE_FORMAT=2:4
INCH,LZ
;TYPE=PLATED
T01F00S00C0.0118
T02F00S00C0.0197
T03F00S00C0.0236
T04F00S00C0.0240
T05F00S00C0.0335
T06F00S00C0.0350
T07F00S00C0.0354
T08F00S00C0.0394
T09F00S00C0.0512
T10F00S00C0.0669
;TYPE=NON_PLATED
T11F00S00C0.0402
T12F00S00C0.0461
%
T01
X0282Y0103
X0286
Y0107
X0282
Y0111
X0286
X0372
X0376
X038
Y0107
X0376
X0372
Y0103
X0376
X038
X0309Y0182
Y0186
Y019
X0305
X0301
Y0186
X0305
Y0182
X0301
X0216Y01625
Y0158
Y01535
Y0149
X021909Y014291
X021584Y013966
X02225Y0146
X0207Y0111
X0203
X0199
Y0107
X0203
X0207
Y0103
X0203
X0199
X0246
X025
Y0107
X0246
Y0111
X025
X01935Y01965
X01815Y0191
X015
X0153Y01965
X015Y0182
X012241Y017341
X0026Y0172
X0022
X0018
Y0168
X0022
X0026
Y0164
X0022
X0018
X0014
X001
X0006
Y0168
X001
X0014
Y0172
X001
X0006
X0103Y0223
Y0227
Y0231
X0107
X0111
Y0227
X0107
Y0223
X0111
X0126Y0295
X0114Y032
Y0324
Y0328
Y0352
X0118
X0122
X011
X0184Y0343
Y0339
Y0377
Y0381
T02
X0338Y0141
Y01525
Y0164
X01055Y01645
X009917
X009283
X00865
X0059
X0049
X0039
X00535Y02135
T03
X0007Y0243
X0095Y0334
X0134Y0332
X0145Y0257
T04
X01145Y01615
X02115Y0175
T05
X030955Y029528
X03686
T06
X036467Y032028
Y037028
T07
X032608Y024094
Y02685
X035758
Y024094
T08
X011588Y005315
X014422
Y011811
X011588
X009439Y011811
X006604
X004456
X001621
Y005315
X004456
X006604
X009439
X015827Y022539
Y029626
X017398Y032913
X018398
X019398
X020398
X030797Y033346
X03375Y031969
X029055Y027264
Y024902
T09
X00123Y027677
X003199Y026693
X005167Y027677
Y031693
X00123
T10
X003175Y00185
X005175
X007175
X009175
X011175
X013175
X023947Y00185
X026947
X029947
X032947
X033781Y036496
X031781
X029781
X014514
X012514
X010514
X008514
X006514
X004514
X002514
T11
X01085Y0187
X01185
X01285
X01385
Y0197
X01285
X01185
X01085
X00985
Y0187
X00885
Y0197
X0069
X0059
X0049
X0039
X0029
X0019
Y0187
X0029
X0039
X0049
X0059
X0069
T12
X01335Y0192
X00935
X0064
X0024
M30
