%TF.GenerationSoftware,Altium Limited,Altium Designer,25.6.2 (33)*%
G04 Layer_Color=128*
%FSLAX25Y25*%
%MOIN*%
%TF.SameCoordinates,FE0DA3C0-2896-4111-9436-F88E09ACE2E6*%
%TF.FilePolarity,Positive*%
%TF.FileFunction,Drillmap*%
%TF.Part,Single*%
G01*
G75*
%TA.AperFunction,NonConductor*%
%ADD64C,0.00500*%
D64*
X362915Y320276D02*
X366415D01*
X364665Y318526D02*
Y322026D01*
X362915Y370276D02*
X366415D01*
X364665Y368526D02*
Y372026D01*
X288583Y249016D02*
X292520D01*
X290551Y247047D02*
Y250984D01*
X288583Y272638D02*
X292520D01*
X290551Y270669D02*
Y274606D01*
X156299Y225394D02*
X160236D01*
X158268Y223425D02*
Y227362D01*
X156299Y296260D02*
X160236D01*
X158268Y294291D02*
Y298228D01*
X41791Y364961D02*
X48484D01*
X45138Y361614D02*
Y368307D01*
X61791Y364961D02*
X68484D01*
X65138Y361614D02*
Y368307D01*
X21791Y364961D02*
X28484D01*
X25138Y361614D02*
Y368307D01*
X81791Y364961D02*
X88484D01*
X85138Y361614D02*
Y368307D01*
X101791Y364961D02*
X108484D01*
X105138Y361614D02*
Y368307D01*
X121791Y364961D02*
X128484D01*
X125138Y361614D02*
Y368307D01*
X141791Y364961D02*
X148484D01*
X145138Y361614D02*
Y368307D01*
X49114Y276772D02*
X54232D01*
X51673Y274213D02*
Y279331D01*
X29429Y266929D02*
X34547D01*
X31988Y264370D02*
Y269488D01*
X9744Y316929D02*
X14862D01*
X12303Y314370D02*
Y319488D01*
X49114Y316929D02*
X54232D01*
X51673Y314370D02*
Y319488D01*
X9744Y276772D02*
X14862D01*
X12303Y274213D02*
Y279331D01*
X182008Y329134D02*
X185945D01*
X183976Y327165D02*
Y331102D01*
X172008Y329134D02*
X175945D01*
X173976Y327165D02*
Y331102D01*
X202008Y329134D02*
X205945D01*
X203976Y327165D02*
Y331102D01*
X192008Y329134D02*
X195945D01*
X193976Y327165D02*
Y331102D01*
X136492Y187000D02*
X140508D01*
X138500Y184992D02*
Y189008D01*
X136492Y197000D02*
X140508D01*
X138500Y194992D02*
Y199008D01*
X126492Y187000D02*
X130508D01*
X128500Y184992D02*
Y189008D01*
X126492Y197000D02*
X130508D01*
X128500Y194992D02*
Y199008D01*
X116492Y187000D02*
X120508D01*
X118500Y184992D02*
Y189008D01*
X116492Y197000D02*
X120508D01*
X118500Y194992D02*
Y199008D01*
X106492Y187000D02*
X110508D01*
X108500Y184992D02*
Y189008D01*
X106492Y197000D02*
X110508D01*
X108500Y194992D02*
Y199008D01*
X96492Y187000D02*
X100508D01*
X98500Y184992D02*
Y189008D01*
X96492Y197000D02*
X100508D01*
X98500Y194992D02*
Y199008D01*
X86492Y187000D02*
X90508D01*
X88500Y184992D02*
Y189008D01*
X86492Y197000D02*
X90508D01*
X88500Y194992D02*
Y199008D01*
X131197Y192000D02*
X135803D01*
X133500Y189697D02*
Y194303D01*
X91197Y192000D02*
X95803D01*
X93500Y189697D02*
Y194303D01*
X21697Y192000D02*
X26303D01*
X24000Y189697D02*
Y194303D01*
X61697Y192000D02*
X66303D01*
X64000Y189697D02*
Y194303D01*
X16992Y197000D02*
X21008D01*
X19000Y194992D02*
Y199008D01*
X16992Y187000D02*
X21008D01*
X19000Y184992D02*
Y189008D01*
X26992Y197000D02*
X31008D01*
X29000Y194992D02*
Y199008D01*
X26992Y187000D02*
X31008D01*
X29000Y184992D02*
Y189008D01*
X36992Y197000D02*
X41008D01*
X39000Y194992D02*
Y199008D01*
X36992Y187000D02*
X41008D01*
X39000Y184992D02*
Y189008D01*
X46992Y197000D02*
X51008D01*
X49000Y194992D02*
Y199008D01*
X46992Y187000D02*
X51008D01*
X49000Y184992D02*
Y189008D01*
X56992Y197000D02*
X61008D01*
X59000Y194992D02*
Y199008D01*
X56992Y187000D02*
X61008D01*
X59000Y184992D02*
Y189008D01*
X66992Y197000D02*
X71008D01*
X69000Y194992D02*
Y199008D01*
X66992Y187000D02*
X71008D01*
X69000Y184992D02*
Y189008D01*
X142256Y118110D02*
X146193D01*
X144224Y116142D02*
Y120079D01*
X113909Y53150D02*
X117846D01*
X115878Y51181D02*
Y55118D01*
X113909Y118110D02*
X117846D01*
X115878Y116142D02*
Y120079D01*
X142256Y53150D02*
X146193D01*
X144224Y51181D02*
Y55118D01*
X92421Y118110D02*
X96358D01*
X94390Y116142D02*
Y120079D01*
X64075Y53150D02*
X68012D01*
X66043Y51181D02*
Y55118D01*
X64075Y118110D02*
X68012D01*
X66043Y116142D02*
Y120079D01*
X92421Y53150D02*
X96358D01*
X94390Y51181D02*
Y55118D01*
X42587Y118110D02*
X46524D01*
X44555Y116142D02*
Y120079D01*
X14240Y53150D02*
X18177D01*
X16209Y51181D02*
Y55118D01*
X14240Y118110D02*
X18177D01*
X16209Y116142D02*
Y120079D01*
X42587Y53150D02*
X46524D01*
X44555Y51181D02*
Y55118D01*
X28405Y18504D02*
X35098D01*
X31752Y15157D02*
Y21850D01*
X48406Y18504D02*
X55098D01*
X51752Y15157D02*
Y21850D01*
X68405Y18504D02*
X75098D01*
X71752Y15157D02*
Y21850D01*
X88406Y18504D02*
X95098D01*
X91752Y15157D02*
Y21850D01*
X108405Y18504D02*
X115098D01*
X111752Y15157D02*
Y21850D01*
X128405Y18504D02*
X135098D01*
X131752Y15157D02*
Y21850D01*
X326122Y18504D02*
X332815D01*
X329468Y15157D02*
Y21850D01*
X296122Y18504D02*
X302815D01*
X299468Y15157D02*
Y21850D01*
X266122Y18504D02*
X272815D01*
X269468Y15157D02*
Y21850D01*
X236122Y18504D02*
X242815D01*
X239469Y15157D02*
Y21850D01*
X355807Y268504D02*
X359350D01*
X357579Y266732D02*
Y270276D01*
X324311Y268504D02*
X327854D01*
X326083Y266732D02*
Y270276D01*
X355807Y240945D02*
X359350D01*
X357579Y239173D02*
Y242717D01*
X324311Y240945D02*
X327854D01*
X326083Y239173D02*
Y242717D01*
X366929Y295276D02*
X370276D01*
X368602Y293602D02*
Y296949D01*
X307874Y295276D02*
X311221D01*
X309547Y293602D02*
Y296949D01*
X335531Y319685D02*
X339469D01*
X337500Y317717D02*
Y321654D01*
X306004Y333465D02*
X309941D01*
X307972Y331496D02*
Y335433D01*
X314469Y364961D02*
X321161D01*
X317815Y361614D02*
Y368307D01*
X334469Y364961D02*
X341161D01*
X337815Y361614D02*
Y368307D01*
X294468Y364961D02*
X301161D01*
X297815Y361614D02*
Y368307D01*
X121409Y352000D02*
X122591D01*
X122000Y351410D02*
Y352590D01*
X117409Y352000D02*
X118591D01*
X118000Y351410D02*
Y352590D01*
X113409Y352000D02*
X114591D01*
X114000Y351410D02*
Y352590D01*
X109409Y352000D02*
X110591D01*
X110000Y351410D02*
Y352590D01*
X113409Y328000D02*
X114591D01*
X114000Y327410D02*
Y328590D01*
X113409Y324000D02*
X114591D01*
X114000Y323410D02*
Y324590D01*
X285409Y103000D02*
X286591D01*
X286000Y102409D02*
Y103591D01*
X281410Y103000D02*
X282591D01*
X282000Y102409D02*
Y103591D01*
X285409Y107000D02*
X286591D01*
X286000Y106409D02*
Y107591D01*
X281410Y107000D02*
X282591D01*
X282000Y106409D02*
Y107591D01*
X285409Y111000D02*
X286591D01*
X286000Y110409D02*
Y111591D01*
X281410Y111000D02*
X282591D01*
X282000Y110409D02*
Y111591D01*
X249410Y103000D02*
X250590D01*
X250000Y102409D02*
Y103591D01*
X245409Y103000D02*
X246590D01*
X246000Y102409D02*
Y103591D01*
X249410Y107000D02*
X250590D01*
X250000Y106409D02*
Y107591D01*
X245409Y107000D02*
X246590D01*
X246000Y106409D02*
Y107591D01*
X249410Y111000D02*
X250590D01*
X250000Y110409D02*
Y111591D01*
X245409Y111000D02*
X246590D01*
X246000Y110409D02*
Y111591D01*
X17410Y172000D02*
X18590D01*
X18000Y171409D02*
Y172591D01*
X21409Y172000D02*
X22591D01*
X22000Y171409D02*
Y172591D01*
X25409Y172000D02*
X26591D01*
X26000Y171409D02*
Y172591D01*
X17410Y168000D02*
X18590D01*
X18000Y167409D02*
Y168591D01*
X21409Y168000D02*
X22591D01*
X22000Y167409D02*
Y168591D01*
X25409Y168000D02*
X26591D01*
X26000Y167409D02*
Y168591D01*
X17410Y164000D02*
X18590D01*
X18000Y163409D02*
Y164591D01*
X21409Y164000D02*
X22591D01*
X22000Y163409D02*
Y164591D01*
X25409Y164000D02*
X26591D01*
X26000Y163409D02*
Y164591D01*
X102409Y231000D02*
X103591D01*
X103000Y230410D02*
Y231591D01*
X106409Y231000D02*
X107591D01*
X107000Y230410D02*
Y231591D01*
X110409Y231000D02*
X111591D01*
X111000Y230410D02*
Y231591D01*
X102409Y227000D02*
X103591D01*
X103000Y226410D02*
Y227590D01*
X106409Y227000D02*
X107591D01*
X107000Y226410D02*
Y227590D01*
X110409Y227000D02*
X111591D01*
X111000Y226410D02*
Y227590D01*
X102409Y223000D02*
X103591D01*
X103000Y222410D02*
Y223590D01*
X106409Y223000D02*
X107591D01*
X107000Y222410D02*
Y223590D01*
X110409Y223000D02*
X111591D01*
X111000Y222410D02*
Y223590D01*
X198409Y111000D02*
X199591D01*
X199000Y110409D02*
Y111591D01*
X202409Y111000D02*
X203591D01*
X203000Y110409D02*
Y111591D01*
X206410Y111000D02*
X207591D01*
X207000Y110409D02*
Y111591D01*
X198409Y107000D02*
X199591D01*
X199000Y106409D02*
Y107591D01*
X202409Y107000D02*
X203591D01*
X203000Y106409D02*
Y107591D01*
X206410Y107000D02*
X207591D01*
X207000Y106409D02*
Y107591D01*
X198409Y103000D02*
X199591D01*
X199000Y102409D02*
Y103591D01*
X202409Y103000D02*
X203591D01*
X203000Y102409D02*
Y103591D01*
X206410Y103000D02*
X207591D01*
X207000Y102409D02*
Y103591D01*
X371410Y111000D02*
X372590D01*
X372000Y110409D02*
Y111591D01*
X375410Y111000D02*
X376590D01*
X376000Y110409D02*
Y111591D01*
X379410Y111000D02*
X380591D01*
X380000Y110409D02*
Y111591D01*
X371410Y107000D02*
X372590D01*
X372000Y106409D02*
Y107591D01*
X375410Y107000D02*
X376590D01*
X376000Y106409D02*
Y107591D01*
X379410Y107000D02*
X380591D01*
X380000Y106409D02*
Y107591D01*
X371410Y103000D02*
X372590D01*
X372000Y102409D02*
Y103591D01*
X375410Y103000D02*
X376590D01*
X376000Y102409D02*
Y103591D01*
X379410Y103000D02*
X380591D01*
X380000Y102409D02*
Y103591D01*
X300410Y190000D02*
X301590D01*
X301000Y189409D02*
Y190591D01*
X304410Y190000D02*
X305591D01*
X305000Y189409D02*
Y190591D01*
X308410Y190000D02*
X309591D01*
X309000Y189409D02*
Y190591D01*
X300410Y186000D02*
X301590D01*
X301000Y185409D02*
Y186591D01*
X304410Y186000D02*
X305591D01*
X305000Y185409D02*
Y186591D01*
X308410Y186000D02*
X309591D01*
X309000Y185409D02*
Y186591D01*
X300410Y182000D02*
X301590D01*
X301000Y181409D02*
Y182591D01*
X304410Y182000D02*
X305591D01*
X305000Y181409D02*
Y182591D01*
X308410Y182000D02*
X309591D01*
X309000Y181409D02*
Y182591D01*
X13409Y164000D02*
X14591D01*
X14000Y163409D02*
Y164591D01*
X9409Y164000D02*
X10591D01*
X10000Y163409D02*
Y164591D01*
X5409Y164000D02*
X6591D01*
X6000Y163409D02*
Y164591D01*
X13409Y168000D02*
X14591D01*
X14000Y167409D02*
Y168591D01*
X9409Y168000D02*
X10591D01*
X10000Y167409D02*
Y168591D01*
X5409Y168000D02*
X6591D01*
X6000Y167409D02*
Y168591D01*
X13409Y172000D02*
X14591D01*
X14000Y171409D02*
Y172591D01*
X9409Y172000D02*
X10591D01*
X10000Y171409D02*
Y172591D01*
X5409Y172000D02*
X6591D01*
X6000Y171409D02*
Y172591D01*
X113409Y320000D02*
X114591D01*
X114000Y319409D02*
Y320590D01*
X183409Y339000D02*
X184591D01*
X184000Y338409D02*
Y339591D01*
X183409Y343000D02*
X184591D01*
X184000Y342409D02*
Y343590D01*
X183409Y377000D02*
X184591D01*
X184000Y376410D02*
Y377590D01*
X183409Y381000D02*
X184591D01*
X184000Y380410D02*
Y381591D01*
X125409Y295000D02*
X126591D01*
X126000Y294409D02*
Y295590D01*
X337016Y164000D02*
X338984D01*
X338000Y163016D02*
Y164984D01*
X337016Y152500D02*
X338984D01*
X338000Y151516D02*
Y153484D01*
X337016Y141000D02*
X338984D01*
X338000Y140016D02*
Y141984D01*
X210299Y175000D02*
X212701D01*
X211500Y173799D02*
Y176201D01*
X52516Y213500D02*
X54484D01*
X53500Y212516D02*
Y214484D01*
X113299Y161500D02*
X115701D01*
X114500Y160299D02*
Y162701D01*
X143819Y257000D02*
X146181D01*
X145000Y255819D02*
Y258181D01*
X5819Y243000D02*
X8181D01*
X7000Y241819D02*
Y244181D01*
X221909Y146000D02*
X223091D01*
X222500Y145409D02*
Y146591D01*
X58016Y164500D02*
X59984D01*
X59000Y163516D02*
Y165484D01*
X38016Y164500D02*
X39984D01*
X39000Y163516D02*
Y165484D01*
X48016Y164500D02*
X49984D01*
X49000Y163516D02*
Y165484D01*
X104516Y164500D02*
X106484D01*
X105500Y163516D02*
Y165484D01*
X98182Y164500D02*
X100151D01*
X99167Y163516D02*
Y165484D01*
X91849Y164500D02*
X93818D01*
X92833Y163516D02*
Y165484D01*
X85516Y164500D02*
X87484D01*
X86500Y163516D02*
Y165484D01*
X215409Y158000D02*
X216590D01*
X216000Y157409D02*
Y158591D01*
X215409Y153500D02*
X216590D01*
X216000Y152909D02*
Y154091D01*
X215409Y162500D02*
X216590D01*
X216000Y161909D02*
Y163091D01*
X215409Y149000D02*
X216590D01*
X216000Y148409D02*
Y149591D01*
X218499Y142911D02*
X219680D01*
X219089Y142320D02*
Y143501D01*
X149409Y182000D02*
X150591D01*
X150000Y181409D02*
Y182591D01*
X152409Y196500D02*
X153591D01*
X153000Y195909D02*
Y197091D01*
X192909Y196500D02*
X194091D01*
X193500Y195909D02*
Y197091D01*
X149409Y191000D02*
X150591D01*
X150000Y190409D02*
Y191591D01*
X180909Y191000D02*
X182091D01*
X181500Y190409D02*
Y191591D01*
X121817Y173407D02*
X122998D01*
X122407Y172817D02*
Y173998D01*
X215249Y139661D02*
X216430D01*
X215839Y139070D02*
Y140251D01*
X132819Y332000D02*
X135181D01*
X134000Y330819D02*
Y333181D01*
X93819Y334000D02*
X96181D01*
X95000Y332819D02*
Y335181D01*
%TF.MD5,e5253ba8965cf3427ca9599370f59fa3*%
M02*
