%TF.GenerationSoftware,Altium Limited,Altium Designer,25.6.2 (33)*%
G04 Layer_Color=8388736*
%FSLAX25Y25*%
%MOIN*%
%TF.SameCoordinates,FE0DA3C0-2896-4111-9436-F88E09ACE2E6*%
%TF.FilePolarity,Negative*%
%TF.FileFunction,Soldermask,Top*%
%TF.Part,Single*%
G01*
G75*
%TA.AperFunction,ConnectorPad*%
%ADD71R,0.07296X0.04934*%
%TA.AperFunction,SMDPad,CuDef*%
G04:AMPARAMS|DCode=72|XSize=55.24mil|YSize=59.18mil|CornerRadius=13.84mil|HoleSize=0mil|Usage=FLASHONLY|Rotation=90.000|XOffset=0mil|YOffset=0mil|HoleType=Round|Shape=RoundedRectangle|*
%AMROUNDEDRECTD72*
21,1,0.05524,0.03150,0,0,90.0*
21,1,0.02756,0.05918,0,0,90.0*
1,1,0.02769,0.01575,0.01378*
1,1,0.02769,0.01575,-0.01378*
1,1,0.02769,-0.01575,-0.01378*
1,1,0.02769,-0.01575,0.01378*
%
%ADD72ROUNDEDRECTD72*%
%ADD73O,0.03162X0.06509*%
G04:AMPARAMS|DCode=74|XSize=76.9mil|YSize=57.21mil|CornerRadius=13.84mil|HoleSize=0mil|Usage=FLASHONLY|Rotation=90.000|XOffset=0mil|YOffset=0mil|HoleType=Round|Shape=RoundedRectangle|*
%AMROUNDEDRECTD74*
21,1,0.07690,0.02953,0,0,90.0*
21,1,0.04921,0.05721,0,0,90.0*
1,1,0.02769,0.01476,0.02461*
1,1,0.02769,0.01476,-0.02461*
1,1,0.02769,-0.01476,-0.02461*
1,1,0.02769,-0.01476,0.02461*
%
%ADD74ROUNDEDRECTD74*%
%ADD75O,0.03162X0.07296*%
%ADD76R,0.03162X0.04737*%
%ADD77R,0.04934X0.07296*%
%ADD78R,0.07296X0.04934*%
G04:AMPARAMS|DCode=79|XSize=76.9mil|YSize=57.21mil|CornerRadius=13.84mil|HoleSize=0mil|Usage=FLASHONLY|Rotation=180.000|XOffset=0mil|YOffset=0mil|HoleType=Round|Shape=RoundedRectangle|*
%AMROUNDEDRECTD79*
21,1,0.07690,0.02953,0,0,180.0*
21,1,0.04921,0.05721,0,0,180.0*
1,1,0.02769,-0.02461,0.01476*
1,1,0.02769,0.02461,0.01476*
1,1,0.02769,0.02461,-0.01476*
1,1,0.02769,-0.02461,-0.01476*
%
%ADD79ROUNDEDRECTD79*%
G04:AMPARAMS|DCode=80|XSize=55.24mil|YSize=59.18mil|CornerRadius=13.84mil|HoleSize=0mil|Usage=FLASHONLY|Rotation=180.000|XOffset=0mil|YOffset=0mil|HoleType=Round|Shape=RoundedRectangle|*
%AMROUNDEDRECTD80*
21,1,0.05524,0.03150,0,0,180.0*
21,1,0.02756,0.05918,0,0,180.0*
1,1,0.02769,-0.01378,0.01575*
1,1,0.02769,0.01378,0.01575*
1,1,0.02769,0.01378,-0.01575*
1,1,0.02769,-0.01378,-0.01575*
%
%ADD80ROUNDEDRECTD80*%
%ADD81R,0.07099X0.14580*%
%ADD82R,0.10446X0.07099*%
%ADD83R,0.03950X0.02965*%
%ADD84R,0.04816X0.08300*%
%ADD85R,0.04343X0.09265*%
%ADD86R,0.13595X0.09265*%
G04:AMPARAMS|DCode=87|XSize=55.24mil|YSize=59.18mil|CornerRadius=13.84mil|HoleSize=0mil|Usage=FLASHONLY|Rotation=225.000|XOffset=0mil|YOffset=0mil|HoleType=Round|Shape=RoundedRectangle|*
%AMROUNDEDRECTD87*
21,1,0.05524,0.03150,0,0,225.0*
21,1,0.02756,0.05918,0,0,225.0*
1,1,0.02769,-0.02088,0.00139*
1,1,0.02769,-0.00139,0.02088*
1,1,0.02769,0.02088,-0.00139*
1,1,0.02769,0.00139,-0.02088*
%
%ADD87ROUNDEDRECTD87*%
G04:AMPARAMS|DCode=88|XSize=19.81mil|YSize=65.09mil|CornerRadius=0mil|HoleSize=0mil|Usage=FLASHONLY|Rotation=45.000|XOffset=0mil|YOffset=0mil|HoleType=Round|Shape=Round|*
%AMOVALD88*
21,1,0.04528,0.01981,0.00000,0.00000,135.0*
1,1,0.01981,0.01601,-0.01601*
1,1,0.01981,-0.01601,0.01601*
%
%ADD88OVALD88*%

G04:AMPARAMS|DCode=89|XSize=19.81mil|YSize=65.09mil|CornerRadius=0mil|HoleSize=0mil|Usage=FLASHONLY|Rotation=135.000|XOffset=0mil|YOffset=0mil|HoleType=Round|Shape=Round|*
%AMOVALD89*
21,1,0.04528,0.01981,0.00000,0.00000,225.0*
1,1,0.01981,0.01601,0.01601*
1,1,0.01981,-0.01601,-0.01601*
%
%ADD89OVALD89*%

%ADD90R,0.12414X0.08753*%
G04:AMPARAMS|DCode=91|XSize=55.24mil|YSize=59.18mil|CornerRadius=13.84mil|HoleSize=0mil|Usage=FLASHONLY|Rotation=135.000|XOffset=0mil|YOffset=0mil|HoleType=Round|Shape=RoundedRectangle|*
%AMROUNDEDRECTD91*
21,1,0.05524,0.03150,0,0,135.0*
21,1,0.02756,0.05918,0,0,135.0*
1,1,0.02769,0.00139,0.02088*
1,1,0.02769,0.02088,0.00139*
1,1,0.02769,-0.00139,-0.02088*
1,1,0.02769,-0.02088,-0.00139*
%
%ADD91ROUNDEDRECTD91*%
%ADD92R,0.18517X0.05524*%
%TA.AperFunction,ComponentPad*%
%ADD93C,0.09300*%
%ADD94R,0.06706X0.06706*%
%ADD95C,0.06706*%
%ADD96C,0.10839*%
%ADD97R,0.10839X0.10839*%
%ADD98C,0.08477*%
%ADD99R,0.08477X0.08477*%
%ADD100C,0.06737*%
%ADD101R,0.06737X0.06737*%
%ADD102C,0.02808*%
%ADD103C,0.03103*%
%ADD104C,0.08674*%
%ADD105C,0.06312*%
%ADD106C,0.05524*%
%TA.AperFunction,ViaPad*%
%ADD107C,0.03162*%
%ADD108C,0.04737*%
%ADD109C,0.05564*%
%ADD110C,0.05524*%
%ADD111C,0.04737*%
D71*
X177000Y342209D02*
D03*
Y355791D02*
D03*
D72*
X45999Y235457D02*
D03*
Y242543D02*
D03*
X160432Y323228D02*
D03*
Y330315D02*
D03*
X126301Y308343D02*
D03*
Y301257D02*
D03*
X118901Y308343D02*
D03*
Y301257D02*
D03*
X79499Y316757D02*
D03*
Y323843D02*
D03*
X71999Y316757D02*
D03*
Y323843D02*
D03*
X111999Y254543D02*
D03*
Y247457D02*
D03*
X91999Y254543D02*
D03*
Y247457D02*
D03*
X81999D02*
D03*
Y254543D02*
D03*
X31199Y230443D02*
D03*
Y223357D02*
D03*
X23599Y230443D02*
D03*
Y223357D02*
D03*
X143499Y168543D02*
D03*
Y161457D02*
D03*
X136001Y168543D02*
D03*
Y161457D02*
D03*
X128501Y168543D02*
D03*
Y161457D02*
D03*
X121001Y168543D02*
D03*
Y161457D02*
D03*
X296904Y128227D02*
D03*
Y121140D02*
D03*
X304403Y122227D02*
D03*
Y115140D02*
D03*
X296903Y107640D02*
D03*
Y114727D02*
D03*
X296904Y69727D02*
D03*
Y62640D02*
D03*
Y99727D02*
D03*
Y92640D02*
D03*
X304404Y100140D02*
D03*
Y107227D02*
D03*
Y92227D02*
D03*
Y85140D02*
D03*
X296904Y84727D02*
D03*
Y77640D02*
D03*
X304404Y77227D02*
D03*
Y70140D02*
D03*
Y62227D02*
D03*
Y55140D02*
D03*
X304403Y48183D02*
D03*
Y41097D02*
D03*
X226001Y127543D02*
D03*
Y120457D02*
D03*
X233499Y121543D02*
D03*
Y114457D02*
D03*
X225999Y106957D02*
D03*
Y114043D02*
D03*
X233501Y99457D02*
D03*
Y106543D02*
D03*
X226001Y99043D02*
D03*
Y91957D02*
D03*
X233501Y91543D02*
D03*
Y84457D02*
D03*
X226001Y84043D02*
D03*
Y76957D02*
D03*
Y69043D02*
D03*
Y61957D02*
D03*
X233501Y76543D02*
D03*
Y69457D02*
D03*
Y61543D02*
D03*
Y54457D02*
D03*
X233500Y47500D02*
D03*
Y40413D02*
D03*
X261962Y127297D02*
D03*
Y120211D02*
D03*
X269461Y121297D02*
D03*
Y114211D02*
D03*
X261961Y106711D02*
D03*
Y113797D02*
D03*
X269462Y99211D02*
D03*
Y106297D02*
D03*
X261962Y98797D02*
D03*
Y91711D02*
D03*
X269462Y91297D02*
D03*
Y84211D02*
D03*
X261962Y83797D02*
D03*
Y76711D02*
D03*
X269462Y76297D02*
D03*
Y69211D02*
D03*
X261962Y68797D02*
D03*
Y61711D02*
D03*
X269461Y47254D02*
D03*
Y40167D02*
D03*
X269462Y61297D02*
D03*
Y54211D02*
D03*
X211741Y183917D02*
D03*
X203867D02*
D03*
X196001Y183957D02*
D03*
X188001D02*
D03*
X211741Y191004D02*
D03*
X211739Y199697D02*
D03*
X350499Y192043D02*
D03*
X357999D02*
D03*
X342999D02*
D03*
X203867Y191004D02*
D03*
X203866Y199697D02*
D03*
X365499Y192043D02*
D03*
X136757Y136390D02*
D03*
X123156Y136390D02*
D03*
X86923Y136391D02*
D03*
X73321Y136390D02*
D03*
X37088Y136391D02*
D03*
X23487Y136390D02*
D03*
X211739Y206784D02*
D03*
X203866D02*
D03*
X144156Y129304D02*
D03*
Y136390D02*
D03*
X136757Y129304D02*
D03*
X123156Y129304D02*
D03*
X115856D02*
D03*
Y136390D02*
D03*
X94321Y129304D02*
D03*
Y136390D02*
D03*
X86923Y129304D02*
D03*
X73321Y129304D02*
D03*
X66021D02*
D03*
Y136390D02*
D03*
X44487Y129304D02*
D03*
Y136390D02*
D03*
X37088Y129304D02*
D03*
X23487Y129304D02*
D03*
X16187D02*
D03*
Y136390D02*
D03*
X196001Y191043D02*
D03*
X188001D02*
D03*
X365499Y184957D02*
D03*
X357999D02*
D03*
X350499D02*
D03*
X342999D02*
D03*
D73*
X102087Y323721D02*
D03*
X97087D02*
D03*
X92087D02*
D03*
X87087D02*
D03*
X102087Y302264D02*
D03*
X97087D02*
D03*
X92087D02*
D03*
X87087D02*
D03*
D74*
X130412Y342500D02*
D03*
X119388D02*
D03*
X81888Y342500D02*
D03*
X92912D02*
D03*
D75*
X102000Y288697D02*
D03*
X92000D02*
D03*
Y263303D02*
D03*
X102000D02*
D03*
X122000Y288697D02*
D03*
X112000D02*
D03*
Y263303D02*
D03*
X122000D02*
D03*
X72000Y288697D02*
D03*
X82000D02*
D03*
X72000Y263303D02*
D03*
X82000D02*
D03*
D76*
X126440Y331624D02*
D03*
X118960D02*
D03*
X122700Y322176D02*
D03*
D77*
X144209Y344000D02*
D03*
X157791D02*
D03*
D78*
X166308Y356791D02*
D03*
Y343209D02*
D03*
X177000Y376102D02*
D03*
Y362520D02*
D03*
D79*
X166800Y375512D02*
D03*
Y364488D02*
D03*
D80*
X202362Y340550D02*
D03*
X195276D02*
D03*
X119057Y315401D02*
D03*
X126143D02*
D03*
X101457Y341301D02*
D03*
X108543D02*
D03*
X101457Y333801D02*
D03*
X108543D02*
D03*
X88643Y333799D02*
D03*
X81557D02*
D03*
X78843Y302499D02*
D03*
X71757D02*
D03*
X86979Y143647D02*
D03*
X73165D02*
D03*
X136813Y143647D02*
D03*
X123000D02*
D03*
X37144Y143647D02*
D03*
X23331D02*
D03*
X143900Y143647D02*
D03*
X115913D02*
D03*
X94065Y143647D02*
D03*
X66079D02*
D03*
X44231D02*
D03*
X16244D02*
D03*
X351457Y158334D02*
D03*
X358543D02*
D03*
X351457Y136001D02*
D03*
X358543D02*
D03*
X351457Y147167D02*
D03*
X358543D02*
D03*
X351457Y169501D02*
D03*
X358543D02*
D03*
D81*
X134000Y226976D02*
D03*
Y249024D02*
D03*
X258000Y181390D02*
D03*
Y203437D02*
D03*
D82*
X35879Y241100D02*
D03*
X20721D02*
D03*
D83*
X46232Y227000D02*
D03*
X37768Y229559D02*
D03*
Y224441D02*
D03*
D84*
X138500Y180002D02*
D03*
Y203998D02*
D03*
X128500Y180002D02*
D03*
Y203998D02*
D03*
X118500Y180002D02*
D03*
Y203998D02*
D03*
X108500Y180002D02*
D03*
Y203998D02*
D03*
X98500Y180002D02*
D03*
Y203998D02*
D03*
X88500D02*
D03*
Y180002D02*
D03*
X19000Y203998D02*
D03*
Y180002D02*
D03*
X29000Y203998D02*
D03*
Y180002D02*
D03*
X39000Y203998D02*
D03*
Y180002D02*
D03*
X49000Y203998D02*
D03*
Y180002D02*
D03*
X59000Y203998D02*
D03*
Y180002D02*
D03*
X69000Y203998D02*
D03*
Y180002D02*
D03*
D85*
X238512Y204913D02*
D03*
X220402D02*
D03*
X229457D02*
D03*
D86*
Y181882D02*
D03*
D87*
X159995Y149994D02*
D03*
X154495Y155494D02*
D03*
X166506Y173005D02*
D03*
X172006Y167505D02*
D03*
X159506Y160505D02*
D03*
X165006Y155005D02*
D03*
X161495Y167994D02*
D03*
X166995Y162494D02*
D03*
D88*
X170582Y146106D02*
D03*
X202458Y130934D02*
D03*
X176150Y151674D02*
D03*
X171974Y147498D02*
D03*
X173366Y148890D02*
D03*
X174758Y150282D02*
D03*
X177542Y153066D02*
D03*
X178934Y154458D02*
D03*
X180326Y155850D02*
D03*
X181718Y157242D02*
D03*
X183110Y158634D02*
D03*
X184502Y160026D02*
D03*
X185894Y161418D02*
D03*
X209418Y137894D02*
D03*
X208026Y136502D02*
D03*
X206634Y135110D02*
D03*
X205242Y133718D02*
D03*
X203850Y132326D02*
D03*
X201066Y129542D02*
D03*
X199674Y128150D02*
D03*
X198282Y126758D02*
D03*
X196890Y125366D02*
D03*
X195498Y123974D02*
D03*
X194106Y122582D02*
D03*
D89*
X170582Y137894D02*
D03*
X194106Y161418D02*
D03*
X199674Y155850D02*
D03*
X185894Y122582D02*
D03*
X171974Y136502D02*
D03*
X181718Y126758D02*
D03*
X183110Y125366D02*
D03*
X195498Y160026D02*
D03*
X196890Y158634D02*
D03*
X198282Y157242D02*
D03*
X201066Y154458D02*
D03*
X202458Y153066D02*
D03*
X203850Y151674D02*
D03*
X205242Y150282D02*
D03*
X206634Y148890D02*
D03*
X208026Y147498D02*
D03*
X209418Y146106D02*
D03*
X184502Y123974D02*
D03*
X180326Y128150D02*
D03*
X178934Y129542D02*
D03*
X177542Y130934D02*
D03*
X176150Y132326D02*
D03*
X174758Y133718D02*
D03*
X173366Y135110D02*
D03*
D90*
X340000Y71842D02*
D03*
Y52157D02*
D03*
D91*
X182505Y111494D02*
D03*
X177005Y105994D02*
D03*
X177494Y116505D02*
D03*
X171994Y111005D02*
D03*
D92*
X234000Y152000D02*
D03*
X271000D02*
D03*
D93*
X364665Y320276D02*
D03*
Y370276D02*
D03*
D94*
X290551Y249016D02*
D03*
X337500Y319685D02*
D03*
D95*
X290551Y272638D02*
D03*
X158268Y225394D02*
D03*
Y296260D02*
D03*
X307972Y333465D02*
D03*
D96*
X45138Y364961D02*
D03*
X65138D02*
D03*
X85138D02*
D03*
X105138D02*
D03*
X125138D02*
D03*
X145138D02*
D03*
X31752Y18504D02*
D03*
X51752D02*
D03*
X71752D02*
D03*
X91752D02*
D03*
X111752D02*
D03*
X329468Y18504D02*
D03*
X299468D02*
D03*
X269468D02*
D03*
X317815Y364961D02*
D03*
X337815D02*
D03*
D97*
X25138D02*
D03*
X131752Y18504D02*
D03*
X239469Y18504D02*
D03*
X297815Y364961D02*
D03*
D98*
X51673Y276772D02*
D03*
X12303Y316929D02*
D03*
X51673D02*
D03*
X12303Y276772D02*
D03*
D99*
X31988Y266929D02*
D03*
D100*
X183976Y329134D02*
D03*
X173976D02*
D03*
X193976D02*
D03*
D101*
X203976D02*
D03*
D102*
X138500Y187000D02*
D03*
Y197000D02*
D03*
X128500Y187000D02*
D03*
Y197000D02*
D03*
X118500Y187000D02*
D03*
Y197000D02*
D03*
X108500Y187000D02*
D03*
Y197000D02*
D03*
X98500Y187000D02*
D03*
Y197000D02*
D03*
X88500Y187000D02*
D03*
Y197000D02*
D03*
X19000D02*
D03*
Y187000D02*
D03*
X29000Y197000D02*
D03*
Y187000D02*
D03*
X39000Y197000D02*
D03*
Y187000D02*
D03*
X49000Y197000D02*
D03*
Y187000D02*
D03*
X59000Y197000D02*
D03*
Y187000D02*
D03*
X69000Y197000D02*
D03*
Y187000D02*
D03*
D103*
X133500Y192000D02*
D03*
X93500D02*
D03*
X24000D02*
D03*
X64000D02*
D03*
D104*
X144224Y118110D02*
D03*
X115878Y53150D02*
D03*
Y118110D02*
D03*
X144224Y53150D02*
D03*
X94390Y118110D02*
D03*
X66043Y53150D02*
D03*
Y118110D02*
D03*
X94390Y53150D02*
D03*
X44555Y118110D02*
D03*
X16209Y53150D02*
D03*
Y118110D02*
D03*
X44555Y53150D02*
D03*
D105*
X357579Y268504D02*
D03*
X326083D02*
D03*
X357579Y240945D02*
D03*
X326083D02*
D03*
D106*
X368602Y295276D02*
D03*
X309547D02*
D03*
D107*
X122000Y352000D02*
D03*
X118000D02*
D03*
X114000D02*
D03*
X110000D02*
D03*
X114000Y328000D02*
D03*
Y324000D02*
D03*
X286000Y103000D02*
D03*
X282000D02*
D03*
X286000Y107000D02*
D03*
X282000D02*
D03*
X286000Y111000D02*
D03*
X282000D02*
D03*
X250000Y103000D02*
D03*
X246000D02*
D03*
X250000Y107000D02*
D03*
X246000D02*
D03*
X250000Y111000D02*
D03*
X246000D02*
D03*
X18000Y172000D02*
D03*
X22000D02*
D03*
X26000D02*
D03*
X18000Y168000D02*
D03*
X22000D02*
D03*
X26000D02*
D03*
X18000Y164000D02*
D03*
X22000D02*
D03*
X26000D02*
D03*
X103000Y231000D02*
D03*
X107000D02*
D03*
X111000D02*
D03*
X103000Y227000D02*
D03*
X107000D02*
D03*
X111000D02*
D03*
X103000Y223000D02*
D03*
X107000D02*
D03*
X111000D02*
D03*
X199000Y111000D02*
D03*
X203000D02*
D03*
X207000D02*
D03*
X199000Y107000D02*
D03*
X203000D02*
D03*
X207000D02*
D03*
X199000Y103000D02*
D03*
X203000D02*
D03*
X207000D02*
D03*
X372000Y111000D02*
D03*
X376000D02*
D03*
X380000D02*
D03*
X372000Y107000D02*
D03*
X376000D02*
D03*
X380000D02*
D03*
X372000Y103000D02*
D03*
X376000D02*
D03*
X380000D02*
D03*
X301000Y190000D02*
D03*
X305000D02*
D03*
X309000D02*
D03*
X301000Y186000D02*
D03*
X305000D02*
D03*
X309000D02*
D03*
X301000Y182000D02*
D03*
X305000D02*
D03*
X309000D02*
D03*
X14000Y164000D02*
D03*
X10000D02*
D03*
X6000D02*
D03*
X14000Y168000D02*
D03*
X10000D02*
D03*
X6000D02*
D03*
X14000Y172000D02*
D03*
X10000D02*
D03*
X6000D02*
D03*
X114000Y320000D02*
D03*
X184000Y339000D02*
D03*
Y343000D02*
D03*
Y377000D02*
D03*
Y381000D02*
D03*
X126000Y295000D02*
D03*
X222500Y146000D02*
D03*
X216000Y158000D02*
D03*
Y153500D02*
D03*
Y162500D02*
D03*
Y149000D02*
D03*
X219089Y142911D02*
D03*
X150000Y182000D02*
D03*
X153000Y196500D02*
D03*
X193500D02*
D03*
X150000Y191000D02*
D03*
X181500D02*
D03*
X122407Y173407D02*
D03*
X215839Y139661D02*
D03*
D108*
X338000Y164000D02*
D03*
Y152500D02*
D03*
Y141000D02*
D03*
X53500Y213500D02*
D03*
X49000Y164500D02*
D03*
X105500D02*
D03*
X99167D02*
D03*
X92833D02*
D03*
X86500D02*
D03*
D109*
X211500Y175000D02*
D03*
X114500Y161500D02*
D03*
D110*
X145000Y257000D02*
D03*
X7000Y243000D02*
D03*
X134000Y332000D02*
D03*
X95000Y334000D02*
D03*
D111*
X59000Y164500D02*
D03*
X39000D02*
D03*
%TF.MD5,22d45dbcbecbb725149b3e9be513941a*%
M02*
